{"glyphs":{"0":{"ha":694,"x_min":0,"x_max":608,"o":"m 0 174 l 0 694 l 87 694 l 87 781 l 174 781 l 174 868 l 434 868 l 434 781 l 521 781 l 521 694 l 608 694 l 608 174 l 521 174 l 521 87 l 434 87 l 434 0 l 174 0 l 174 87 l 87 87 l 87 174 l 0 174 m 174 174 l 260 174 l 260 87 l 347 87 l 347 174 l 434 174 l 434 694 l 347 694 l 347 781 l 260 781 l 260 694 l 174 694 l 174 174 m 347 347 l 260 347 l 260 521 l 347 521 l 347 347 z "},"1":{"ha":694,"x_min":87,"x_max":608,"o":"m 87 0 l 87 87 l 260 87 l 260 608 l 87 608 l 87 694 l 174 694 l 174 781 l 260 781 l 260 868 l 434 868 l 434 87 l 608 87 l 608 0 l 87 0 z "},"2":{"ha":694,"x_min":0,"x_max":608,"o":"m 0 0 l 0 260 l 87 260 l 87 347 l 174 347 l 174 434 l 260 434 l 260 521 l 347 521 l 347 608 l 434 608 l 434 781 l 174 781 l 174 694 l 0 694 l 0 781 l 87 781 l 87 868 l 521 868 l 521 781 l 608 781 l 608 608 l 521 608 l 521 521 l 434 521 l 434 434 l 347 434 l 347 347 l 260 347 l 260 260 l 174 260 l 174 87 l 434 87 l 434 174 l 608 174 l 608 0 l 0 0 z "},"3":{"ha":694,"x_min":0,"x_max":608,"o":"m 0 87 l 0 174 l 174 174 l 174 87 l 434 87 l 434 434 l 174 434 l 174 521 l 434 521 l 434 781 l 174 781 l 174 694 l 0 694 l 0 781 l 87 781 l 87 868 l 521 868 l 521 781 l 608 781 l 608 521 l 521 521 l 521 434 l 608 434 l 608 87 l 521 87 l 521 0 l 87 0 l 87 87 l 0 87 z "},"4":{"ha":694,"x_min":0,"x_max":608,"o":"m 0 347 l 0 521 l 87 521 l 87 608 l 174 608 l 174 694 l 260 694 l 260 781 l 347 781 l 347 868 l 521 868 l 521 434 l 608 434 l 608 347 l 521 347 l 521 87 l 608 87 l 608 0 l 260 0 l 260 87 l 347 87 l 347 347 l 0 347 m 174 434 l 347 434 l 347 608 l 260 608 l 260 521 l 174 521 l 174 434 z "},"5":{"ha":694,"x_min":0,"x_max":608,"o":"m 0 87 l 0 174 l 174 174 l 174 87 l 434 87 l 434 434 l 0 434 l 0 868 l 608 868 l 608 781 l 174 781 l 174 521 l 521 521 l 521 434 l 608 434 l 608 87 l 521 87 l 521 0 l 87 0 l 87 87 l 0 87 z "},"6":{"ha":694,"x_min":0,"x_max":608,"o":"m 0 87 l 0 694 l 87 694 l 87 781 l 174 781 l 174 868 l 434 868 l 434 781 l 260 781 l 260 694 l 174 694 l 174 521 l 521 521 l 521 434 l 608 434 l 608 87 l 521 87 l 521 0 l 87 0 l 87 87 l 0 87 m 174 87 l 434 87 l 434 434 l 174 434 l 174 87 z "},"7":{"ha":694,"x_min":0,"x_max":608,"o":"m 0 868 l 608 868 l 608 521 l 521 521 l 521 434 l 434 434 l 434 347 l 347 347 l 347 0 l 174 0 l 174 347 l 260 347 l 260 434 l 347 434 l 347 521 l 434 521 l 434 781 l 174 781 l 174 694 l 0 694 l 0 868 z "},"8":{"ha":694,"x_min":0,"x_max":608,"o":"m 0 87 l 0 434 l 87 434 l 87 521 l 0 521 l 0 781 l 87 781 l 87 868 l 521 868 l 521 781 l 608 781 l 608 521 l 521 521 l 521 434 l 608 434 l 608 87 l 521 87 l 521 0 l 87 0 l 87 87 l 0 87 m 174 87 l 434 87 l 434 434 l 174 434 l 174 87 m 174 521 l 434 521 l 434 781 l 174 781 l 174 521 z "},"9":{"ha":694,"x_min":0,"x_max":608,"o":"m 0 521 l 0 781 l 87 781 l 87 868 l 521 868 l 521 781 l 608 781 l 608 174 l 521 174 l 521 87 l 434 87 l 434 0 l 87 0 l 87 87 l 347 87 l 347 174 l 434 174 l 434 434 l 87 434 l 87 521 l 0 521 m 174 521 l 434 521 l 434 781 l 174 781 l 174 521 z "},"\u0000":{"ha":694,"x_min":0,"x_max":0,"o":""},"\r":{"ha":694,"x_min":0,"x_max":694,"o":"m 0 174 l 87 174 l 87 260 l 174 260 l 174 868 l 694 868 l 694 608 l 347 608 l 347 87 l 260 87 l 260 0 l 0 0 l 0 174 m 347 781 l 347 694 l 521 694 l 521 781 l 347 781 z "},"\u0001":{"ha":694,"x_min":0,"x_max":694,"o":"m 0 87 l 0 781 l 87 781 l 87 87 l 0 87 m 174 347 l 174 434 l 521 434 l 521 347 l 434 347 l 434 260 l 260 260 l 260 347 l 174 347 m 174 608 l 174 694 l 260 694 l 260 608 l 174 608 m 521 608 l 434 608 l 434 694 l 521 694 l 521 608 m 694 87 l 608 87 l 608 781 l 694 781 l 694 87 m 87 87 l 608 87 l 608 0 l 87 0 l 87 87 m 87 781 l 87 868 l 608 868 l 608 781 l 87 781 z "},"\u0002":{"ha":694,"x_min":0,"x_max":694,"o":"m 0 87 l 0 781 l 87 781 l 87 868 l 608 868 l 608 781 l 694 781 l 694 87 l 608 87 l 608 0 l 87 0 l 87 87 l 0 87 m 174 434 l 174 347 l 260 347 l 260 260 l 434 260 l 434 347 l 521 347 l 521 434 l 174 434 m 174 608 l 260 608 l 260 694 l 174 694 l 174 608 m 521 608 l 521 694 l 434 694 l 434 608 l 521 608 z "},"\u0003":{"ha":694,"x_min":0,"x_max":608,"o":"m 0 260 l 0 608 l 87 608 l 87 694 l 260 694 l 260 608 l 347 608 l 347 694 l 521 694 l 521 608 l 608 608 l 608 260 l 521 260 l 521 174 l 434 174 l 434 87 l 347 87 l 347 0 l 260 0 l 260 87 l 174 87 l 174 174 l 87 174 l 87 260 l 0 260 z "},"\u0004":{"ha":694,"x_min":0,"x_max":608,"o":"m 0 347 l 0 434 l 87 434 l 87 521 l 174 521 l 174 608 l 260 608 l 260 694 l 347 694 l 347 608 l 434 608 l 434 521 l 521 521 l 521 434 l 608 434 l 608 347 l 521 347 l 521 260 l 434 260 l 434 174 l 347 174 l 347 87 l 260 87 l 260 174 l 174 174 l 174 260 l 87 260 l 87 347 l 0 347 z "},"\u0005":{"ha":694,"x_min":0,"x_max":694,"o":"m 0 260 l 0 521 l 174 521 l 174 694 l 260 694 l 260 781 l 434 781 l 434 694 l 521 694 l 521 521 l 694 521 l 694 260 l 434 260 l 434 521 l 260 521 l 260 260 l 0 260 m 174 0 l 174 87 l 260 87 l 260 260 l 434 260 l 434 87 l 521 87 l 521 0 l 174 0 z "},"\u0006":{"ha":694,"x_min":0,"x_max":694,"o":"m 0 347 l 0 521 l 87 521 l 87 608 l 174 608 l 174 694 l 260 694 l 260 781 l 434 781 l 434 694 l 521 694 l 521 608 l 608 608 l 608 521 l 694 521 l 694 347 l 608 347 l 608 260 l 434 260 l 434 87 l 521 87 l 521 0 l 174 0 l 174 87 l 260 87 l 260 260 l 87 260 l 87 347 l 0 347 z "},"\u0007":{"ha":694,"x_min":174,"x_max":521,"o":"m 434 174 l 260 174 l 260 260 l 174 260 l 174 434 l 260 434 l 260 521 l 434 521 l 434 434 l 521 434 l 521 260 l 434 260 l 434 174 z "},"\b":{"ha":694,"x_min":0,"x_max":694,"o":"m 0 -347 l 0 1042 l 694 1042 l 694 -347 l 0 -347 m 174 260 l 260 260 l 260 174 l 434 174 l 434 260 l 521 260 l 521 434 l 434 434 l 434 521 l 260 521 l 260 434 l 174 434 l 174 260 z "},"\t":{"ha":694,"x_min":87,"x_max":608,"o":"m 87 174 l 87 521 l 174 521 l 174 608 l 521 608 l 521 521 l 608 521 l 608 174 l 521 174 l 521 87 l 174 87 l 174 174 l 87 174 m 174 260 l 260 260 l 260 174 l 434 174 l 434 260 l 521 260 l 521 434 l 434 434 l 434 521 l 260 521 l 260 434 l 174 434 l 174 260 z "},"\n":{"ha":694,"x_min":0,"x_max":694,"o":"m 0 -347 l 0 1042 l 694 1042 l 694 -347 l 0 -347 m 174 174 l 174 87 l 521 87 l 521 174 l 608 174 l 608 521 l 521 521 l 521 608 l 174 608 l 174 521 l 87 521 l 87 174 l 174 174 m 174 434 l 260 434 l 260 521 l 434 521 l 434 434 l 521 434 l 521 260 l 434 260 l 434 174 l 260 174 l 260 260 l 174 260 l 174 434 z "},"\u000b":{"ha":694,"x_min":0,"x_max":608,"o":"m 0 87 l 0 434 l 87 434 l 87 521 l 174 521 l 174 608 l 260 608 l 260 694 l 347 694 l 347 781 l 260 781 l 260 868 l 608 868 l 608 521 l 521 521 l 521 694 l 434 694 l 434 608 l 347 608 l 347 521 l 434 521 l 434 434 l 521 434 l 521 87 l 434 87 l 434 0 l 87 0 l 87 87 l 0 87 m 174 87 l 347 87 l 347 434 l 174 434 l 174 87 z "},"\f":{"ha":694,"x_min":87,"x_max":608,"o":"m 174 434 l 87 434 l 87 781 l 174 781 l 174 868 l 521 868 l 521 781 l 608 781 l 608 434 l 521 434 l 521 347 l 434 347 l 434 260 l 608 260 l 608 174 l 434 174 l 434 0 l 260 0 l 260 174 l 87 174 l 87 260 l 260 260 l 260 347 l 174 347 l 174 434 m 260 434 l 434 434 l 434 781 l 260 781 l 260 434 z "},"\u000e":{"ha":694,"x_min":0,"x_max":694,"o":"m 0 174 l 87 174 l 87 868 l 694 868 l 694 87 l 608 87 l 608 0 l 434 0 l 434 260 l 521 260 l 521 608 l 260 608 l 260 0 l 174 0 l 174 -87 l 0 -87 l 0 174 m 260 781 l 260 694 l 521 694 l 521 781 l 260 781 z "},"\u000f":{"ha":694,"x_min":0,"x_max":694,"o":"m 0 174 l 0 260 l 174 260 l 174 174 l 0 174 m 0 347 l 0 434 l 174 434 l 174 521 l 260 521 l 260 781 l 434 781 l 434 521 l 521 521 l 521 434 l 694 434 l 694 347 l 521 347 l 521 260 l 434 260 l 434 0 l 260 0 l 260 260 l 174 260 l 174 347 l 0 347 m 0 521 l 0 608 l 174 608 l 174 521 l 0 521 m 521 174 l 521 260 l 694 260 l 694 174 l 521 174 m 521 521 l 521 608 l 694 608 l 694 521 l 521 521 m 260 434 l 260 347 l 434 347 l 434 434 l 260 434 z "},"\u0010":{"ha":694,"x_min":0,"x_max":608,"o":"m 0 0 l 0 955 l 87 955 l 87 868 l 174 868 l 174 781 l 260 781 l 260 694 l 347 694 l 347 608 l 434 608 l 434 521 l 608 521 l 608 434 l 434 434 l 434 347 l 347 347 l 347 260 l 260 260 l 260 174 l 174 174 l 174 87 l 87 87 l 87 0 l 0 0 z "},"\u0011":{"ha":694,"x_min":0,"x_max":608,"o":"m 0 434 l 0 521 l 174 521 l 174 608 l 260 608 l 260 694 l 347 694 l 347 781 l 434 781 l 434 868 l 521 868 l 521 955 l 608 955 l 608 0 l 521 0 l 521 87 l 434 87 l 434 174 l 347 174 l 347 260 l 260 260 l 260 347 l 174 347 l 174 434 l 0 434 z "},"\u0012":{"ha":694,"x_min":87,"x_max":608,"o":"m 174 174 l 174 260 l 87 260 l 87 347 l 260 347 l 260 608 l 87 608 l 87 694 l 174 694 l 174 781 l 260 781 l 260 868 l 434 868 l 434 781 l 521 781 l 521 694 l 608 694 l 608 608 l 434 608 l 434 347 l 608 347 l 608 260 l 521 260 l 521 174 l 434 174 l 434 87 l 260 87 l 260 174 l 174 174 z "},"\u0013":{"ha":694,"x_min":87,"x_max":608,"o":"m 87 174 l 260 174 l 260 0 l 87 0 l 87 174 m 87 260 l 87 868 l 260 868 l 260 260 l 87 260 m 434 174 l 608 174 l 608 0 l 434 0 l 434 174 m 434 260 l 434 868 l 608 868 l 608 260 l 434 260 z "},"\u0014":{"ha":694,"x_min":0,"x_max":694,"o":"m 694 0 l 521 0 l 521 781 l 434 781 l 434 0 l 260 0 l 260 434 l 87 434 l 87 521 l 0 521 l 0 781 l 87 781 l 87 868 l 694 868 l 694 0 m 174 521 l 260 521 l 260 781 l 174 781 l 174 521 z "},"\u0015":{"ha":694,"x_min":0,"x_max":608,"o":"m 0 0 l 0 87 l 174 87 l 174 0 l 434 0 l 434 87 l 347 87 l 347 174 l 174 174 l 174 260 l 87 260 l 87 347 l 0 347 l 0 521 l 87 521 l 87 608 l 174 608 l 174 694 l 87 694 l 87 781 l 0 781 l 0 868 l 87 868 l 87 955 l 521 955 l 521 868 l 608 868 l 608 781 l 434 781 l 434 868 l 174 868 l 174 781 l 260 781 l 260 694 l 434 694 l 434 608 l 521 608 l 521 521 l 608 521 l 608 347 l 521 347 l 521 260 l 434 260 l 434 174 l 521 174 l 521 87 l 608 87 l 608 0 l 521 0 l 521 -87 l 87 -87 l 87 0 l 0 0 m 347 260 l 347 347 l 434 347 l 434 521 l 347 521 l 347 608 l 260 608 l 260 521 l 174 521 l 174 347 l 260 347 l 260 260 l 347 260 z "},"\u0016":{"ha":694,"x_min":0,"x_max":608,"o":"m 0 0 l 0 347 l 608 347 l 608 0 l 0 0 z "},"\u0017":{"ha":694,"x_min":87,"x_max":608,"o":"m 174 174 l 174 260 l 87 260 l 87 347 l 260 347 l 260 608 l 87 608 l 87 694 l 174 694 l 174 781 l 260 781 l 260 868 l 434 868 l 434 781 l 521 781 l 521 694 l 608 694 l 608 608 l 434 608 l 434 347 l 608 347 l 608 260 l 521 260 l 521 174 l 434 174 l 434 87 l 608 87 l 608 0 l 87 0 l 87 87 l 260 87 l 260 174 l 174 174 z "},"\u0018":{"ha":694,"x_min":87,"x_max":608,"o":"m 87 608 l 87 694 l 174 694 l 174 781 l 260 781 l 260 868 l 434 868 l 434 781 l 521 781 l 521 694 l 608 694 l 608 608 l 434 608 l 434 0 l 260 0 l 260 608 l 87 608 z "},"\u0019":{"ha":694,"x_min":87,"x_max":608,"o":"m 87 174 l 87 260 l 260 260 l 260 868 l 434 868 l 434 260 l 608 260 l 608 174 l 521 174 l 521 87 l 434 87 l 434 0 l 260 0 l 260 87 l 174 87 l 174 174 l 87 174 z "},"\u001a":{"ha":694,"x_min":0,"x_max":608,"o":"m 0 347 l 0 434 l 347 434 l 347 521 l 260 521 l 260 608 l 434 608 l 434 521 l 521 521 l 521 434 l 608 434 l 608 347 l 521 347 l 521 260 l 434 260 l 434 174 l 260 174 l 260 260 l 347 260 l 347 347 l 0 347 z "},"\u001b":{"ha":694,"x_min":0,"x_max":608,"o":"m 0 347 l 0 434 l 87 434 l 87 521 l 174 521 l 174 608 l 347 608 l 347 521 l 260 521 l 260 434 l 608 434 l 608 347 l 260 347 l 260 260 l 347 260 l 347 174 l 174 174 l 174 260 l 87 260 l 87 347 l 0 347 z "},"\u001c":{"ha":694,"x_min":0,"x_max":608,"o":"m 0 174 l 0 521 l 174 521 l 174 260 l 608 260 l 608 174 l 0 174 z "},"\u001d":{"ha":694,"x_min":0,"x_max":608,"o":"m 0 347 l 0 434 l 87 434 l 87 521 l 174 521 l 174 608 l 260 608 l 260 434 l 347 434 l 347 608 l 434 608 l 434 521 l 521 521 l 521 434 l 608 434 l 608 347 l 521 347 l 521 260 l 434 260 l 434 174 l 347 174 l 347 347 l 260 347 l 260 174 l 174 174 l 174 260 l 87 260 l 87 347 l 0 347 z "},"\u001e":{"ha":694,"x_min":0,"x_max":608,"o":"m 0 87 l 0 260 l 87 260 l 87 434 l 174 434 l 174 608 l 260 608 l 260 694 l 347 694 l 347 608 l 434 608 l 434 434 l 521 434 l 521 260 l 608 260 l 608 87 l 0 87 z "},"\u001f":{"ha":694,"x_min":0,"x_max":608,"o":"m 0 521 l 0 694 l 608 694 l 608 521 l 521 521 l 521 347 l 434 347 l 434 174 l 347 174 l 347 87 l 260 87 l 260 174 l 174 174 l 174 347 l 87 347 l 87 521 l 0 521 z "}," ":{"ha":694,"x_min":0,"x_max":0,"o":""},"!":{"ha":694,"x_min":174,"x_max":521,"o":"m 174 521 l 174 781 l 260 781 l 260 868 l 434 868 l 434 781 l 521 781 l 521 521 l 434 521 l 434 260 l 260 260 l 260 521 l 174 521 m 260 174 l 434 174 l 434 0 l 260 0 l 260 174 z "},"\"":{"ha":694,"x_min":87,"x_max":608,"o":"m 87 955 l 260 955 l 260 608 l 174 608 l 174 694 l 87 694 l 87 955 m 434 955 l 608 955 l 608 694 l 521 694 l 521 608 l 434 608 l 434 955 z "},"#":{"ha":694,"x_min":0,"x_max":608,"o":"m 0 174 l 0 260 l 87 260 l 87 521 l 0 521 l 0 608 l 87 608 l 87 781 l 260 781 l 260 608 l 347 608 l 347 781 l 521 781 l 521 608 l 608 608 l 608 521 l 521 521 l 521 260 l 608 260 l 608 174 l 521 174 l 521 0 l 347 0 l 347 174 l 260 174 l 260 0 l 87 0 l 87 174 l 0 174 m 347 260 l 347 521 l 260 521 l 260 260 l 347 260 z "},"$":{"ha":694,"x_min":0,"x_max":608,"o":"m 0 87 l 0 260 l 87 260 l 87 174 l 174 174 l 174 87 l 434 87 l 434 434 l 87 434 l 87 521 l 0 521 l 0 781 l 87 781 l 87 868 l 260 868 l 260 1042 l 434 1042 l 434 868 l 521 868 l 521 781 l 608 781 l 608 608 l 521 608 l 521 694 l 434 694 l 434 781 l 174 781 l 174 521 l 521 521 l 521 434 l 608 434 l 608 87 l 521 87 l 521 0 l 434 0 l 434 -174 l 260 -174 l 260 0 l 87 0 l 87 87 l 0 87 z "},"%":{"ha":694,"x_min":0,"x_max":608,"o":"m 0 174 l 87 174 l 87 260 l 174 260 l 174 347 l 260 347 l 260 434 l 347 434 l 347 521 l 434 521 l 434 608 l 521 608 l 521 694 l 608 694 l 608 521 l 521 521 l 521 434 l 434 434 l 434 347 l 347 347 l 347 260 l 260 260 l 260 174 l 174 174 l 174 87 l 87 87 l 87 0 l 0 0 l 0 174 m 0 521 l 0 694 l 174 694 l 174 521 l 0 521 m 434 174 l 608 174 l 608 0 l 434 0 l 434 174 z "},"&":{"ha":694,"x_min":0,"x_max":608,"o":"m 0 87 l 0 434 l 87 434 l 87 521 l 174 521 l 174 608 l 87 608 l 87 781 l 174 781 l 174 868 l 434 868 l 434 781 l 521 781 l 521 608 l 434 608 l 434 521 l 347 521 l 347 434 l 434 434 l 434 521 l 608 521 l 608 434 l 521 434 l 521 87 l 608 87 l 608 0 l 434 0 l 434 87 l 347 87 l 347 347 l 260 347 l 260 434 l 174 434 l 174 87 l 347 87 l 347 0 l 87 0 l 87 87 l 0 87 m 347 608 l 347 781 l 260 781 l 260 608 l 347 608 z "},"'":{"ha":694,"x_min":87,"x_max":347,"o":"m 347 694 l 260 694 l 260 608 l 87 608 l 87 694 l 174 694 l 174 955 l 347 955 l 347 694 z "},"(":{"ha":694,"x_min":174,"x_max":521,"o":"m 174 174 l 174 694 l 260 694 l 260 781 l 347 781 l 347 868 l 521 868 l 521 781 l 434 781 l 434 694 l 347 694 l 347 174 l 434 174 l 434 87 l 521 87 l 521 0 l 347 0 l 347 87 l 260 87 l 260 174 l 174 174 z "},")":{"ha":694,"x_min":174,"x_max":521,"o":"m 174 0 l 174 87 l 260 87 l 260 174 l 347 174 l 347 694 l 260 694 l 260 781 l 174 781 l 174 868 l 347 868 l 347 781 l 434 781 l 434 694 l 521 694 l 521 174 l 434 174 l 434 87 l 347 87 l 347 0 l 174 0 z "},"*":{"ha":694,"x_min":0,"x_max":694,"o":"m 0 347 l 0 434 l 174 434 l 174 521 l 87 521 l 87 608 l 260 608 l 260 521 l 434 521 l 434 608 l 608 608 l 608 521 l 521 521 l 521 434 l 694 434 l 694 347 l 521 347 l 521 260 l 608 260 l 608 174 l 434 174 l 434 260 l 260 260 l 260 174 l 87 174 l 87 260 l 174 260 l 174 347 l 0 347 z "},"+":{"ha":694,"x_min":87,"x_max":608,"o":"m 434 174 l 260 174 l 260 347 l 87 347 l 87 434 l 260 434 l 260 608 l 434 608 l 434 434 l 608 434 l 608 347 l 434 347 l 434 174 z "},",":{"ha":694,"x_min":174,"x_max":434,"o":"m 347 0 l 347 -87 l 174 -87 l 174 0 l 260 0 l 260 260 l 434 260 l 434 0 l 347 0 z "},"-":{"ha":694,"x_min":0,"x_max":608,"o":"m 0 347 l 0 434 l 608 434 l 608 347 l 0 347 z "},".":{"ha":694,"x_min":260,"x_max":434,"o":"m 434 174 l 434 0 l 260 0 l 260 174 l 434 174 z "},"/":{"ha":694,"x_min":0,"x_max":608,"o":"m 0 174 l 87 174 l 87 260 l 174 260 l 174 347 l 260 347 l 260 434 l 347 434 l 347 521 l 434 521 l 434 608 l 521 608 l 521 694 l 608 694 l 608 521 l 521 521 l 521 434 l 434 434 l 434 347 l 347 347 l 347 260 l 260 260 l 260 174 l 174 174 l 174 87 l 87 87 l 87 0 l 0 0 l 0 174 z "},":":{"ha":694,"x_min":260,"x_max":434,"o":"m 434 87 l 260 87 l 260 260 l 434 260 l 434 87 m 434 521 l 260 521 l 260 694 l 434 694 l 434 521 z "},";":{"ha":694,"x_min":174,"x_max":434,"o":"m 347 87 l 347 0 l 174 0 l 174 87 l 260 87 l 260 260 l 434 260 l 434 87 l 347 87 m 434 521 l 260 521 l 260 694 l 434 694 l 434 521 z "},"<":{"ha":694,"x_min":87,"x_max":608,"o":"m 174 434 l 174 521 l 260 521 l 260 608 l 347 608 l 347 694 l 434 694 l 434 781 l 608 781 l 608 694 l 521 694 l 521 608 l 434 608 l 434 521 l 347 521 l 347 434 l 260 434 l 260 347 l 347 347 l 347 260 l 434 260 l 434 174 l 521 174 l 521 87 l 608 87 l 608 0 l 434 0 l 434 87 l 347 87 l 347 174 l 260 174 l 260 260 l 174 260 l 174 347 l 87 347 l 87 434 l 174 434 z "},"=":{"ha":694,"x_min":87,"x_max":608,"o":"m 87 260 l 87 347 l 608 347 l 608 260 l 87 260 m 87 521 l 87 608 l 608 608 l 608 521 l 87 521 z "},">":{"ha":694,"x_min":87,"x_max":608,"o":"m 174 87 l 174 174 l 260 174 l 260 260 l 347 260 l 347 347 l 434 347 l 434 434 l 347 434 l 347 521 l 260 521 l 260 608 l 174 608 l 174 694 l 87 694 l 87 781 l 260 781 l 260 694 l 347 694 l 347 608 l 434 608 l 434 521 l 521 521 l 521 434 l 608 434 l 608 347 l 521 347 l 521 260 l 434 260 l 434 174 l 347 174 l 347 87 l 260 87 l 260 0 l 87 0 l 87 87 l 174 87 z "},"?":{"ha":694,"x_min":0,"x_max":608,"o":"m 0 608 l 0 781 l 87 781 l 87 868 l 521 868 l 521 781 l 608 781 l 608 608 l 521 608 l 521 521 l 434 521 l 434 260 l 260 260 l 260 521 l 347 521 l 347 608 l 434 608 l 434 781 l 174 781 l 174 608 l 0 608 m 260 174 l 434 174 l 434 0 l 260 0 l 260 174 z "},"@":{"ha":694,"x_min":0,"x_max":608,"o":"m 0 87 l 0 694 l 87 694 l 87 781 l 521 781 l 521 694 l 608 694 l 608 260 l 521 260 l 521 174 l 260 174 l 260 521 l 434 521 l 434 694 l 174 694 l 174 87 l 521 87 l 521 0 l 87 0 l 87 87 l 0 87 z "},"A":{"ha":694,"x_min":0,"x_max":608,"o":"m 0 0 l 0 608 l 87 608 l 87 694 l 174 694 l 174 781 l 260 781 l 260 868 l 347 868 l 347 781 l 434 781 l 434 694 l 521 694 l 521 608 l 608 608 l 608 0 l 434 0 l 434 347 l 174 347 l 174 0 l 0 0 m 174 434 l 434 434 l 434 608 l 347 608 l 347 694 l 260 694 l 260 608 l 174 608 l 174 434 z "},"B":{"ha":694,"x_min":0,"x_max":608,"o":"m 0 0 l 0 87 l 87 87 l 87 781 l 0 781 l 0 868 l 521 868 l 521 781 l 608 781 l 608 521 l 521 521 l 521 434 l 608 434 l 608 87 l 521 87 l 521 0 l 0 0 m 260 87 l 434 87 l 434 434 l 260 434 l 260 87 m 260 521 l 434 521 l 434 781 l 260 781 l 260 521 z "},"C":{"ha":694,"x_min":0,"x_max":608,"o":"m 0 174 l 0 694 l 87 694 l 87 781 l 174 781 l 174 868 l 521 868 l 521 781 l 608 781 l 608 608 l 521 608 l 521 694 l 434 694 l 434 781 l 260 781 l 260 694 l 174 694 l 174 174 l 260 174 l 260 87 l 434 87 l 434 174 l 521 174 l 521 260 l 608 260 l 608 87 l 521 87 l 521 0 l 174 0 l 174 87 l 87 87 l 87 174 l 0 174 z "},"D":{"ha":694,"x_min":0,"x_max":608,"o":"m 0 0 l 0 87 l 87 87 l 87 781 l 0 781 l 0 868 l 434 868 l 434 781 l 521 781 l 521 694 l 608 694 l 608 174 l 521 174 l 521 87 l 434 87 l 434 0 l 0 0 m 260 87 l 347 87 l 347 174 l 434 174 l 434 694 l 347 694 l 347 781 l 260 781 l 260 87 z "},"E":{"ha":694,"x_min":0,"x_max":608,"o":"m 0 0 l 0 87 l 87 87 l 87 781 l 0 781 l 0 868 l 608 868 l 608 608 l 521 608 l 521 694 l 434 694 l 434 781 l 260 781 l 260 521 l 347 521 l 347 608 l 434 608 l 434 347 l 347 347 l 347 434 l 260 434 l 260 87 l 434 87 l 434 174 l 521 174 l 521 260 l 608 260 l 608 0 l 0 0 z "},"F":{"ha":694,"x_min":0,"x_max":608,"o":"m 0 0 l 0 87 l 87 87 l 87 781 l 0 781 l 0 868 l 608 868 l 608 608 l 521 608 l 521 694 l 434 694 l 434 781 l 260 781 l 260 521 l 347 521 l 347 608 l 434 608 l 434 347 l 347 347 l 347 434 l 260 434 l 260 87 l 347 87 l 347 0 l 0 0 z "},"G":{"ha":694,"x_min":0,"x_max":608,"o":"m 0 174 l 0 694 l 87 694 l 87 781 l 174 781 l 174 868 l 521 868 l 521 781 l 608 781 l 608 608 l 521 608 l 521 694 l 434 694 l 434 781 l 260 781 l 260 694 l 174 694 l 174 174 l 260 174 l 260 87 l 434 87 l 434 0 l 174 0 l 174 87 l 87 87 l 87 174 l 0 174 m 521 87 l 434 87 l 434 347 l 260 347 l 260 434 l 608 434 l 608 0 l 521 0 l 521 87 z "},"H":{"ha":694,"x_min":0,"x_max":608,"o":"m 0 0 l 0 868 l 174 868 l 174 521 l 434 521 l 434 868 l 608 868 l 608 0 l 434 0 l 434 434 l 174 434 l 174 0 l 0 0 z "},"I":{"ha":694,"x_min":174,"x_max":521,"o":"m 434 87 l 521 87 l 521 0 l 174 0 l 174 87 l 260 87 l 260 781 l 174 781 l 174 868 l 521 868 l 521 781 l 434 781 l 434 87 z "},"J":{"ha":694,"x_min":0,"x_max":608,"o":"m 0 87 l 0 347 l 174 347 l 174 87 l 347 87 l 347 781 l 260 781 l 260 868 l 608 868 l 608 781 l 521 781 l 521 87 l 434 87 l 434 0 l 87 0 l 87 87 l 0 87 z "},"K":{"ha":694,"x_min":0,"x_max":608,"o":"m 0 0 l 0 87 l 87 87 l 87 781 l 0 781 l 0 868 l 260 868 l 260 521 l 347 521 l 347 608 l 434 608 l 434 868 l 608 868 l 608 608 l 521 608 l 521 521 l 434 521 l 434 347 l 521 347 l 521 260 l 608 260 l 608 0 l 434 0 l 434 260 l 347 260 l 347 347 l 260 347 l 260 0 l 0 0 z "},"L":{"ha":694,"x_min":0,"x_max":608,"o":"m 0 0 l 0 87 l 87 87 l 87 781 l 0 781 l 0 868 l 347 868 l 347 781 l 260 781 l 260 87 l 434 87 l 434 174 l 521 174 l 521 260 l 608 260 l 608 0 l 0 0 z "},"M":{"ha":694,"x_min":0,"x_max":608,"o":"m 0 0 l 0 868 l 174 868 l 174 781 l 260 781 l 260 694 l 347 694 l 347 781 l 434 781 l 434 868 l 608 868 l 608 0 l 434 0 l 434 521 l 347 521 l 347 434 l 260 434 l 260 521 l 174 521 l 174 0 l 0 0 z "},"N":{"ha":694,"x_min":0,"x_max":608,"o":"m 0 0 l 0 868 l 174 868 l 174 781 l 260 781 l 260 694 l 347 694 l 347 608 l 434 608 l 434 868 l 608 868 l 608 0 l 434 0 l 434 347 l 347 347 l 347 434 l 260 434 l 260 521 l 174 521 l 174 0 l 0 0 z "},"O":{"ha":694,"x_min":0,"x_max":608,"o":"m 0 87 l 0 781 l 87 781 l 87 868 l 521 868 l 521 781 l 608 781 l 608 87 l 521 87 l 521 0 l 87 0 l 87 87 l 0 87 m 174 87 l 434 87 l 434 781 l 174 781 l 174 87 z "},"P":{"ha":694,"x_min":0,"x_max":608,"o":"m 0 0 l 0 87 l 87 87 l 87 781 l 0 781 l 0 868 l 521 868 l 521 781 l 608 781 l 608 521 l 521 521 l 521 434 l 260 434 l 260 87 l 347 87 l 347 0 l 0 0 m 260 521 l 434 521 l 434 781 l 260 781 l 260 521 z "},"Q":{"ha":694,"x_min":0,"x_max":608,"o":"m 0 87 l 0 781 l 87 781 l 87 868 l 521 868 l 521 781 l 608 781 l 608 87 l 521 87 l 521 -87 l 608 -87 l 608 -174 l 347 -174 l 347 0 l 87 0 l 87 87 l 0 87 m 174 87 l 260 87 l 260 260 l 347 260 l 347 174 l 434 174 l 434 781 l 174 781 l 174 87 z "},"R":{"ha":694,"x_min":0,"x_max":608,"o":"m 0 0 l 0 87 l 87 87 l 87 781 l 0 781 l 0 868 l 521 868 l 521 781 l 608 781 l 608 521 l 521 521 l 521 347 l 608 347 l 608 0 l 434 0 l 434 347 l 347 347 l 347 434 l 260 434 l 260 0 l 0 0 m 260 521 l 434 521 l 434 781 l 260 781 l 260 521 z "},"S":{"ha":694,"x_min":0,"x_max":608,"o":"m 0 87 l 0 260 l 174 260 l 174 87 l 434 87 l 434 347 l 347 347 l 347 434 l 174 434 l 174 521 l 87 521 l 87 608 l 0 608 l 0 781 l 87 781 l 87 868 l 521 868 l 521 781 l 608 781 l 608 608 l 434 608 l 434 781 l 174 781 l 174 608 l 260 608 l 260 521 l 434 521 l 434 434 l 521 434 l 521 347 l 608 347 l 608 87 l 521 87 l 521 0 l 87 0 l 87 87 l 0 87 z "},"T":{"ha":694,"x_min":87,"x_max":608,"o":"m 87 608 l 87 868 l 608 868 l 608 608 l 521 608 l 521 694 l 434 694 l 434 87 l 521 87 l 521 0 l 174 0 l 174 87 l 260 87 l 260 694 l 174 694 l 174 608 l 87 608 z "},"U":{"ha":694,"x_min":0,"x_max":608,"o":"m 0 87 l 0 868 l 174 868 l 174 87 l 434 87 l 434 868 l 608 868 l 608 87 l 521 87 l 521 0 l 87 0 l 87 87 l 0 87 z "},"V":{"ha":694,"x_min":0,"x_max":608,"o":"m 0 260 l 0 868 l 174 868 l 174 260 l 260 260 l 260 174 l 347 174 l 347 260 l 434 260 l 434 868 l 608 868 l 608 260 l 521 260 l 521 174 l 434 174 l 434 87 l 347 87 l 347 0 l 260 0 l 260 87 l 174 87 l 174 174 l 87 174 l 87 260 l 0 260 z "},"W":{"ha":694,"x_min":0,"x_max":608,"o":"m 0 87 l 0 868 l 174 868 l 174 260 l 260 260 l 260 521 l 347 521 l 347 260 l 434 260 l 434 868 l 608 868 l 608 87 l 521 87 l 521 0 l 347 0 l 347 174 l 260 174 l 260 0 l 87 0 l 87 87 l 0 87 z "},"X":{"ha":694,"x_min":0,"x_max":608,"o":"m 0 174 l 87 174 l 87 347 l 174 347 l 174 521 l 87 521 l 87 694 l 0 694 l 0 868 l 174 868 l 174 694 l 260 694 l 260 608 l 347 608 l 347 694 l 434 694 l 434 868 l 608 868 l 608 694 l 521 694 l 521 521 l 434 521 l 434 347 l 521 347 l 521 174 l 608 174 l 608 0 l 434 0 l 434 174 l 347 174 l 347 260 l 260 260 l 260 174 l 174 174 l 174 0 l 0 0 l 0 174 z "},"Y":{"ha":694,"x_min":87,"x_max":608,"o":"m 87 521 l 87 868 l 260 868 l 260 521 l 434 521 l 434 868 l 608 868 l 608 521 l 521 521 l 521 434 l 434 434 l 434 87 l 521 87 l 521 0 l 174 0 l 174 87 l 260 87 l 260 434 l 174 434 l 174 521 l 87 521 z "},"Z":{"ha":694,"x_min":0,"x_max":608,"o":"m 0 0 l 0 260 l 87 260 l 87 347 l 174 347 l 174 434 l 260 434 l 260 521 l 347 521 l 347 608 l 434 608 l 434 781 l 174 781 l 174 694 l 87 694 l 87 608 l 0 608 l 0 868 l 608 868 l 608 608 l 521 608 l 521 521 l 434 521 l 434 434 l 347 434 l 347 347 l 260 347 l 260 260 l 174 260 l 174 87 l 434 87 l 434 174 l 521 174 l 521 260 l 608 260 l 608 0 l 0 0 z "},"[":{"ha":694,"x_min":174,"x_max":521,"o":"m 347 87 l 521 87 l 521 0 l 174 0 l 174 868 l 521 868 l 521 781 l 347 781 l 347 87 z "},"\\":{"ha":694,"x_min":0,"x_max":608,"o":"m 0 521 l 0 781 l 87 781 l 87 694 l 174 694 l 174 608 l 260 608 l 260 521 l 347 521 l 347 434 l 434 434 l 434 347 l 521 347 l 521 260 l 608 260 l 608 0 l 521 0 l 521 87 l 434 87 l 434 174 l 347 174 l 347 260 l 260 260 l 260 347 l 174 347 l 174 434 l 87 434 l 87 521 l 0 521 z "},"]":{"ha":694,"x_min":174,"x_max":521,"o":"m 347 87 l 347 781 l 174 781 l 174 868 l 521 868 l 521 0 l 174 0 l 174 87 l 347 87 z "},"^":{"ha":694,"x_min":0,"x_max":608,"o":"m 0 694 l 0 781 l 87 781 l 87 868 l 174 868 l 174 955 l 260 955 l 260 1042 l 347 1042 l 347 955 l 434 955 l 434 868 l 521 868 l 521 781 l 608 781 l 608 694 l 434 694 l 434 781 l 347 781 l 347 868 l 260 868 l 260 781 l 174 781 l 174 694 l 0 694 z "},"_":{"ha":694,"x_min":0,"x_max":694,"o":"m 0 -174 l 0 -87 l 694 -87 l 694 -174 l 0 -174 z "},"`":{"ha":694,"x_min":174,"x_max":434,"o":"m 347 868 l 434 868 l 434 781 l 260 781 l 260 868 l 174 868 l 174 1042 l 347 1042 l 347 868 z "},"a":{"ha":694,"x_min":0,"x_max":608,"o":"m 0 87 l 0 347 l 87 347 l 87 434 l 347 434 l 347 521 l 87 521 l 87 608 l 434 608 l 434 521 l 521 521 l 521 87 l 608 87 l 608 0 l 434 0 l 434 87 l 347 87 l 347 347 l 174 347 l 174 87 l 347 87 l 347 0 l 87 0 l 87 87 l 0 87 z "},"b":{"ha":694,"x_min":0,"x_max":608,"o":"m 0 781 l 0 868 l 260 868 l 260 608 l 434 608 l 434 521 l 521 521 l 521 434 l 608 434 l 608 87 l 521 87 l 521 0 l 87 0 l 87 781 l 0 781 m 260 87 l 434 87 l 434 434 l 347 434 l 347 521 l 260 521 l 260 87 z "},"c":{"ha":694,"x_min":0,"x_max":608,"o":"m 0 87 l 0 521 l 87 521 l 87 608 l 521 608 l 521 521 l 608 521 l 608 434 l 434 434 l 434 521 l 174 521 l 174 87 l 434 87 l 434 174 l 608 174 l 608 87 l 521 87 l 521 0 l 87 0 l 87 87 l 0 87 z "},"d":{"ha":694,"x_min":0,"x_max":608,"o":"m 0 87 l 0 434 l 87 434 l 87 521 l 174 521 l 174 608 l 347 608 l 347 781 l 260 781 l 260 868 l 521 868 l 521 87 l 608 87 l 608 0 l 434 0 l 434 87 l 347 87 l 347 521 l 260 521 l 260 434 l 174 434 l 174 87 l 347 87 l 347 0 l 87 0 l 87 87 l 0 87 z "},"e":{"ha":694,"x_min":0,"x_max":608,"o":"m 0 87 l 0 521 l 87 521 l 87 608 l 521 608 l 521 521 l 608 521 l 608 347 l 174 347 l 174 87 l 434 87 l 434 174 l 608 174 l 608 87 l 521 87 l 521 0 l 87 0 l 87 87 l 0 87 m 174 434 l 434 434 l 434 521 l 174 521 l 174 434 z "},"f":{"ha":694,"x_min":0,"x_max":521,"o":"m 0 0 l 0 87 l 87 87 l 87 434 l 0 434 l 0 521 l 87 521 l 87 781 l 174 781 l 174 868 l 434 868 l 434 781 l 521 781 l 521 608 l 434 608 l 434 694 l 347 694 l 347 781 l 260 781 l 260 521 l 347 521 l 347 434 l 260 434 l 260 87 l 347 87 l 347 0 l 0 0 z "},"g":{"ha":694,"x_min":0,"x_max":608,"o":"m 0 -174 l 0 -87 l 174 -87 l 174 -174 l 347 -174 l 347 0 l 87 0 l 87 87 l 0 87 l 0 521 l 87 521 l 87 608 l 347 608 l 347 521 l 174 521 l 174 87 l 347 87 l 347 521 l 434 521 l 434 608 l 608 608 l 608 521 l 521 521 l 521 -174 l 434 -174 l 434 -260 l 87 -260 l 87 -174 l 0 -174 z "},"h":{"ha":694,"x_min":0,"x_max":608,"o":"m 0 0 l 0 87 l 87 87 l 87 781 l 0 781 l 0 868 l 260 868 l 260 521 l 347 521 l 347 434 l 260 434 l 260 0 l 0 0 m 347 521 l 347 608 l 521 608 l 521 521 l 608 521 l 608 0 l 434 0 l 434 521 l 347 521 z "},"i":{"ha":694,"x_min":174,"x_max":521,"o":"m 174 0 l 174 87 l 260 87 l 260 521 l 174 521 l 174 608 l 434 608 l 434 87 l 521 87 l 521 0 l 174 0 m 260 868 l 434 868 l 434 694 l 260 694 l 260 868 z "},"j":{"ha":694,"x_min":87,"x_max":608,"o":"m 87 0 l 260 0 l 260 -174 l 434 -174 l 434 521 l 347 521 l 347 608 l 608 608 l 608 -174 l 521 -174 l 521 -260 l 174 -260 l 174 -174 l 87 -174 l 87 0 m 434 868 l 608 868 l 608 694 l 434 694 l 434 868 z "},"k":{"ha":694,"x_min":0,"x_max":608,"o":"m 0 0 l 0 87 l 87 87 l 87 781 l 0 781 l 0 868 l 260 868 l 260 434 l 347 434 l 347 521 l 434 521 l 434 608 l 608 608 l 608 521 l 521 521 l 521 434 l 434 434 l 434 260 l 521 260 l 521 174 l 608 174 l 608 0 l 434 0 l 434 174 l 347 174 l 347 260 l 260 260 l 260 0 l 0 0 z "},"l":{"ha":694,"x_min":174,"x_max":521,"o":"m 434 87 l 521 87 l 521 0 l 174 0 l 174 87 l 260 87 l 260 781 l 174 781 l 174 868 l 434 868 l 434 87 z "},"m":{"ha":694,"x_min":0,"x_max":608,"o":"m 0 0 l 0 608 l 260 608 l 260 521 l 347 521 l 347 608 l 521 608 l 521 521 l 608 521 l 608 0 l 434 0 l 434 434 l 347 434 l 347 87 l 260 87 l 260 434 l 174 434 l 174 0 l 0 0 z "},"n":{"ha":694,"x_min":0,"x_max":608,"o":"m 0 521 l 0 608 l 174 608 l 174 521 l 260 521 l 260 0 l 87 0 l 87 521 l 0 521 m 260 521 l 260 608 l 521 608 l 521 521 l 608 521 l 608 0 l 434 0 l 434 521 l 260 521 z "},"o":{"ha":694,"x_min":0,"x_max":608,"o":"m 0 87 l 0 521 l 87 521 l 87 608 l 521 608 l 521 521 l 608 521 l 608 87 l 521 87 l 521 0 l 87 0 l 87 87 l 0 87 m 174 87 l 434 87 l 434 521 l 174 521 l 174 87 z "},"p":{"ha":694,"x_min":0,"x_max":608,"o":"m 0 -174 l 87 -174 l 87 521 l 0 521 l 0 608 l 174 608 l 174 521 l 260 521 l 260 87 l 434 87 l 434 521 l 260 521 l 260 608 l 521 608 l 521 521 l 608 521 l 608 87 l 521 87 l 521 0 l 260 0 l 260 -174 l 347 -174 l 347 -260 l 0 -260 l 0 -174 z "},"q":{"ha":694,"x_min":0,"x_max":608,"o":"m 0 87 l 0 521 l 87 521 l 87 608 l 347 608 l 347 521 l 174 521 l 174 87 l 347 87 l 347 521 l 434 521 l 434 608 l 608 608 l 608 521 l 521 521 l 521 -174 l 608 -174 l 608 -260 l 260 -260 l 260 -174 l 347 -174 l 347 0 l 87 0 l 87 87 l 0 87 z "},"r":{"ha":694,"x_min":0,"x_max":608,"o":"m 0 0 l 0 87 l 87 87 l 87 521 l 0 521 l 0 608 l 174 608 l 174 521 l 260 521 l 260 608 l 521 608 l 521 521 l 608 521 l 608 347 l 434 347 l 434 521 l 347 521 l 347 434 l 260 434 l 260 87 l 347 87 l 347 0 l 0 0 z "},"s":{"ha":694,"x_min":0,"x_max":608,"o":"m 0 87 l 0 174 l 174 174 l 174 87 l 434 87 l 434 174 l 347 174 l 347 260 l 174 260 l 174 347 l 87 347 l 87 434 l 0 434 l 0 521 l 87 521 l 87 608 l 521 608 l 521 521 l 608 521 l 608 434 l 434 434 l 434 521 l 174 521 l 174 434 l 260 434 l 260 347 l 434 347 l 434 260 l 521 260 l 521 174 l 608 174 l 608 87 l 521 87 l 521 0 l 87 0 l 87 87 l 0 87 z "},"t":{"ha":694,"x_min":0,"x_max":608,"o":"m 0 521 l 0 608 l 174 608 l 174 781 l 260 781 l 260 868 l 347 868 l 347 608 l 521 608 l 521 521 l 347 521 l 347 87 l 434 87 l 434 174 l 608 174 l 608 87 l 521 87 l 521 0 l 260 0 l 260 87 l 174 87 l 174 521 l 0 521 z "},"u":{"ha":694,"x_min":0,"x_max":608,"o":"m 0 87 l 0 608 l 174 608 l 174 87 l 347 87 l 347 0 l 87 0 l 87 87 l 0 87 m 347 87 l 347 608 l 521 608 l 521 87 l 608 87 l 608 0 l 434 0 l 434 87 l 347 87 z "},"v":{"ha":694,"x_min":87,"x_max":608,"o":"m 87 174 l 87 608 l 260 608 l 260 174 l 434 174 l 434 608 l 608 608 l 608 174 l 521 174 l 521 87 l 434 87 l 434 0 l 260 0 l 260 87 l 174 87 l 174 174 l 87 174 z "},"w":{"ha":694,"x_min":0,"x_max":608,"o":"m 0 87 l 0 608 l 174 608 l 174 174 l 260 174 l 260 434 l 347 434 l 347 174 l 434 174 l 434 608 l 608 608 l 608 87 l 521 87 l 521 0 l 347 0 l 347 87 l 260 87 l 260 0 l 87 0 l 87 87 l 0 87 z "},"x":{"ha":694,"x_min":0,"x_max":608,"o":"m 0 0 l 0 87 l 87 87 l 87 174 l 174 174 l 174 434 l 87 434 l 87 521 l 0 521 l 0 608 l 174 608 l 174 521 l 260 521 l 260 434 l 347 434 l 347 521 l 434 521 l 434 608 l 608 608 l 608 521 l 521 521 l 521 434 l 434 434 l 434 174 l 521 174 l 521 87 l 608 87 l 608 0 l 434 0 l 434 87 l 347 87 l 347 174 l 260 174 l 260 87 l 174 87 l 174 0 l 0 0 z "},"y":{"ha":694,"x_min":0,"x_max":608,"o":"m 0 87 l 0 608 l 174 608 l 174 87 l 434 87 l 434 608 l 608 608 l 608 -87 l 521 -87 l 521 -174 l 434 -174 l 434 -260 l 0 -260 l 0 -174 l 347 -174 l 347 -87 l 434 -87 l 434 0 l 87 0 l 87 87 l 0 87 z "},"z":{"ha":694,"x_min":0,"x_max":608,"o":"m 0 174 l 87 174 l 87 260 l 174 260 l 174 347 l 260 347 l 260 434 l 347 434 l 347 521 l 174 521 l 174 434 l 0 434 l 0 608 l 608 608 l 608 521 l 521 521 l 521 434 l 434 434 l 434 347 l 347 347 l 347 260 l 260 260 l 260 174 l 174 174 l 174 87 l 434 87 l 434 174 l 608 174 l 608 0 l 0 0 l 0 174 z "},"{":{"ha":694,"x_min":87,"x_max":608,"o":"m 87 434 l 87 521 l 260 521 l 260 781 l 347 781 l 347 868 l 608 868 l 608 781 l 434 781 l 434 521 l 347 521 l 347 434 l 434 434 l 434 87 l 608 87 l 608 0 l 347 0 l 347 87 l 260 87 l 260 434 l 87 434 z "},"|":{"ha":694,"x_min":260,"x_max":434,"o":"m 434 0 l 260 0 l 260 434 l 434 434 l 434 0 m 434 521 l 260 521 l 260 868 l 434 868 l 434 521 z "},"}":{"ha":694,"x_min":87,"x_max":608,"o":"m 87 0 l 87 87 l 260 87 l 260 434 l 347 434 l 347 521 l 260 521 l 260 781 l 87 781 l 87 868 l 347 868 l 347 781 l 434 781 l 434 521 l 608 521 l 608 434 l 434 434 l 434 87 l 347 87 l 347 0 l 87 0 z "},"~":{"ha":694,"x_min":0,"x_max":608,"o":"m 0 694 l 0 781 l 87 781 l 87 868 l 347 868 l 347 781 l 434 781 l 434 868 l 608 868 l 608 781 l 521 781 l 521 694 l 260 694 l 260 781 l 174 781 l 174 694 l 0 694 z "},"":{"ha":694,"x_min":0,"x_max":608,"o":"m 0 87 l 0 434 l 87 434 l 87 521 l 174 521 l 174 608 l 260 608 l 260 694 l 347 694 l 347 608 l 434 608 l 434 521 l 521 521 l 521 434 l 608 434 l 608 87 l 0 87 m 174 174 l 434 174 l 434 434 l 347 434 l 347 521 l 260 521 l 260 434 l 174 434 l 174 174 z "}," ":{"ha":694,"x_min":0,"x_max":0,"o":""},"¡":{"ha":694,"x_min":174,"x_max":521,"o":"m 174 87 l 174 347 l 260 347 l 260 608 l 434 608 l 434 347 l 521 347 l 521 87 l 434 87 l 434 0 l 260 0 l 260 87 l 174 87 m 260 868 l 434 868 l 434 694 l 260 694 l 260 868 z "},"¢":{"ha":694,"x_min":87,"x_max":608,"o":"m 174 174 l 174 260 l 87 260 l 87 694 l 174 694 l 174 781 l 260 781 l 260 955 l 434 955 l 434 781 l 521 781 l 521 694 l 608 694 l 608 608 l 434 608 l 434 694 l 260 694 l 260 260 l 434 260 l 434 347 l 608 347 l 608 260 l 521 260 l 521 174 l 434 174 l 434 0 l 260 0 l 260 174 l 174 174 z "},"£":{"ha":694,"x_min":0,"x_max":608,"o":"m 0 174 l 87 174 l 87 521 l 0 521 l 0 608 l 87 608 l 87 868 l 174 868 l 174 955 l 434 955 l 434 868 l 521 868 l 521 694 l 434 694 l 434 781 l 347 781 l 347 868 l 260 868 l 260 608 l 347 608 l 347 521 l 260 521 l 260 87 l 434 87 l 434 174 l 608 174 l 608 87 l 521 87 l 521 0 l 0 0 l 0 174 z "},"¤":{"ha":694,"x_min":0,"x_max":608,"o":"m 0 0 l 0 87 l 87 87 l 87 174 l 0 174 l 0 521 l 87 521 l 87 608 l 0 608 l 0 694 l 174 694 l 174 608 l 434 608 l 434 694 l 608 694 l 608 608 l 521 608 l 521 521 l 608 521 l 608 174 l 521 174 l 521 87 l 608 87 l 608 0 l 434 0 l 434 87 l 174 87 l 174 0 l 0 0 m 174 174 l 434 174 l 434 521 l 174 521 l 174 174 z "},"¥":{"ha":694,"x_min":87,"x_max":608,"o":"m 174 608 l 174 694 l 87 694 l 87 868 l 260 868 l 260 694 l 434 694 l 434 868 l 608 868 l 608 694 l 521 694 l 521 608 l 434 608 l 434 521 l 608 521 l 608 434 l 434 434 l 434 347 l 608 347 l 608 260 l 434 260 l 434 0 l 260 0 l 260 260 l 87 260 l 87 347 l 260 347 l 260 434 l 87 434 l 87 521 l 260 521 l 260 608 l 174 608 z "},"¦":{"ha":694,"x_min":260,"x_max":434,"o":"m 434 0 l 260 0 l 260 434 l 434 434 l 434 0 m 434 521 l 260 521 l 260 868 l 434 868 l 434 521 z "},"§":{"ha":694,"x_min":0,"x_max":608,"o":"m 0 0 l 0 87 l 174 87 l 174 0 l 434 0 l 434 87 l 347 87 l 347 174 l 174 174 l 174 260 l 87 260 l 87 347 l 0 347 l 0 521 l 87 521 l 87 608 l 174 608 l 174 694 l 87 694 l 87 781 l 0 781 l 0 868 l 87 868 l 87 955 l 521 955 l 521 868 l 608 868 l 608 781 l 434 781 l 434 868 l 174 868 l 174 781 l 260 781 l 260 694 l 434 694 l 434 608 l 521 608 l 521 521 l 608 521 l 608 347 l 521 347 l 521 260 l 434 260 l 434 174 l 521 174 l 521 87 l 608 87 l 608 0 l 521 0 l 521 -87 l 87 -87 l 87 0 l 0 0 m 347 260 l 347 347 l 434 347 l 434 521 l 347 521 l 347 608 l 260 608 l 260 521 l 174 521 l 174 347 l 260 347 l 260 260 l 347 260 z "},"¨":{"ha":694,"x_min":0,"x_max":608,"o":"m 434 955 l 608 955 l 608 868 l 434 868 l 434 955 m 0 868 l 0 955 l 174 955 l 174 868 l 0 868 z "},"©":{"ha":694,"x_min":0,"x_max":608,"o":"m 0 174 l 0 781 l 87 781 l 87 174 l 0 174 m 87 174 l 521 174 l 521 87 l 87 87 l 87 174 m 87 781 l 87 868 l 521 868 l 521 781 l 87 781 m 174 347 l 174 608 l 260 608 l 260 347 l 174 347 m 260 347 l 434 347 l 434 260 l 260 260 l 260 347 m 260 608 l 260 694 l 434 694 l 434 608 l 260 608 m 521 174 l 521 781 l 608 781 l 608 174 l 521 174 z "},"ª":{"ha":694,"x_min":87,"x_max":608,"o":"m 87 434 l 87 521 l 608 521 l 608 434 l 87 434 m 87 868 l 174 868 l 174 955 l 521 955 l 521 694 l 608 694 l 608 608 l 174 608 l 174 694 l 87 694 l 87 868 m 260 694 l 347 694 l 347 868 l 260 868 l 260 694 z "},"«":{"ha":694,"x_min":0,"x_max":608,"o":"m 0 347 l 0 434 l 87 434 l 87 521 l 174 521 l 174 608 l 347 608 l 347 521 l 260 521 l 260 434 l 174 434 l 174 347 l 260 347 l 260 260 l 347 260 l 347 174 l 174 174 l 174 260 l 87 260 l 87 347 l 0 347 m 347 434 l 347 521 l 434 521 l 434 608 l 608 608 l 608 521 l 521 521 l 521 434 l 434 434 l 434 347 l 521 347 l 521 260 l 608 260 l 608 174 l 434 174 l 434 260 l 347 260 l 347 347 l 260 347 l 260 434 l 347 434 z "},"¬":{"ha":694,"x_min":0,"x_max":608,"o":"m 0 434 l 0 521 l 608 521 l 608 87 l 434 87 l 434 434 l 0 434 z "},"­":{"ha":694,"x_min":0,"x_max":608,"o":"m 0 347 l 0 434 l 608 434 l 608 347 l 0 347 z "},"®":{"ha":694,"x_min":0,"x_max":608,"o":"m 0 174 l 0 781 l 87 781 l 87 174 l 0 174 m 174 260 l 174 694 l 347 694 l 347 608 l 260 608 l 260 521 l 347 521 l 347 434 l 260 434 l 260 260 l 174 260 m 347 434 l 434 434 l 434 260 l 347 260 l 347 434 m 347 608 l 434 608 l 434 521 l 347 521 l 347 608 m 521 174 l 521 87 l 87 87 l 87 174 l 521 174 m 521 868 l 521 781 l 87 781 l 87 868 l 521 868 m 521 781 l 608 781 l 608 174 l 521 174 l 521 781 z "},"¯":{"ha":694,"x_min":0,"x_max":694,"o":"m 0 868 l 0 955 l 694 955 l 694 868 l 0 868 z "},"°":{"ha":694,"x_min":87,"x_max":521,"o":"m 87 868 l 174 868 l 174 955 l 434 955 l 434 868 l 521 868 l 521 694 l 434 694 l 434 608 l 174 608 l 174 694 l 87 694 l 87 868 m 260 694 l 347 694 l 347 868 l 260 868 l 260 694 z "},"±":{"ha":694,"x_min":0,"x_max":694,"o":"m 0 0 l 0 87 l 694 87 l 694 0 l 0 0 m 87 434 l 87 521 l 260 521 l 260 694 l 434 694 l 434 521 l 608 521 l 608 434 l 434 434 l 434 260 l 260 260 l 260 434 l 87 434 z "},"²":{"ha":694,"x_min":0,"x_max":434,"o":"m 0 434 l 0 608 l 87 608 l 87 694 l 174 694 l 174 781 l 260 781 l 260 868 l 174 868 l 174 781 l 0 781 l 0 868 l 87 868 l 87 955 l 347 955 l 347 868 l 434 868 l 434 781 l 347 781 l 347 694 l 260 694 l 260 608 l 174 608 l 174 521 l 347 521 l 347 608 l 434 608 l 434 434 l 0 434 z "},"³":{"ha":694,"x_min":0,"x_max":434,"o":"m 0 434 l 0 521 l 260 521 l 260 694 l 87 694 l 87 781 l 260 781 l 260 868 l 0 868 l 0 955 l 347 955 l 347 868 l 434 868 l 434 781 l 347 781 l 347 694 l 434 694 l 434 521 l 347 521 l 347 434 l 0 434 z "},"´":{"ha":694,"x_min":174,"x_max":521,"o":"m 347 868 l 347 955 l 521 955 l 521 868 l 434 868 l 434 781 l 347 781 l 347 694 l 174 694 l 174 781 l 260 781 l 260 868 l 347 868 z "},"µ":{"ha":694,"x_min":0,"x_max":608,"o":"m 0 -87 l 0 0 l 87 0 l 87 694 l 260 694 l 260 260 l 434 260 l 434 694 l 608 694 l 608 260 l 521 260 l 521 174 l 260 174 l 260 0 l 174 0 l 174 -87 l 0 -87 z "},"¶":{"ha":694,"x_min":0,"x_max":694,"o":"m 694 0 l 521 0 l 521 781 l 434 781 l 434 0 l 260 0 l 260 434 l 87 434 l 87 521 l 0 521 l 0 781 l 87 781 l 87 868 l 694 868 l 694 0 m 174 521 l 260 521 l 260 781 l 174 781 l 174 521 z "},"·":{"ha":694,"x_min":260,"x_max":434,"o":"m 434 347 l 434 260 l 260 260 l 260 347 l 434 347 z "},"¸":{"ha":694,"x_min":87,"x_max":521,"o":"m 347 0 l 260 0 l 260 87 l 434 87 l 434 0 l 521 0 l 521 -87 l 434 -87 l 434 -174 l 87 -174 l 87 -87 l 347 -87 l 347 0 z "},"¹":{"ha":694,"x_min":87,"x_max":434,"o":"m 347 521 l 434 521 l 434 434 l 87 434 l 87 521 l 174 521 l 174 781 l 87 781 l 87 868 l 174 868 l 174 955 l 347 955 l 347 521 z "},"º":{"ha":694,"x_min":87,"x_max":521,"o":"m 87 434 l 87 521 l 521 521 l 521 434 l 87 434 m 87 868 l 174 868 l 174 955 l 434 955 l 434 868 l 521 868 l 521 694 l 434 694 l 434 608 l 174 608 l 174 694 l 87 694 l 87 868 m 260 694 l 347 694 l 347 868 l 260 868 l 260 694 z "},"»":{"ha":694,"x_min":0,"x_max":608,"o":"m 0 174 l 0 260 l 87 260 l 87 347 l 174 347 l 174 434 l 87 434 l 87 521 l 0 521 l 0 608 l 174 608 l 174 521 l 260 521 l 260 434 l 347 434 l 347 347 l 260 347 l 260 260 l 174 260 l 174 174 l 0 174 m 347 434 l 347 521 l 260 521 l 260 608 l 434 608 l 434 521 l 521 521 l 521 434 l 608 434 l 608 347 l 521 347 l 521 260 l 434 260 l 434 174 l 260 174 l 260 260 l 347 260 l 347 347 l 434 347 l 434 434 l 347 434 z "},"¼":{"ha":694,"x_min":0,"x_max":608,"o":"m 0 87 l 0 260 l 87 260 l 87 347 l 174 347 l 174 434 l 260 434 l 260 521 l 347 521 l 347 608 l 434 608 l 434 694 l 521 694 l 521 781 l 608 781 l 608 608 l 521 608 l 521 521 l 434 521 l 434 434 l 347 434 l 347 347 l 260 347 l 260 260 l 174 260 l 174 174 l 87 174 l 87 87 l 0 87 m 0 521 l 0 955 l 174 955 l 174 521 l 0 521 m 174 0 l 174 87 l 260 87 l 260 174 l 347 174 l 347 260 l 434 260 l 434 347 l 608 347 l 608 -174 l 434 -174 l 434 0 l 174 0 z "},"½":{"ha":694,"x_min":0,"x_max":608,"o":"m 0 87 l 0 260 l 87 260 l 87 347 l 174 347 l 174 434 l 260 434 l 260 521 l 347 521 l 347 608 l 434 608 l 434 694 l 521 694 l 521 781 l 608 781 l 608 608 l 521 608 l 521 521 l 434 521 l 434 434 l 347 434 l 347 347 l 260 347 l 260 260 l 174 260 l 174 174 l 87 174 l 87 87 l 0 87 m 0 521 l 0 955 l 174 955 l 174 521 l 0 521 m 347 0 l 347 87 l 434 87 l 434 174 l 260 174 l 260 260 l 521 260 l 521 174 l 608 174 l 608 87 l 521 87 l 521 0 l 434 0 l 434 -87 l 608 -87 l 608 -174 l 174 -174 l 174 -87 l 260 -87 l 260 0 l 347 0 z "},"¾":{"ha":694,"x_min":0,"x_max":608,"o":"m 0 87 l 0 260 l 87 260 l 87 347 l 174 347 l 174 434 l 260 434 l 260 521 l 347 521 l 347 608 l 434 608 l 434 694 l 521 694 l 521 781 l 608 781 l 608 608 l 521 608 l 521 521 l 434 521 l 434 434 l 347 434 l 347 347 l 260 347 l 260 260 l 174 260 l 174 174 l 87 174 l 87 87 l 0 87 m 0 521 l 0 608 l 174 608 l 174 694 l 87 694 l 87 781 l 174 781 l 174 868 l 0 868 l 0 955 l 260 955 l 260 868 l 347 868 l 347 781 l 260 781 l 260 694 l 347 694 l 347 608 l 260 608 l 260 521 l 0 521 m 347 174 l 347 87 l 434 87 l 434 174 l 347 174 m 347 260 l 434 260 l 434 347 l 608 347 l 608 -174 l 434 -174 l 434 0 l 174 0 l 174 87 l 260 87 l 260 174 l 347 174 l 347 260 z "},"¿":{"ha":694,"x_min":0,"x_max":608,"o":"m 0 87 l 0 347 l 87 347 l 87 434 l 174 434 l 174 608 l 347 608 l 347 434 l 260 434 l 260 347 l 174 347 l 174 87 l 434 87 l 434 260 l 608 260 l 608 87 l 521 87 l 521 0 l 87 0 l 87 87 l 0 87 m 174 868 l 347 868 l 347 694 l 174 694 l 174 868 z "},"À":{"ha":694,"x_min":0,"x_max":608,"o":"m 0 0 l 0 608 l 87 608 l 87 694 l 174 694 l 174 781 l 260 781 l 260 868 l 347 868 l 347 781 l 434 781 l 434 694 l 521 694 l 521 608 l 608 608 l 608 0 l 434 0 l 434 347 l 174 347 l 174 0 l 0 0 m 174 434 l 434 434 l 434 608 l 347 608 l 347 694 l 260 694 l 260 608 l 174 608 l 174 434 m 347 955 l 347 1042 l 521 1042 l 521 955 l 608 955 l 608 868 l 434 868 l 434 955 l 347 955 z "},"Á":{"ha":694,"x_min":0,"x_max":608,"o":"m 0 0 l 0 608 l 87 608 l 87 694 l 174 694 l 174 781 l 260 781 l 260 868 l 347 868 l 347 781 l 434 781 l 434 694 l 521 694 l 521 608 l 608 608 l 608 0 l 434 0 l 434 347 l 174 347 l 174 0 l 0 0 m 0 868 l 0 955 l 87 955 l 87 1042 l 260 1042 l 260 955 l 174 955 l 174 868 l 0 868 m 174 434 l 434 434 l 434 608 l 347 608 l 347 694 l 260 694 l 260 608 l 174 608 l 174 434 z "},"Â":{"ha":694,"x_min":0,"x_max":608,"o":"m 0 0 l 0 608 l 87 608 l 87 694 l 174 694 l 174 781 l 260 781 l 260 868 l 347 868 l 347 781 l 434 781 l 434 694 l 521 694 l 521 608 l 608 608 l 608 0 l 434 0 l 434 347 l 174 347 l 174 0 l 0 0 m 0 868 l 0 955 l 87 955 l 87 1042 l 521 1042 l 521 955 l 608 955 l 608 868 l 434 868 l 434 955 l 174 955 l 174 868 l 0 868 m 174 434 l 434 434 l 434 608 l 347 608 l 347 694 l 260 694 l 260 608 l 174 608 l 174 434 z "},"Ã":{"ha":694,"x_min":0,"x_max":608,"o":"m 0 0 l 0 521 l 87 521 l 87 608 l 174 608 l 174 694 l 260 694 l 260 781 l 347 781 l 347 694 l 434 694 l 434 608 l 521 608 l 521 521 l 608 521 l 608 0 l 434 0 l 434 260 l 174 260 l 174 0 l 0 0 m 0 868 l 0 955 l 87 955 l 87 1042 l 347 1042 l 347 955 l 434 955 l 434 1042 l 608 1042 l 608 955 l 521 955 l 521 868 l 260 868 l 260 955 l 174 955 l 174 868 l 0 868 m 174 347 l 434 347 l 434 521 l 347 521 l 347 608 l 260 608 l 260 521 l 174 521 l 174 347 z "},"Ä":{"ha":694,"x_min":0,"x_max":608,"o":"m 0 0 l 0 521 l 87 521 l 87 608 l 174 608 l 174 694 l 260 694 l 260 781 l 347 781 l 347 694 l 434 694 l 434 608 l 521 608 l 521 521 l 608 521 l 608 0 l 434 0 l 434 260 l 174 260 l 174 0 l 0 0 m 0 868 l 0 955 l 174 955 l 174 868 l 0 868 m 174 347 l 434 347 l 434 521 l 347 521 l 347 608 l 260 608 l 260 521 l 174 521 l 174 347 m 434 955 l 608 955 l 608 868 l 434 868 l 434 955 z "},"Å":{"ha":694,"x_min":0,"x_max":608,"o":"m 0 0 l 0 521 l 87 521 l 87 608 l 174 608 l 174 694 l 434 694 l 434 608 l 521 608 l 521 521 l 608 521 l 608 0 l 434 0 l 434 260 l 174 260 l 174 0 l 0 0 m 174 347 l 434 347 l 434 521 l 347 521 l 347 608 l 260 608 l 260 521 l 174 521 l 174 347 m 174 868 l 87 868 l 87 955 l 174 955 l 174 1042 l 434 1042 l 434 955 l 521 955 l 521 868 l 434 868 l 434 781 l 174 781 l 174 868 m 347 868 l 347 955 l 260 955 l 260 868 l 347 868 z "},"Æ":{"ha":694,"x_min":0,"x_max":608,"o":"m 0 0 l 0 694 l 87 694 l 87 781 l 174 781 l 174 868 l 608 868 l 608 781 l 521 781 l 521 521 l 608 521 l 608 434 l 521 434 l 521 87 l 608 87 l 608 0 l 347 0 l 347 434 l 174 434 l 174 0 l 0 0 m 174 521 l 347 521 l 347 781 l 260 781 l 260 694 l 174 694 l 174 521 z "},"Ç":{"ha":694,"x_min":0,"x_max":608,"o":"m 0 260 l 0 694 l 87 694 l 87 781 l 174 781 l 174 868 l 521 868 l 521 781 l 608 781 l 608 608 l 521 608 l 521 694 l 434 694 l 434 781 l 260 781 l 260 694 l 174 694 l 174 260 l 260 260 l 260 174 l 434 174 l 434 260 l 521 260 l 521 347 l 608 347 l 608 174 l 521 174 l 521 0 l 608 0 l 608 -87 l 521 -87 l 521 -174 l 87 -174 l 87 -87 l 434 -87 l 434 0 l 347 0 l 347 87 l 174 87 l 174 174 l 87 174 l 87 260 l 0 260 z "},"È":{"ha":694,"x_min":0,"x_max":608,"o":"m 0 0 l 0 87 l 87 87 l 87 694 l 0 694 l 0 781 l 608 781 l 608 521 l 521 521 l 521 608 l 434 608 l 434 694 l 260 694 l 260 434 l 347 434 l 347 521 l 434 521 l 434 260 l 347 260 l 347 347 l 260 347 l 260 87 l 434 87 l 434 174 l 521 174 l 521 260 l 608 260 l 608 0 l 0 0 m 174 955 l 174 1042 l 347 1042 l 347 955 l 434 955 l 434 868 l 260 868 l 260 955 l 174 955 z "},"É":{"ha":694,"x_min":0,"x_max":608,"o":"m 0 0 l 0 87 l 87 87 l 87 608 l 0 608 l 0 694 l 608 694 l 608 521 l 434 521 l 434 608 l 260 608 l 260 434 l 521 434 l 521 347 l 260 347 l 260 87 l 434 87 l 434 174 l 608 174 l 608 0 l 0 0 m 174 868 l 174 955 l 260 955 l 260 1042 l 434 1042 l 434 955 l 347 955 l 347 868 l 260 868 l 260 781 l 87 781 l 87 868 l 174 868 z "},"Ê":{"ha":694,"x_min":0,"x_max":608,"o":"m 0 0 l 0 87 l 87 87 l 87 694 l 0 694 l 0 781 l 608 781 l 608 521 l 521 521 l 521 608 l 434 608 l 434 694 l 260 694 l 260 434 l 347 434 l 347 521 l 434 521 l 434 260 l 347 260 l 347 347 l 260 347 l 260 87 l 434 87 l 434 174 l 521 174 l 521 260 l 608 260 l 608 0 l 0 0 m 174 955 l 174 1042 l 434 1042 l 434 955 l 521 955 l 521 868 l 347 868 l 347 955 l 260 955 l 260 868 l 87 868 l 87 955 l 174 955 z "},"Ë":{"ha":694,"x_min":0,"x_max":608,"o":"m 0 0 l 0 87 l 87 87 l 87 694 l 0 694 l 0 781 l 608 781 l 608 521 l 521 521 l 521 608 l 434 608 l 434 694 l 260 694 l 260 434 l 347 434 l 347 521 l 434 521 l 434 260 l 347 260 l 347 347 l 260 347 l 260 87 l 434 87 l 434 174 l 521 174 l 521 260 l 608 260 l 608 0 l 0 0 m 0 868 l 0 955 l 174 955 l 174 868 l 0 868 m 434 955 l 608 955 l 608 868 l 434 868 l 434 955 z "},"Ì":{"ha":694,"x_min":174,"x_max":521,"o":"m 174 0 l 174 87 l 260 87 l 260 694 l 174 694 l 174 781 l 521 781 l 521 694 l 434 694 l 434 87 l 521 87 l 521 0 l 174 0 m 260 955 l 174 955 l 174 1042 l 347 1042 l 347 955 l 434 955 l 434 868 l 260 868 l 260 955 z "},"Í":{"ha":694,"x_min":174,"x_max":521,"o":"m 174 0 l 174 87 l 260 87 l 260 694 l 174 694 l 174 781 l 521 781 l 521 694 l 434 694 l 434 87 l 521 87 l 521 0 l 174 0 m 260 955 l 347 955 l 347 1042 l 521 1042 l 521 955 l 434 955 l 434 868 l 260 868 l 260 955 z "},"Î":{"ha":694,"x_min":87,"x_max":608,"o":"m 87 955 l 174 955 l 174 1042 l 521 1042 l 521 955 l 608 955 l 608 868 l 434 868 l 434 955 l 260 955 l 260 868 l 87 868 l 87 955 m 174 0 l 174 87 l 260 87 l 260 694 l 174 694 l 174 781 l 521 781 l 521 694 l 434 694 l 434 87 l 521 87 l 521 0 l 174 0 z "},"Ï":{"ha":694,"x_min":87,"x_max":608,"o":"m 87 955 l 260 955 l 260 868 l 87 868 l 87 955 m 174 0 l 174 87 l 260 87 l 260 694 l 174 694 l 174 781 l 521 781 l 521 694 l 434 694 l 434 87 l 521 87 l 521 0 l 174 0 m 434 955 l 608 955 l 608 868 l 434 868 l 434 955 z "},"Ð":{"ha":694,"x_min":0,"x_max":608,"o":"m 0 0 l 0 87 l 87 87 l 87 434 l 0 434 l 0 521 l 87 521 l 87 781 l 0 781 l 0 868 l 434 868 l 434 781 l 521 781 l 521 694 l 608 694 l 608 174 l 521 174 l 521 87 l 434 87 l 434 0 l 0 0 m 347 87 l 347 174 l 434 174 l 434 694 l 347 694 l 347 781 l 260 781 l 260 521 l 347 521 l 347 434 l 260 434 l 260 87 l 347 87 z "},"Ñ":{"ha":694,"x_min":0,"x_max":608,"o":"m 0 0 l 0 781 l 174 781 l 174 694 l 260 694 l 260 608 l 347 608 l 347 521 l 434 521 l 434 781 l 608 781 l 608 0 l 434 0 l 434 260 l 347 260 l 347 347 l 260 347 l 260 434 l 174 434 l 174 0 l 0 0 m 0 868 l 0 955 l 87 955 l 87 1042 l 347 1042 l 347 955 l 434 955 l 434 1042 l 608 1042 l 608 955 l 521 955 l 521 868 l 260 868 l 260 955 l 174 955 l 174 868 l 0 868 z "},"Ò":{"ha":694,"x_min":0,"x_max":608,"o":"m 0 87 l 0 694 l 87 694 l 87 781 l 521 781 l 521 694 l 608 694 l 608 87 l 521 87 l 521 0 l 87 0 l 87 87 l 0 87 m 260 955 l 174 955 l 174 1042 l 347 1042 l 347 955 l 434 955 l 434 868 l 260 868 l 260 955 m 174 87 l 434 87 l 434 694 l 174 694 l 174 87 z "},"Ó":{"ha":694,"x_min":0,"x_max":608,"o":"m 0 87 l 0 694 l 87 694 l 87 781 l 521 781 l 521 694 l 608 694 l 608 87 l 521 87 l 521 0 l 87 0 l 87 87 l 0 87 m 260 955 l 260 1042 l 434 1042 l 434 955 l 347 955 l 347 868 l 174 868 l 174 955 l 260 955 m 174 87 l 434 87 l 434 694 l 174 694 l 174 87 z "},"Ô":{"ha":694,"x_min":0,"x_max":608,"o":"m 0 87 l 0 694 l 87 694 l 87 781 l 521 781 l 521 694 l 608 694 l 608 87 l 521 87 l 521 0 l 87 0 l 87 87 l 0 87 m 174 87 l 434 87 l 434 694 l 174 694 l 174 87 m 174 955 l 174 1042 l 434 1042 l 434 955 l 521 955 l 521 868 l 347 868 l 347 955 l 260 955 l 260 868 l 87 868 l 87 955 l 174 955 z "},"Õ":{"ha":694,"x_min":0,"x_max":608,"o":"m 0 87 l 0 694 l 87 694 l 87 781 l 521 781 l 521 694 l 608 694 l 608 87 l 521 87 l 521 0 l 87 0 l 87 87 l 0 87 m 0 868 l 0 955 l 87 955 l 87 1042 l 347 1042 l 347 955 l 434 955 l 434 1042 l 608 1042 l 608 955 l 521 955 l 521 868 l 260 868 l 260 955 l 174 955 l 174 868 l 0 868 m 174 87 l 434 87 l 434 694 l 174 694 l 174 87 z "},"Ö":{"ha":694,"x_min":0,"x_max":608,"o":"m 0 87 l 0 694 l 87 694 l 87 781 l 521 781 l 521 694 l 608 694 l 608 87 l 521 87 l 521 0 l 87 0 l 87 87 l 0 87 m 0 868 l 0 955 l 174 955 l 174 868 l 0 868 m 174 87 l 434 87 l 434 694 l 174 694 l 174 87 m 434 955 l 608 955 l 608 868 l 434 868 l 434 955 z "},"×":{"ha":694,"x_min":0,"x_max":608,"o":"m 0 87 l 0 174 l 87 174 l 87 260 l 174 260 l 174 434 l 87 434 l 87 521 l 0 521 l 0 608 l 174 608 l 174 521 l 260 521 l 260 434 l 347 434 l 347 521 l 434 521 l 434 608 l 608 608 l 608 521 l 521 521 l 521 434 l 434 434 l 434 260 l 521 260 l 521 174 l 608 174 l 608 87 l 434 87 l 434 174 l 347 174 l 347 260 l 260 260 l 260 174 l 174 174 l 174 87 l 0 87 z "},"Ø":{"ha":694,"x_min":0,"x_max":608,"o":"m 0 87 l 0 781 l 87 781 l 87 868 l 434 868 l 434 955 l 521 955 l 521 781 l 608 781 l 608 87 l 521 87 l 521 0 l 174 0 l 174 -87 l 87 -87 l 87 87 l 0 87 m 174 260 l 260 260 l 260 87 l 434 87 l 434 608 l 347 608 l 347 781 l 174 781 l 174 260 m 347 260 l 260 260 l 260 608 l 347 608 l 347 260 z "},"Ù":{"ha":694,"x_min":0,"x_max":608,"o":"m 0 87 l 0 781 l 174 781 l 174 87 l 434 87 l 434 781 l 608 781 l 608 87 l 521 87 l 521 0 l 87 0 l 87 87 l 0 87 m 260 955 l 174 955 l 174 1042 l 347 1042 l 347 955 l 434 955 l 434 868 l 260 868 l 260 955 z "},"Ú":{"ha":694,"x_min":0,"x_max":608,"o":"m 0 87 l 0 781 l 174 781 l 174 87 l 434 87 l 434 781 l 608 781 l 608 87 l 521 87 l 521 0 l 87 0 l 87 87 l 0 87 m 260 955 l 260 1042 l 434 1042 l 434 955 l 347 955 l 347 868 l 174 868 l 174 955 l 260 955 z "},"Û":{"ha":694,"x_min":0,"x_max":608,"o":"m 0 87 l 0 781 l 174 781 l 174 87 l 434 87 l 434 781 l 608 781 l 608 87 l 521 87 l 521 0 l 87 0 l 87 87 l 0 87 m 87 955 l 174 955 l 174 1042 l 434 1042 l 434 955 l 521 955 l 521 868 l 347 868 l 347 955 l 260 955 l 260 868 l 87 868 l 87 955 z "},"Ü":{"ha":694,"x_min":0,"x_max":608,"o":"m 0 87 l 0 781 l 174 781 l 174 87 l 434 87 l 434 781 l 608 781 l 608 87 l 521 87 l 521 0 l 87 0 l 87 87 l 0 87 m 0 868 l 0 955 l 174 955 l 174 868 l 0 868 m 434 955 l 608 955 l 608 868 l 434 868 l 434 955 z "},"Ý":{"ha":694,"x_min":87,"x_max":608,"o":"m 174 0 l 174 87 l 260 87 l 260 347 l 174 347 l 174 434 l 87 434 l 87 781 l 260 781 l 260 434 l 434 434 l 434 781 l 608 781 l 608 434 l 521 434 l 521 347 l 434 347 l 434 87 l 521 87 l 521 0 l 174 0 m 347 955 l 347 1042 l 521 1042 l 521 955 l 434 955 l 434 868 l 260 868 l 260 955 l 347 955 z "},"Þ":{"ha":694,"x_min":0,"x_max":608,"o":"m 0 0 l 0 87 l 87 87 l 87 781 l 0 781 l 0 868 l 347 868 l 347 781 l 260 781 l 260 694 l 521 694 l 521 608 l 608 608 l 608 260 l 521 260 l 521 174 l 260 174 l 260 87 l 347 87 l 347 0 l 0 0 m 260 260 l 434 260 l 434 608 l 260 608 l 260 260 z "},"ß":{"ha":694,"x_min":0,"x_max":608,"o":"m 0 0 l 0 781 l 87 781 l 87 868 l 434 868 l 434 781 l 521 781 l 521 521 l 434 521 l 434 434 l 521 434 l 521 347 l 608 347 l 608 87 l 521 87 l 521 0 l 347 0 l 347 87 l 434 87 l 434 347 l 347 347 l 347 434 l 260 434 l 260 521 l 347 521 l 347 781 l 174 781 l 174 0 l 0 0 z "},"à":{"ha":694,"x_min":0,"x_max":608,"o":"m 0 87 l 0 347 l 87 347 l 87 434 l 347 434 l 347 521 l 87 521 l 87 608 l 434 608 l 434 521 l 521 521 l 521 87 l 608 87 l 608 0 l 434 0 l 434 87 l 347 87 l 347 347 l 174 347 l 174 87 l 347 87 l 347 0 l 87 0 l 87 87 l 0 87 m 174 868 l 87 868 l 87 955 l 260 955 l 260 868 l 347 868 l 347 781 l 434 781 l 434 694 l 260 694 l 260 781 l 174 781 l 174 868 z "},"á":{"ha":694,"x_min":0,"x_max":608,"o":"m 0 87 l 0 347 l 87 347 l 87 434 l 347 434 l 347 521 l 87 521 l 87 608 l 434 608 l 434 521 l 521 521 l 521 87 l 608 87 l 608 0 l 434 0 l 434 87 l 347 87 l 347 347 l 174 347 l 174 87 l 347 87 l 347 0 l 87 0 l 87 87 l 0 87 m 174 781 l 174 868 l 260 868 l 260 955 l 434 955 l 434 868 l 347 868 l 347 781 l 260 781 l 260 694 l 87 694 l 87 781 l 174 781 z "},"â":{"ha":694,"x_min":0,"x_max":608,"o":"m 0 87 l 0 347 l 87 347 l 87 434 l 347 434 l 347 521 l 87 521 l 87 608 l 434 608 l 434 521 l 521 521 l 521 87 l 608 87 l 608 0 l 434 0 l 434 87 l 347 87 l 347 347 l 174 347 l 174 87 l 347 87 l 347 0 l 87 0 l 87 87 l 0 87 m 174 781 l 174 868 l 260 868 l 260 955 l 347 955 l 347 868 l 434 868 l 434 781 l 521 781 l 521 694 l 347 694 l 347 781 l 260 781 l 260 694 l 87 694 l 87 781 l 174 781 z "},"ã":{"ha":694,"x_min":0,"x_max":608,"o":"m 0 87 l 0 347 l 87 347 l 87 434 l 347 434 l 347 521 l 87 521 l 87 608 l 434 608 l 434 521 l 521 521 l 521 87 l 608 87 l 608 0 l 434 0 l 434 87 l 347 87 l 347 347 l 174 347 l 174 87 l 347 87 l 347 0 l 87 0 l 87 87 l 0 87 m 0 694 l 0 781 l 87 781 l 87 868 l 347 868 l 347 781 l 434 781 l 434 868 l 608 868 l 608 781 l 521 781 l 521 694 l 260 694 l 260 781 l 174 781 l 174 694 l 0 694 z "},"ä":{"ha":694,"x_min":0,"x_max":608,"o":"m 0 87 l 0 347 l 87 347 l 87 434 l 347 434 l 347 521 l 87 521 l 87 608 l 434 608 l 434 521 l 521 521 l 521 87 l 608 87 l 608 0 l 434 0 l 434 87 l 347 87 l 347 347 l 174 347 l 174 87 l 347 87 l 347 0 l 87 0 l 87 87 l 0 87 m 0 781 l 0 868 l 174 868 l 174 781 l 0 781 m 347 781 l 347 868 l 521 868 l 521 781 l 347 781 z "},"å":{"ha":694,"x_min":0,"x_max":608,"o":"m 0 87 l 0 347 l 87 347 l 87 434 l 347 434 l 347 521 l 87 521 l 87 608 l 434 608 l 434 521 l 521 521 l 521 87 l 608 87 l 608 0 l 434 0 l 434 87 l 347 87 l 347 347 l 174 347 l 174 87 l 347 87 l 347 0 l 87 0 l 87 87 l 0 87 m 174 868 l 174 955 l 434 955 l 434 868 l 521 868 l 521 781 l 434 781 l 434 694 l 174 694 l 174 781 l 87 781 l 87 868 l 174 868 m 347 868 l 260 868 l 260 781 l 347 781 l 347 868 z "},"æ":{"ha":694,"x_min":0,"x_max":608,"o":"m 0 87 l 0 260 l 87 260 l 87 347 l 174 347 l 174 434 l 87 434 l 87 521 l 0 521 l 0 608 l 174 608 l 174 521 l 347 521 l 347 347 l 434 347 l 434 521 l 347 521 l 347 608 l 521 608 l 521 521 l 608 521 l 608 260 l 434 260 l 434 87 l 608 87 l 608 0 l 347 0 l 347 87 l 260 87 l 260 260 l 174 260 l 174 87 l 260 87 l 260 0 l 87 0 l 87 87 l 0 87 z "},"ç":{"ha":694,"x_min":87,"x_max":608,"o":"m 174 174 l 174 260 l 87 260 l 87 608 l 174 608 l 174 694 l 521 694 l 521 608 l 608 608 l 608 521 l 434 521 l 434 608 l 260 608 l 260 260 l 434 260 l 434 347 l 608 347 l 608 260 l 521 260 l 521 87 l 608 87 l 608 0 l 521 0 l 521 -87 l 174 -87 l 174 0 l 434 0 l 434 87 l 347 87 l 347 174 l 174 174 z "},"è":{"ha":694,"x_min":0,"x_max":608,"o":"m 0 87 l 0 521 l 87 521 l 87 608 l 521 608 l 521 521 l 608 521 l 608 347 l 174 347 l 174 87 l 434 87 l 434 174 l 608 174 l 608 87 l 521 87 l 521 0 l 87 0 l 87 87 l 0 87 m 174 434 l 434 434 l 434 521 l 174 521 l 174 434 m 174 868 l 87 868 l 87 955 l 260 955 l 260 868 l 347 868 l 347 781 l 434 781 l 434 694 l 260 694 l 260 781 l 174 781 l 174 868 z "},"é":{"ha":694,"x_min":0,"x_max":608,"o":"m 0 87 l 0 521 l 87 521 l 87 608 l 521 608 l 521 521 l 608 521 l 608 347 l 174 347 l 174 87 l 434 87 l 434 174 l 608 174 l 608 87 l 521 87 l 521 0 l 87 0 l 87 87 l 0 87 m 174 434 l 434 434 l 434 521 l 174 521 l 174 434 m 174 694 l 174 781 l 260 781 l 260 868 l 347 868 l 347 955 l 521 955 l 521 868 l 434 868 l 434 781 l 347 781 l 347 694 l 174 694 z "},"ê":{"ha":694,"x_min":0,"x_max":608,"o":"m 0 87 l 0 521 l 87 521 l 87 608 l 521 608 l 521 521 l 608 521 l 608 347 l 174 347 l 174 87 l 434 87 l 434 174 l 608 174 l 608 87 l 521 87 l 521 0 l 87 0 l 87 87 l 0 87 m 174 434 l 434 434 l 434 521 l 174 521 l 174 434 m 174 781 l 174 868 l 260 868 l 260 955 l 347 955 l 347 868 l 434 868 l 434 781 l 521 781 l 521 694 l 347 694 l 347 781 l 260 781 l 260 694 l 87 694 l 87 781 l 174 781 z "},"ë":{"ha":694,"x_min":0,"x_max":608,"o":"m 0 87 l 0 521 l 87 521 l 87 608 l 521 608 l 521 521 l 608 521 l 608 347 l 174 347 l 174 87 l 434 87 l 434 174 l 608 174 l 608 87 l 521 87 l 521 0 l 87 0 l 87 87 l 0 87 m 0 781 l 0 868 l 174 868 l 174 781 l 0 781 m 174 434 l 434 434 l 434 521 l 174 521 l 174 434 m 434 781 l 434 868 l 608 868 l 608 781 l 434 781 z "},"ì":{"ha":694,"x_min":87,"x_max":521,"o":"m 87 955 l 260 955 l 260 868 l 347 868 l 347 781 l 434 781 l 434 694 l 260 694 l 260 781 l 174 781 l 174 868 l 87 868 l 87 955 m 174 0 l 174 87 l 260 87 l 260 521 l 174 521 l 174 608 l 434 608 l 434 87 l 521 87 l 521 0 l 174 0 z "},"í":{"ha":694,"x_min":174,"x_max":521,"o":"m 174 0 l 174 87 l 260 87 l 260 521 l 174 521 l 174 608 l 434 608 l 434 87 l 521 87 l 521 0 l 174 0 m 174 694 l 174 781 l 260 781 l 260 868 l 347 868 l 347 955 l 521 955 l 521 868 l 434 868 l 434 781 l 347 781 l 347 694 l 174 694 z "},"î":{"ha":694,"x_min":87,"x_max":608,"o":"m 174 0 l 174 87 l 260 87 l 260 521 l 174 521 l 174 608 l 434 608 l 434 87 l 521 87 l 521 0 l 174 0 m 174 781 l 174 868 l 260 868 l 260 955 l 434 955 l 434 868 l 521 868 l 521 781 l 608 781 l 608 694 l 434 694 l 434 781 l 260 781 l 260 694 l 87 694 l 87 781 l 174 781 z "},"ï":{"ha":694,"x_min":87,"x_max":608,"o":"m 87 781 l 87 868 l 260 868 l 260 781 l 87 781 m 174 0 l 174 87 l 260 87 l 260 521 l 174 521 l 174 608 l 434 608 l 434 87 l 521 87 l 521 0 l 174 0 m 434 781 l 434 868 l 608 868 l 608 781 l 434 781 z "},"ð":{"ha":694,"x_min":87,"x_max":608,"o":"m 174 87 l 87 87 l 87 434 l 174 434 l 174 521 l 434 521 l 434 608 l 347 608 l 347 694 l 260 694 l 260 781 l 174 781 l 174 868 l 347 868 l 347 781 l 434 781 l 434 694 l 521 694 l 521 608 l 608 608 l 608 87 l 521 87 l 521 0 l 174 0 l 174 87 m 174 608 l 174 694 l 260 694 l 260 608 l 174 608 m 521 868 l 521 781 l 434 781 l 434 868 l 521 868 m 260 87 l 434 87 l 434 434 l 260 434 l 260 87 z "},"ñ":{"ha":694,"x_min":0,"x_max":608,"o":"m 0 521 l 0 608 l 174 608 l 174 521 l 260 521 l 260 0 l 87 0 l 87 521 l 0 521 m 0 694 l 0 781 l 87 781 l 87 868 l 347 868 l 347 781 l 434 781 l 434 868 l 608 868 l 608 781 l 521 781 l 521 694 l 260 694 l 260 781 l 174 781 l 174 694 l 0 694 m 521 608 l 521 521 l 608 521 l 608 0 l 434 0 l 434 521 l 260 521 l 260 608 l 521 608 z "},"ò":{"ha":694,"x_min":0,"x_max":608,"o":"m 0 87 l 0 521 l 87 521 l 87 608 l 521 608 l 521 521 l 608 521 l 608 87 l 521 87 l 521 0 l 87 0 l 87 87 l 0 87 m 174 87 l 434 87 l 434 521 l 174 521 l 174 87 m 174 868 l 87 868 l 87 955 l 260 955 l 260 868 l 347 868 l 347 781 l 434 781 l 434 694 l 260 694 l 260 781 l 174 781 l 174 868 z "},"ó":{"ha":694,"x_min":0,"x_max":608,"o":"m 0 87 l 0 521 l 87 521 l 87 608 l 521 608 l 521 521 l 608 521 l 608 87 l 521 87 l 521 0 l 87 0 l 87 87 l 0 87 m 174 87 l 434 87 l 434 521 l 174 521 l 174 87 m 174 781 l 174 868 l 260 868 l 260 955 l 434 955 l 434 868 l 347 868 l 347 781 l 260 781 l 260 694 l 87 694 l 87 781 l 174 781 z "},"ô":{"ha":694,"x_min":0,"x_max":608,"o":"m 0 87 l 0 521 l 87 521 l 87 608 l 521 608 l 521 521 l 608 521 l 608 87 l 521 87 l 521 0 l 87 0 l 87 87 l 0 87 m 174 87 l 434 87 l 434 521 l 174 521 l 174 87 m 174 781 l 174 868 l 260 868 l 260 955 l 347 955 l 347 868 l 434 868 l 434 781 l 521 781 l 521 694 l 347 694 l 347 781 l 260 781 l 260 694 l 87 694 l 87 781 l 174 781 z "},"õ":{"ha":694,"x_min":0,"x_max":608,"o":"m 0 87 l 0 521 l 87 521 l 87 608 l 521 608 l 521 521 l 608 521 l 608 87 l 521 87 l 521 0 l 87 0 l 87 87 l 0 87 m 0 694 l 0 781 l 87 781 l 87 868 l 347 868 l 347 781 l 434 781 l 434 868 l 608 868 l 608 781 l 521 781 l 521 694 l 260 694 l 260 781 l 174 781 l 174 694 l 0 694 m 174 87 l 434 87 l 434 521 l 174 521 l 174 87 z "},"ö":{"ha":694,"x_min":0,"x_max":608,"o":"m 0 87 l 0 521 l 87 521 l 87 608 l 521 608 l 521 521 l 608 521 l 608 87 l 521 87 l 521 0 l 87 0 l 87 87 l 0 87 m 0 781 l 0 868 l 174 868 l 174 781 l 0 781 m 174 87 l 434 87 l 434 521 l 174 521 l 174 87 m 434 781 l 434 868 l 608 868 l 608 781 l 434 781 z "},"÷":{"ha":694,"x_min":87,"x_max":608,"o":"m 434 87 l 260 87 l 260 260 l 434 260 l 434 87 m 87 347 l 87 434 l 608 434 l 608 347 l 87 347 m 434 521 l 260 521 l 260 694 l 434 694 l 434 521 z "},"ø":{"ha":694,"x_min":0,"x_max":608,"o":"m 0 87 l 0 521 l 87 521 l 87 608 l 521 608 l 521 521 l 608 521 l 608 87 l 521 87 l 521 0 l 87 0 l 87 87 l 0 87 m 174 174 l 174 87 l 434 87 l 434 347 l 347 347 l 347 260 l 260 260 l 260 174 l 174 174 m 174 347 l 260 347 l 260 434 l 347 434 l 347 521 l 174 521 l 174 347 z "},"ù":{"ha":694,"x_min":0,"x_max":608,"o":"m 0 87 l 0 608 l 174 608 l 174 87 l 347 87 l 347 0 l 87 0 l 87 87 l 0 87 m 174 868 l 87 868 l 87 955 l 260 955 l 260 868 l 347 868 l 347 781 l 434 781 l 434 694 l 260 694 l 260 781 l 174 781 l 174 868 m 347 87 l 347 608 l 521 608 l 521 87 l 608 87 l 608 0 l 434 0 l 434 87 l 347 87 z "},"ú":{"ha":694,"x_min":0,"x_max":608,"o":"m 0 87 l 0 608 l 174 608 l 174 87 l 347 87 l 347 0 l 87 0 l 87 87 l 0 87 m 174 781 l 174 868 l 260 868 l 260 955 l 434 955 l 434 868 l 347 868 l 347 781 l 260 781 l 260 694 l 87 694 l 87 781 l 174 781 m 347 87 l 347 608 l 521 608 l 521 87 l 608 87 l 608 0 l 434 0 l 434 87 l 347 87 z "},"û":{"ha":694,"x_min":0,"x_max":608,"o":"m 0 87 l 0 608 l 174 608 l 174 87 l 347 87 l 347 0 l 87 0 l 87 87 l 0 87 m 0 694 l 0 781 l 87 781 l 87 868 l 174 868 l 174 955 l 347 955 l 347 868 l 434 868 l 434 781 l 521 781 l 521 694 l 347 694 l 347 781 l 174 781 l 174 694 l 0 694 m 347 87 l 347 608 l 521 608 l 521 87 l 608 87 l 608 0 l 434 0 l 434 87 l 347 87 z "},"ü":{"ha":694,"x_min":0,"x_max":608,"o":"m 0 87 l 0 608 l 174 608 l 174 87 l 347 87 l 347 0 l 87 0 l 87 87 l 0 87 m 0 781 l 0 868 l 174 868 l 174 781 l 0 781 m 347 87 l 347 608 l 521 608 l 521 87 l 608 87 l 608 0 l 434 0 l 434 87 l 347 87 m 347 781 l 347 868 l 521 868 l 521 781 l 347 781 z "},"ý":{"ha":694,"x_min":0,"x_max":608,"o":"m 0 87 l 0 608 l 174 608 l 174 87 l 434 87 l 434 608 l 608 608 l 608 -87 l 521 -87 l 521 -174 l 434 -174 l 434 -260 l 0 -260 l 0 -174 l 347 -174 l 347 -87 l 434 -87 l 434 0 l 87 0 l 87 87 l 0 87 m 174 694 l 174 781 l 260 781 l 260 868 l 347 868 l 347 955 l 521 955 l 521 868 l 434 868 l 434 781 l 347 781 l 347 694 l 174 694 z "},"þ":{"ha":694,"x_min":0,"x_max":608,"o":"m 0 -174 l 87 -174 l 87 781 l 0 781 l 0 868 l 260 868 l 260 608 l 521 608 l 521 521 l 608 521 l 608 87 l 521 87 l 521 0 l 260 0 l 260 -174 l 347 -174 l 347 -260 l 0 -260 l 0 -174 m 260 87 l 434 87 l 434 521 l 260 521 l 260 87 z "},"ÿ":{"ha":694,"x_min":0,"x_max":608,"o":"m 0 87 l 0 608 l 174 608 l 174 87 l 434 87 l 434 608 l 608 608 l 608 -87 l 521 -87 l 521 -174 l 434 -174 l 434 -260 l 87 -260 l 87 -174 l 347 -174 l 347 -87 l 434 -87 l 434 0 l 87 0 l 87 87 l 0 87 m 0 781 l 0 868 l 174 868 l 174 781 l 0 781 m 434 781 l 434 868 l 608 868 l 608 781 l 434 781 z "},"Ā":{"ha":694,"x_min":0,"x_max":608,"o":"m 0 0 l 0 608 l 87 608 l 87 694 l 174 694 l 174 781 l 260 781 l 260 868 l 347 868 l 347 781 l 434 781 l 434 694 l 521 694 l 521 608 l 608 608 l 608 0 l 434 0 l 434 347 l 174 347 l 174 0 l 0 0 m 174 434 l 434 434 l 434 608 l 347 608 l 347 694 l 260 694 l 260 608 l 174 608 l 174 434 m 521 1042 l 521 955 l 87 955 l 87 1042 l 521 1042 z "},"ā":{"ha":694,"x_min":0,"x_max":608,"o":"m 0 87 l 0 347 l 87 347 l 87 434 l 347 434 l 347 521 l 87 521 l 87 608 l 434 608 l 434 521 l 521 521 l 521 87 l 608 87 l 608 0 l 434 0 l 434 87 l 347 87 l 347 347 l 174 347 l 174 87 l 347 87 l 347 0 l 87 0 l 87 87 l 0 87 m 521 868 l 521 781 l 87 781 l 87 868 l 521 868 z "},"Ă":{"ha":694,"x_min":0,"x_max":608,"o":"m 0 0 l 0 521 l 87 521 l 87 608 l 174 608 l 174 694 l 260 694 l 260 781 l 347 781 l 347 694 l 434 694 l 434 608 l 521 608 l 521 521 l 608 521 l 608 0 l 434 0 l 434 260 l 174 260 l 174 0 l 0 0 m 0 955 l 0 1042 l 174 1042 l 174 955 l 434 955 l 434 1042 l 608 1042 l 608 955 l 521 955 l 521 868 l 87 868 l 87 955 l 0 955 m 174 347 l 434 347 l 434 521 l 347 521 l 347 608 l 260 608 l 260 521 l 174 521 l 174 347 z "},"ă":{"ha":694,"x_min":0,"x_max":608,"o":"m 0 87 l 0 347 l 87 347 l 87 434 l 347 434 l 347 521 l 87 521 l 87 608 l 434 608 l 434 521 l 521 521 l 521 87 l 608 87 l 608 0 l 434 0 l 434 87 l 347 87 l 347 347 l 174 347 l 174 87 l 347 87 l 347 0 l 87 0 l 87 87 l 0 87 m 0 781 l 0 868 l 174 868 l 174 781 l 434 781 l 434 868 l 608 868 l 608 781 l 521 781 l 521 694 l 87 694 l 87 781 l 0 781 z "},"Ą":{"ha":694,"x_min":0,"x_max":608,"o":"m 0 0 l 0 608 l 87 608 l 87 694 l 174 694 l 174 781 l 260 781 l 260 868 l 347 868 l 347 781 l 434 781 l 434 694 l 521 694 l 521 608 l 608 608 l 608 0 l 434 0 l 434 347 l 174 347 l 174 0 l 0 0 m 174 -174 l 174 -87 l 260 -87 l 260 0 l 434 0 l 434 -87 l 347 -87 l 347 -174 l 608 -174 l 608 -260 l 260 -260 l 260 -174 l 174 -174 m 174 434 l 434 434 l 434 608 l 347 608 l 347 694 l 260 694 l 260 608 l 174 608 l 174 434 z "},"ą":{"ha":694,"x_min":0,"x_max":608,"o":"m 0 87 l 0 347 l 87 347 l 87 434 l 347 434 l 347 521 l 87 521 l 87 608 l 434 608 l 434 521 l 521 521 l 521 87 l 608 87 l 608 0 l 434 0 l 434 87 l 347 87 l 347 347 l 174 347 l 174 87 l 347 87 l 347 0 l 434 0 l 434 -87 l 347 -87 l 347 -174 l 608 -174 l 608 -260 l 260 -260 l 260 -174 l 174 -174 l 174 -87 l 260 -87 l 260 0 l 87 0 l 87 87 l 0 87 z "},"Ć":{"ha":694,"x_min":0,"x_max":608,"o":"m 0 174 l 0 608 l 87 608 l 87 694 l 174 694 l 174 781 l 521 781 l 521 694 l 608 694 l 608 521 l 521 521 l 521 608 l 434 608 l 434 694 l 260 694 l 260 608 l 174 608 l 174 174 l 260 174 l 260 87 l 434 87 l 434 174 l 521 174 l 521 260 l 608 260 l 608 87 l 521 87 l 521 0 l 174 0 l 174 87 l 87 87 l 87 174 l 0 174 m 347 955 l 347 1042 l 521 1042 l 521 955 l 434 955 l 434 868 l 260 868 l 260 955 l 347 955 z "},"ć":{"ha":694,"x_min":0,"x_max":608,"o":"m 0 87 l 0 521 l 87 521 l 87 608 l 521 608 l 521 521 l 608 521 l 608 434 l 434 434 l 434 521 l 174 521 l 174 87 l 434 87 l 434 174 l 608 174 l 608 87 l 521 87 l 521 0 l 87 0 l 87 87 l 0 87 m 174 694 l 174 781 l 260 781 l 260 868 l 347 868 l 347 955 l 521 955 l 521 868 l 434 868 l 434 781 l 347 781 l 347 694 l 174 694 z "},"Ĉ":{"ha":694,"x_min":0,"x_max":608,"o":"m 0 174 l 0 608 l 87 608 l 87 694 l 174 694 l 174 781 l 521 781 l 521 694 l 608 694 l 608 521 l 521 521 l 521 608 l 434 608 l 434 694 l 260 694 l 260 608 l 174 608 l 174 174 l 260 174 l 260 87 l 434 87 l 434 174 l 521 174 l 521 260 l 608 260 l 608 87 l 521 87 l 521 0 l 174 0 l 174 87 l 87 87 l 87 174 l 0 174 m 174 868 l 174 955 l 260 955 l 260 1042 l 521 1042 l 521 955 l 608 955 l 608 868 l 434 868 l 434 955 l 347 955 l 347 868 l 174 868 z "},"ĉ":{"ha":694,"x_min":0,"x_max":608,"o":"m 0 87 l 0 521 l 87 521 l 87 608 l 521 608 l 521 521 l 608 521 l 608 434 l 434 434 l 434 521 l 174 521 l 174 87 l 434 87 l 434 174 l 608 174 l 608 87 l 521 87 l 521 0 l 87 0 l 87 87 l 0 87 m 174 781 l 174 868 l 260 868 l 260 955 l 347 955 l 347 868 l 434 868 l 434 781 l 521 781 l 521 694 l 347 694 l 347 781 l 260 781 l 260 694 l 87 694 l 87 781 l 174 781 z "},"Ċ":{"ha":694,"x_min":0,"x_max":608,"o":"m 0 174 l 0 608 l 87 608 l 87 694 l 174 694 l 174 781 l 521 781 l 521 694 l 608 694 l 608 521 l 521 521 l 521 608 l 434 608 l 434 694 l 260 694 l 260 608 l 174 608 l 174 174 l 260 174 l 260 87 l 434 87 l 434 174 l 521 174 l 521 260 l 608 260 l 608 87 l 521 87 l 521 0 l 174 0 l 174 87 l 87 87 l 87 174 l 0 174 m 260 1042 l 434 1042 l 434 868 l 260 868 l 260 1042 z "},"ċ":{"ha":694,"x_min":0,"x_max":608,"o":"m 0 87 l 0 521 l 87 521 l 87 608 l 521 608 l 521 521 l 608 521 l 608 434 l 434 434 l 434 521 l 174 521 l 174 87 l 434 87 l 434 174 l 608 174 l 608 87 l 521 87 l 521 0 l 87 0 l 87 87 l 0 87 m 260 868 l 434 868 l 434 694 l 260 694 l 260 868 z "},"Č":{"ha":694,"x_min":0,"x_max":608,"o":"m 0 174 l 0 608 l 87 608 l 87 694 l 174 694 l 174 781 l 521 781 l 521 694 l 608 694 l 608 521 l 521 521 l 521 608 l 434 608 l 434 694 l 260 694 l 260 608 l 174 608 l 174 174 l 260 174 l 260 87 l 434 87 l 434 174 l 521 174 l 521 260 l 608 260 l 608 87 l 521 87 l 521 0 l 174 0 l 174 87 l 87 87 l 87 174 l 0 174 m 174 868 l 174 955 l 87 955 l 87 1042 l 260 1042 l 260 955 l 434 955 l 434 1042 l 608 1042 l 608 955 l 521 955 l 521 868 l 174 868 z "},"č":{"ha":694,"x_min":0,"x_max":608,"o":"m 0 87 l 0 521 l 87 521 l 87 608 l 521 608 l 521 521 l 608 521 l 608 434 l 434 434 l 434 521 l 174 521 l 174 87 l 434 87 l 434 174 l 608 174 l 608 87 l 521 87 l 521 0 l 87 0 l 87 87 l 0 87 m 174 781 l 87 781 l 87 868 l 260 868 l 260 781 l 347 781 l 347 868 l 521 868 l 521 781 l 434 781 l 434 694 l 174 694 l 174 781 z "},"Ď":{"ha":694,"x_min":0,"x_max":608,"o":"m 0 0 l 0 87 l 87 87 l 87 694 l 0 694 l 0 781 l 434 781 l 434 694 l 521 694 l 521 608 l 608 608 l 608 174 l 521 174 l 521 87 l 434 87 l 434 0 l 0 0 m 174 868 l 174 955 l 87 955 l 87 1042 l 260 1042 l 260 955 l 347 955 l 347 1042 l 521 1042 l 521 955 l 434 955 l 434 868 l 174 868 m 347 87 l 347 174 l 434 174 l 434 608 l 347 608 l 347 694 l 260 694 l 260 87 l 347 87 z "},"ď":{"ha":694,"x_min":0,"x_max":608,"o":"m 0 87 l 0 347 l 87 347 l 87 434 l 174 434 l 174 521 l 347 521 l 347 694 l 260 694 l 260 781 l 521 781 l 521 87 l 608 87 l 608 0 l 434 0 l 434 87 l 347 87 l 347 434 l 260 434 l 260 347 l 174 347 l 174 87 l 347 87 l 347 0 l 87 0 l 87 87 l 0 87 m 174 868 l 174 955 l 87 955 l 87 1042 l 260 1042 l 260 955 l 347 955 l 347 1042 l 521 1042 l 521 955 l 434 955 l 434 868 l 174 868 z "},"Đ":{"ha":694,"x_min":0,"x_max":608,"o":"m 0 0 l 0 87 l 87 87 l 87 434 l 0 434 l 0 521 l 87 521 l 87 781 l 0 781 l 0 868 l 434 868 l 434 781 l 521 781 l 521 694 l 608 694 l 608 174 l 521 174 l 521 87 l 434 87 l 434 0 l 0 0 m 347 87 l 347 174 l 434 174 l 434 694 l 347 694 l 347 781 l 260 781 l 260 521 l 347 521 l 347 434 l 260 434 l 260 87 l 347 87 z "},"đ":{"ha":694,"x_min":0,"x_max":608,"o":"m 0 87 l 0 347 l 87 347 l 87 434 l 174 434 l 174 521 l 347 521 l 347 608 l 87 608 l 87 694 l 347 694 l 347 868 l 521 868 l 521 694 l 608 694 l 608 608 l 521 608 l 521 87 l 608 87 l 608 0 l 434 0 l 434 87 l 347 87 l 347 434 l 260 434 l 260 347 l 174 347 l 174 87 l 347 87 l 347 0 l 87 0 l 87 87 l 0 87 z "},"Ē":{"ha":694,"x_min":0,"x_max":608,"o":"m 0 0 l 0 87 l 87 87 l 87 781 l 0 781 l 0 868 l 608 868 l 608 608 l 521 608 l 521 694 l 434 694 l 434 781 l 260 781 l 260 521 l 347 521 l 347 608 l 434 608 l 434 347 l 347 347 l 347 434 l 260 434 l 260 87 l 434 87 l 434 174 l 521 174 l 521 260 l 608 260 l 608 0 l 0 0 m 521 1042 l 521 955 l 87 955 l 87 1042 l 521 1042 z "},"ē":{"ha":694,"x_min":0,"x_max":608,"o":"m 0 87 l 0 521 l 87 521 l 87 608 l 521 608 l 521 521 l 608 521 l 608 347 l 174 347 l 174 87 l 434 87 l 434 174 l 608 174 l 608 87 l 521 87 l 521 0 l 87 0 l 87 87 l 0 87 m 174 434 l 434 434 l 434 521 l 174 521 l 174 434 m 521 868 l 521 781 l 87 781 l 87 868 l 521 868 z "},"Ĕ":{"ha":694,"x_min":0,"x_max":608,"o":"m 0 0 l 0 87 l 87 87 l 87 694 l 0 694 l 0 781 l 608 781 l 608 521 l 521 521 l 521 608 l 434 608 l 434 694 l 260 694 l 260 434 l 347 434 l 347 521 l 434 521 l 434 260 l 347 260 l 347 347 l 260 347 l 260 87 l 434 87 l 434 174 l 521 174 l 521 260 l 608 260 l 608 0 l 0 0 m 0 955 l 0 1042 l 174 1042 l 174 955 l 434 955 l 434 1042 l 608 1042 l 608 955 l 521 955 l 521 868 l 87 868 l 87 955 l 0 955 z "},"ĕ":{"ha":694,"x_min":0,"x_max":608,"o":"m 0 87 l 0 521 l 87 521 l 87 608 l 521 608 l 521 521 l 608 521 l 608 347 l 174 347 l 174 87 l 434 87 l 434 174 l 608 174 l 608 87 l 521 87 l 521 0 l 87 0 l 87 87 l 0 87 m 0 781 l 0 868 l 174 868 l 174 781 l 434 781 l 434 868 l 608 868 l 608 781 l 521 781 l 521 694 l 87 694 l 87 781 l 0 781 m 174 434 l 434 434 l 434 521 l 174 521 l 174 434 z "},"Ė":{"ha":694,"x_min":0,"x_max":608,"o":"m 0 0 l 0 87 l 87 87 l 87 694 l 0 694 l 0 781 l 608 781 l 608 521 l 521 521 l 521 608 l 434 608 l 434 694 l 260 694 l 260 434 l 347 434 l 347 521 l 434 521 l 434 260 l 347 260 l 347 347 l 260 347 l 260 87 l 434 87 l 434 174 l 521 174 l 521 260 l 608 260 l 608 0 l 0 0 m 260 1042 l 434 1042 l 434 868 l 260 868 l 260 1042 z "},"ė":{"ha":694,"x_min":0,"x_max":608,"o":"m 0 87 l 0 521 l 87 521 l 87 608 l 521 608 l 521 521 l 608 521 l 608 347 l 174 347 l 174 87 l 434 87 l 434 174 l 608 174 l 608 87 l 521 87 l 521 0 l 87 0 l 87 87 l 0 87 m 174 434 l 434 434 l 434 521 l 174 521 l 174 434 m 260 868 l 434 868 l 434 694 l 260 694 l 260 868 z "},"Ę":{"ha":694,"x_min":0,"x_max":608,"o":"m 0 0 l 0 87 l 87 87 l 87 781 l 0 781 l 0 868 l 608 868 l 608 608 l 521 608 l 521 694 l 434 694 l 434 781 l 260 781 l 260 521 l 347 521 l 347 608 l 434 608 l 434 347 l 347 347 l 347 434 l 260 434 l 260 87 l 434 87 l 434 174 l 521 174 l 521 260 l 608 260 l 608 0 l 434 0 l 434 -87 l 347 -87 l 347 -174 l 608 -174 l 608 -260 l 260 -260 l 260 -174 l 174 -174 l 174 -87 l 260 -87 l 260 0 l 0 0 z "},"ę":{"ha":694,"x_min":0,"x_max":608,"o":"m 0 87 l 0 521 l 87 521 l 87 608 l 521 608 l 521 521 l 608 521 l 608 347 l 174 347 l 174 87 l 434 87 l 434 174 l 608 174 l 608 87 l 521 87 l 521 0 l 347 0 l 347 -87 l 260 -87 l 260 -174 l 521 -174 l 521 -260 l 174 -260 l 174 -174 l 87 -174 l 87 -87 l 174 -87 l 174 0 l 87 0 l 87 87 l 0 87 m 174 434 l 434 434 l 434 521 l 174 521 l 174 434 z "},"Ě":{"ha":694,"x_min":0,"x_max":608,"o":"m 0 0 l 0 87 l 87 87 l 87 694 l 0 694 l 0 781 l 608 781 l 608 521 l 521 521 l 521 608 l 434 608 l 434 694 l 260 694 l 260 434 l 347 434 l 347 521 l 434 521 l 434 260 l 347 260 l 347 347 l 260 347 l 260 87 l 434 87 l 434 174 l 521 174 l 521 260 l 608 260 l 608 0 l 0 0 m 174 868 l 174 955 l 87 955 l 87 1042 l 260 1042 l 260 955 l 347 955 l 347 1042 l 521 1042 l 521 955 l 434 955 l 434 868 l 174 868 z "},"ě":{"ha":694,"x_min":0,"x_max":608,"o":"m 0 87 l 0 521 l 87 521 l 87 608 l 521 608 l 521 521 l 608 521 l 608 347 l 174 347 l 174 87 l 434 87 l 434 174 l 608 174 l 608 87 l 521 87 l 521 0 l 87 0 l 87 87 l 0 87 m 174 434 l 434 434 l 434 521 l 174 521 l 174 434 m 174 781 l 87 781 l 87 868 l 260 868 l 260 781 l 434 781 l 434 868 l 608 868 l 608 781 l 521 781 l 521 694 l 174 694 l 174 781 z "},"Ĝ":{"ha":694,"x_min":0,"x_max":608,"o":"m 0 174 l 0 608 l 87 608 l 87 694 l 174 694 l 174 781 l 521 781 l 521 694 l 608 694 l 608 521 l 521 521 l 521 608 l 434 608 l 434 694 l 260 694 l 260 608 l 174 608 l 174 174 l 260 174 l 260 87 l 434 87 l 434 0 l 174 0 l 174 87 l 87 87 l 87 174 l 0 174 m 174 868 l 174 955 l 260 955 l 260 1042 l 521 1042 l 521 955 l 608 955 l 608 868 l 434 868 l 434 955 l 347 955 l 347 868 l 174 868 m 521 87 l 434 87 l 434 260 l 260 260 l 260 347 l 608 347 l 608 0 l 521 0 l 521 87 z "},"ĝ":{"ha":694,"x_min":0,"x_max":608,"o":"m 0 -174 l 0 -87 l 174 -87 l 174 -174 l 347 -174 l 347 0 l 87 0 l 87 87 l 0 87 l 0 521 l 87 521 l 87 608 l 347 608 l 347 521 l 174 521 l 174 87 l 347 87 l 347 521 l 434 521 l 434 608 l 608 608 l 608 521 l 521 521 l 521 -174 l 434 -174 l 434 -260 l 87 -260 l 87 -174 l 0 -174 m 174 781 l 174 868 l 260 868 l 260 955 l 347 955 l 347 868 l 434 868 l 434 781 l 521 781 l 521 694 l 347 694 l 347 781 l 260 781 l 260 694 l 87 694 l 87 781 l 174 781 z "},"Ğ":{"ha":694,"x_min":0,"x_max":608,"o":"m 0 174 l 0 608 l 87 608 l 87 694 l 174 694 l 174 781 l 521 781 l 521 694 l 608 694 l 608 521 l 521 521 l 521 608 l 434 608 l 434 694 l 260 694 l 260 608 l 174 608 l 174 174 l 260 174 l 260 87 l 434 87 l 434 0 l 174 0 l 174 87 l 87 87 l 87 174 l 0 174 m 174 868 l 174 955 l 87 955 l 87 1042 l 260 1042 l 260 955 l 434 955 l 434 1042 l 608 1042 l 608 955 l 521 955 l 521 868 l 174 868 m 521 87 l 434 87 l 434 260 l 260 260 l 260 347 l 608 347 l 608 0 l 521 0 l 521 87 z "},"ğ":{"ha":694,"x_min":0,"x_max":608,"o":"m 0 -174 l 0 -87 l 174 -87 l 174 -174 l 347 -174 l 347 0 l 87 0 l 87 87 l 0 87 l 0 521 l 87 521 l 87 608 l 347 608 l 347 521 l 174 521 l 174 87 l 347 87 l 347 521 l 434 521 l 434 608 l 608 608 l 608 521 l 521 521 l 521 -174 l 434 -174 l 434 -260 l 87 -260 l 87 -174 l 0 -174 m 0 781 l 0 868 l 174 868 l 174 781 l 434 781 l 434 868 l 608 868 l 608 781 l 521 781 l 521 694 l 87 694 l 87 781 l 0 781 z "},"Ġ":{"ha":694,"x_min":0,"x_max":608,"o":"m 0 174 l 0 608 l 87 608 l 87 694 l 174 694 l 174 781 l 521 781 l 521 694 l 608 694 l 608 521 l 521 521 l 521 608 l 434 608 l 434 694 l 260 694 l 260 608 l 174 608 l 174 174 l 260 174 l 260 87 l 434 87 l 434 0 l 174 0 l 174 87 l 87 87 l 87 174 l 0 174 m 521 87 l 434 87 l 434 260 l 260 260 l 260 347 l 608 347 l 608 0 l 521 0 l 521 87 m 260 1042 l 434 1042 l 434 868 l 260 868 l 260 1042 z "},"ġ":{"ha":694,"x_min":0,"x_max":608,"o":"m 0 -174 l 0 -87 l 174 -87 l 174 -174 l 347 -174 l 347 0 l 87 0 l 87 87 l 0 87 l 0 521 l 87 521 l 87 608 l 347 608 l 347 521 l 174 521 l 174 87 l 347 87 l 347 521 l 434 521 l 434 608 l 608 608 l 608 521 l 521 521 l 521 -174 l 434 -174 l 434 -260 l 87 -260 l 87 -174 l 0 -174 m 260 868 l 434 868 l 434 694 l 260 694 l 260 868 z "},"Ģ":{"ha":694,"x_min":0,"x_max":608,"o":"m 0 174 l 0 694 l 87 694 l 87 781 l 174 781 l 174 868 l 521 868 l 521 781 l 608 781 l 608 608 l 521 608 l 521 694 l 434 694 l 434 781 l 260 781 l 260 694 l 174 694 l 174 174 l 260 174 l 260 87 l 434 87 l 434 -87 l 521 -87 l 521 -174 l 434 -174 l 434 -260 l 87 -260 l 87 -174 l 347 -174 l 347 -87 l 260 -87 l 260 0 l 174 0 l 174 87 l 87 87 l 87 174 l 0 174 m 521 87 l 434 87 l 434 347 l 260 347 l 260 434 l 608 434 l 608 0 l 521 0 l 521 87 z "},"ģ":{"ha":694,"x_min":0,"x_max":608,"o":"m 0 -174 l 0 -87 l 174 -87 l 174 -174 l 347 -174 l 347 0 l 87 0 l 87 87 l 0 87 l 0 521 l 87 521 l 87 608 l 347 608 l 347 521 l 174 521 l 174 87 l 347 87 l 347 521 l 434 521 l 434 608 l 608 608 l 608 521 l 521 521 l 521 -174 l 434 -174 l 434 -260 l 87 -260 l 87 -174 l 0 -174 m 174 781 l 174 868 l 260 868 l 260 955 l 608 955 l 608 868 l 347 868 l 347 781 l 434 781 l 434 694 l 260 694 l 260 781 l 174 781 z "},"Ĥ":{"ha":694,"x_min":0,"x_max":608,"o":"m 0 0 l 0 781 l 174 781 l 174 434 l 434 434 l 434 781 l 608 781 l 608 0 l 434 0 l 434 347 l 174 347 l 174 0 l 0 0 m 87 955 l 174 955 l 174 1042 l 434 1042 l 434 955 l 521 955 l 521 868 l 347 868 l 347 955 l 260 955 l 260 868 l 87 868 l 87 955 z "},"ĥ":{"ha":694,"x_min":0,"x_max":608,"o":"m 0 0 l 0 87 l 87 87 l 87 694 l 0 694 l 0 781 l 260 781 l 260 434 l 347 434 l 347 347 l 260 347 l 260 0 l 0 0 m 174 955 l 174 1042 l 434 1042 l 434 955 l 521 955 l 521 868 l 347 868 l 347 955 l 260 955 l 260 868 l 87 868 l 87 955 l 174 955 m 347 434 l 347 521 l 521 521 l 521 434 l 608 434 l 608 0 l 434 0 l 434 434 l 347 434 z "},"Ħ":{"ha":694,"x_min":0,"x_max":694,"o":"m 0 608 l 0 694 l 87 694 l 87 868 l 260 868 l 260 694 l 434 694 l 434 868 l 608 868 l 608 694 l 694 694 l 694 608 l 608 608 l 608 0 l 434 0 l 434 434 l 260 434 l 260 0 l 87 0 l 87 608 l 0 608 m 260 608 l 260 521 l 434 521 l 434 608 l 260 608 z "},"ħ":{"ha":694,"x_min":0,"x_max":608,"o":"m 0 0 l 0 87 l 87 87 l 87 608 l 0 608 l 0 694 l 87 694 l 87 781 l 0 781 l 0 868 l 260 868 l 260 694 l 434 694 l 434 608 l 260 608 l 260 434 l 347 434 l 347 347 l 260 347 l 260 0 l 0 0 m 347 434 l 347 521 l 521 521 l 521 434 l 608 434 l 608 0 l 434 0 l 434 434 l 347 434 z "},"Ĩ":{"ha":694,"x_min":0,"x_max":608,"o":"m 0 868 l 0 955 l 87 955 l 87 1042 l 347 1042 l 347 955 l 434 955 l 434 1042 l 608 1042 l 608 955 l 521 955 l 521 868 l 260 868 l 260 955 l 174 955 l 174 868 l 0 868 m 174 0 l 174 87 l 260 87 l 260 694 l 174 694 l 174 781 l 521 781 l 521 694 l 434 694 l 434 87 l 521 87 l 521 0 l 174 0 z "},"ĩ":{"ha":694,"x_min":0,"x_max":608,"o":"m 0 694 l 0 781 l 87 781 l 87 868 l 347 868 l 347 781 l 434 781 l 434 868 l 608 868 l 608 781 l 521 781 l 521 694 l 260 694 l 260 781 l 174 781 l 174 694 l 0 694 m 174 0 l 174 87 l 260 87 l 260 521 l 174 521 l 174 608 l 434 608 l 434 87 l 521 87 l 521 0 l 174 0 z "},"Ī":{"ha":694,"x_min":87,"x_max":608,"o":"m 87 955 l 87 1042 l 608 1042 l 608 955 l 87 955 m 174 0 l 174 87 l 260 87 l 260 781 l 174 781 l 174 868 l 521 868 l 521 781 l 434 781 l 434 87 l 521 87 l 521 0 l 174 0 z "},"ī":{"ha":694,"x_min":87,"x_max":521,"o":"m 87 781 l 87 868 l 521 868 l 521 781 l 87 781 m 174 0 l 174 87 l 260 87 l 260 521 l 174 521 l 174 608 l 434 608 l 434 87 l 521 87 l 521 0 l 174 0 z "},"Ĭ":{"ha":694,"x_min":87,"x_max":608,"o":"m 87 955 l 87 1042 l 260 1042 l 260 955 l 434 955 l 434 1042 l 608 1042 l 608 955 l 521 955 l 521 868 l 174 868 l 174 955 l 87 955 m 174 0 l 174 87 l 260 87 l 260 694 l 174 694 l 174 781 l 521 781 l 521 694 l 434 694 l 434 87 l 521 87 l 521 0 l 174 0 z "},"ĭ":{"ha":694,"x_min":87,"x_max":608,"o":"m 87 781 l 87 868 l 260 868 l 260 781 l 434 781 l 434 868 l 608 868 l 608 781 l 521 781 l 521 694 l 174 694 l 174 781 l 87 781 m 174 0 l 174 87 l 260 87 l 260 521 l 174 521 l 174 608 l 434 608 l 434 87 l 521 87 l 521 0 l 174 0 z "},"Į":{"ha":694,"x_min":174,"x_max":608,"o":"m 174 0 l 174 87 l 260 87 l 260 781 l 174 781 l 174 868 l 521 868 l 521 781 l 434 781 l 434 87 l 521 87 l 521 0 l 434 0 l 434 -87 l 347 -87 l 347 -174 l 608 -174 l 608 -260 l 260 -260 l 260 -174 l 174 -174 l 174 -87 l 260 -87 l 260 0 l 174 0 z "},"į":{"ha":694,"x_min":174,"x_max":608,"o":"m 174 0 l 174 87 l 260 87 l 260 521 l 174 521 l 174 608 l 434 608 l 434 87 l 521 87 l 521 0 l 434 0 l 434 -87 l 347 -87 l 347 -174 l 608 -174 l 608 -260 l 260 -260 l 260 -174 l 174 -174 l 174 -87 l 260 -87 l 260 0 l 174 0 m 260 868 l 434 868 l 434 694 l 260 694 l 260 868 z "},"İ":{"ha":694,"x_min":174,"x_max":521,"o":"m 174 0 l 174 87 l 260 87 l 260 694 l 174 694 l 174 781 l 521 781 l 521 694 l 434 694 l 434 87 l 521 87 l 521 0 l 174 0 m 260 1042 l 434 1042 l 434 868 l 260 868 l 260 1042 z "},"ı":{"ha":694,"x_min":174,"x_max":521,"o":"m 434 87 l 521 87 l 521 0 l 174 0 l 174 87 l 260 87 l 260 521 l 174 521 l 174 608 l 434 608 l 434 87 z "},"Ĳ":{"ha":694,"x_min":0,"x_max":608,"o":"m 0 0 l 0 868 l 174 868 l 174 0 l 0 0 m 260 87 l 260 347 l 347 347 l 347 87 l 260 87 m 347 87 l 434 87 l 434 781 l 347 781 l 347 868 l 608 868 l 608 87 l 521 87 l 521 0 l 347 0 l 347 87 z "},"ĳ":{"ha":694,"x_min":0,"x_max":608,"o":"m 0 0 l 0 608 l 174 608 l 174 0 l 0 0 m 0 868 l 174 868 l 174 694 l 0 694 l 0 868 m 174 0 l 347 0 l 347 -174 l 434 -174 l 434 521 l 347 521 l 347 608 l 608 608 l 608 -174 l 521 -174 l 521 -260 l 260 -260 l 260 -174 l 174 -174 l 174 0 m 434 868 l 608 868 l 608 694 l 434 694 l 434 868 z "},"Ĵ":{"ha":694,"x_min":0,"x_max":608,"o":"m 0 87 l 0 260 l 174 260 l 174 87 l 347 87 l 347 694 l 260 694 l 260 781 l 608 781 l 608 694 l 521 694 l 521 87 l 434 87 l 434 0 l 87 0 l 87 87 l 0 87 m 174 868 l 174 955 l 260 955 l 260 1042 l 521 1042 l 521 955 l 608 955 l 608 868 l 434 868 l 434 955 l 347 955 l 347 868 l 174 868 z "},"ĵ":{"ha":694,"x_min":0,"x_max":608,"o":"m 0 0 l 174 0 l 174 -174 l 347 -174 l 347 521 l 260 521 l 260 608 l 521 608 l 521 -174 l 434 -174 l 434 -260 l 87 -260 l 87 -174 l 0 -174 l 0 0 m 174 694 l 174 781 l 260 781 l 260 868 l 347 868 l 347 955 l 434 955 l 434 868 l 521 868 l 521 781 l 608 781 l 608 694 l 434 694 l 434 781 l 347 781 l 347 694 l 174 694 z "},"Ķ":{"ha":694,"x_min":0,"x_max":608,"o":"m 0 0 l 0 87 l 87 87 l 87 781 l 0 781 l 0 868 l 260 868 l 260 521 l 347 521 l 347 608 l 434 608 l 434 868 l 608 868 l 608 608 l 521 608 l 521 521 l 434 521 l 434 347 l 521 347 l 521 260 l 608 260 l 608 0 l 434 0 l 434 260 l 347 260 l 347 347 l 260 347 l 260 0 l 0 0 m 347 -87 l 260 -87 l 260 0 l 434 0 l 434 -87 l 521 -87 l 521 -174 l 434 -174 l 434 -260 l 87 -260 l 87 -174 l 347 -174 l 347 -87 z "},"ķ":{"ha":694,"x_min":0,"x_max":608,"o":"m 0 0 l 0 87 l 87 87 l 87 781 l 0 781 l 0 868 l 260 868 l 260 434 l 347 434 l 347 521 l 434 521 l 434 608 l 608 608 l 608 521 l 521 521 l 521 434 l 434 434 l 434 260 l 521 260 l 521 174 l 608 174 l 608 0 l 434 0 l 434 174 l 347 174 l 347 260 l 260 260 l 260 0 l 0 0 m 347 -87 l 260 -87 l 260 0 l 434 0 l 434 -87 l 521 -87 l 521 -174 l 434 -174 l 434 -260 l 87 -260 l 87 -174 l 347 -174 l 347 -87 z "},"ĸ":{"ha":694,"x_min":0,"x_max":608,"o":"m 0 0 l 0 87 l 87 87 l 87 521 l 0 521 l 0 608 l 260 608 l 260 347 l 347 347 l 347 434 l 434 434 l 434 608 l 608 608 l 608 434 l 521 434 l 521 347 l 434 347 l 434 260 l 521 260 l 521 174 l 608 174 l 608 0 l 434 0 l 434 174 l 347 174 l 347 260 l 260 260 l 260 0 l 0 0 z "},"Ĺ":{"ha":694,"x_min":0,"x_max":608,"o":"m 0 0 l 0 87 l 87 87 l 87 781 l 0 781 l 0 868 l 347 868 l 347 781 l 260 781 l 260 87 l 434 87 l 434 174 l 521 174 l 521 260 l 608 260 l 608 0 l 0 0 m 347 781 l 434 781 l 434 868 l 608 868 l 608 781 l 521 781 l 521 694 l 347 694 l 347 781 z "},"ĺ":{"ha":694,"x_min":0,"x_max":608,"o":"m 0 0 l 0 87 l 87 87 l 87 781 l 0 781 l 0 868 l 260 868 l 260 87 l 347 87 l 347 0 l 0 0 m 347 694 l 347 781 l 434 781 l 434 868 l 608 868 l 608 781 l 521 781 l 521 694 l 347 694 z "},"Ļ":{"ha":694,"x_min":0,"x_max":608,"o":"m 0 0 l 0 87 l 87 87 l 87 781 l 0 781 l 0 868 l 347 868 l 347 781 l 260 781 l 260 87 l 434 87 l 434 174 l 521 174 l 521 260 l 608 260 l 608 0 l 434 0 l 434 -87 l 521 -87 l 521 -174 l 434 -174 l 434 -260 l 87 -260 l 87 -174 l 347 -174 l 347 -87 l 260 -87 l 260 0 l 0 0 z "},"ļ":{"ha":694,"x_min":87,"x_max":521,"o":"m 87 -174 l 347 -174 l 347 -87 l 260 -87 l 260 0 l 174 0 l 174 87 l 260 87 l 260 781 l 174 781 l 174 868 l 434 868 l 434 87 l 521 87 l 521 0 l 434 0 l 434 -87 l 521 -87 l 521 -174 l 434 -174 l 434 -260 l 87 -260 l 87 -174 z "},"Ľ":{"ha":694,"x_min":0,"x_max":694,"o":"m 0 0 l 0 87 l 87 87 l 87 781 l 0 781 l 0 868 l 260 868 l 260 87 l 434 87 l 434 174 l 521 174 l 521 260 l 608 260 l 608 0 l 0 0 m 347 868 l 260 868 l 260 955 l 434 955 l 434 868 l 521 868 l 521 955 l 694 955 l 694 868 l 608 868 l 608 781 l 347 781 l 347 868 z "},"ľ":{"ha":694,"x_min":0,"x_max":694,"o":"m 0 0 l 0 87 l 87 87 l 87 781 l 0 781 l 0 868 l 260 868 l 260 87 l 347 87 l 347 0 l 0 0 m 694 868 l 608 868 l 608 781 l 347 781 l 347 868 l 260 868 l 260 955 l 434 955 l 434 868 l 521 868 l 521 955 l 694 955 l 694 868 z "},"Ŀ":{"ha":694,"x_min":0,"x_max":608,"o":"m 0 0 l 0 87 l 87 87 l 87 781 l 0 781 l 0 868 l 347 868 l 347 781 l 260 781 l 260 87 l 434 87 l 434 174 l 521 174 l 521 260 l 608 260 l 608 0 l 0 0 m 434 434 l 434 608 l 608 608 l 608 434 l 434 434 z "},"ŀ":{"ha":694,"x_min":87,"x_max":608,"o":"m 87 0 l 87 87 l 174 87 l 174 781 l 87 781 l 87 868 l 347 868 l 347 87 l 434 87 l 434 0 l 87 0 m 434 347 l 434 521 l 608 521 l 608 347 l 434 347 z "},"Ł":{"ha":694,"x_min":0,"x_max":608,"o":"m 0 0 l 0 87 l 87 87 l 87 260 l 0 260 l 0 434 l 87 434 l 87 781 l 0 781 l 0 868 l 347 868 l 347 781 l 260 781 l 260 608 l 347 608 l 347 694 l 434 694 l 434 781 l 521 781 l 521 608 l 434 608 l 434 521 l 347 521 l 347 434 l 260 434 l 260 87 l 434 87 l 434 174 l 521 174 l 521 260 l 608 260 l 608 0 l 0 0 z "},"ł":{"ha":694,"x_min":87,"x_max":608,"o":"m 174 174 l 87 174 l 87 347 l 174 347 l 174 434 l 260 434 l 260 781 l 174 781 l 174 868 l 434 868 l 434 694 l 521 694 l 521 781 l 608 781 l 608 608 l 521 608 l 521 521 l 434 521 l 434 87 l 521 87 l 521 0 l 174 0 l 174 87 l 260 87 l 260 260 l 174 260 l 174 174 z "},"Ń":{"ha":694,"x_min":0,"x_max":608,"o":"m 0 0 l 0 781 l 174 781 l 174 694 l 260 694 l 260 608 l 347 608 l 347 521 l 434 521 l 434 781 l 608 781 l 608 0 l 434 0 l 434 260 l 347 260 l 347 347 l 260 347 l 260 434 l 174 434 l 174 0 l 0 0 m 347 955 l 347 1042 l 521 1042 l 521 955 l 434 955 l 434 868 l 260 868 l 260 955 l 347 955 z "},"ń":{"ha":694,"x_min":0,"x_max":608,"o":"m 0 521 l 0 608 l 174 608 l 174 521 l 260 521 l 260 0 l 87 0 l 87 521 l 0 521 m 174 694 l 174 781 l 260 781 l 260 868 l 347 868 l 347 955 l 521 955 l 521 868 l 434 868 l 434 781 l 347 781 l 347 694 l 174 694 m 521 608 l 521 521 l 608 521 l 608 0 l 434 0 l 434 521 l 260 521 l 260 608 l 521 608 z "},"Ņ":{"ha":694,"x_min":0,"x_max":608,"o":"m 0 0 l 0 868 l 174 868 l 174 781 l 260 781 l 260 694 l 347 694 l 347 608 l 434 608 l 434 868 l 608 868 l 608 0 l 434 0 l 434 347 l 347 347 l 347 434 l 260 434 l 260 521 l 174 521 l 174 0 l 0 0 m 347 -87 l 260 -87 l 260 0 l 434 0 l 434 -87 l 521 -87 l 521 -174 l 434 -174 l 434 -260 l 87 -260 l 87 -174 l 347 -174 l 347 -87 z "},"ņ":{"ha":694,"x_min":0,"x_max":608,"o":"m 0 521 l 0 608 l 174 608 l 174 521 l 260 521 l 260 0 l 87 0 l 87 521 l 0 521 m 347 -87 l 260 -87 l 260 0 l 434 0 l 434 -87 l 521 -87 l 521 -174 l 434 -174 l 434 -260 l 87 -260 l 87 -174 l 347 -174 l 347 -87 m 521 608 l 521 521 l 608 521 l 608 0 l 434 0 l 434 521 l 260 521 l 260 608 l 521 608 z "},"Ň":{"ha":694,"x_min":0,"x_max":608,"o":"m 0 0 l 0 781 l 174 781 l 174 694 l 260 694 l 260 608 l 347 608 l 347 521 l 434 521 l 434 781 l 608 781 l 608 0 l 434 0 l 434 260 l 347 260 l 347 347 l 260 347 l 260 434 l 174 434 l 174 0 l 0 0 m 174 868 l 174 955 l 87 955 l 87 1042 l 260 1042 l 260 955 l 347 955 l 347 1042 l 521 1042 l 521 955 l 434 955 l 434 868 l 174 868 z "},"ň":{"ha":694,"x_min":0,"x_max":608,"o":"m 0 521 l 0 608 l 174 608 l 174 521 l 260 521 l 260 0 l 87 0 l 87 521 l 0 521 m 174 781 l 87 781 l 87 868 l 260 868 l 260 781 l 347 781 l 347 868 l 521 868 l 521 781 l 434 781 l 434 694 l 174 694 l 174 781 m 521 608 l 521 521 l 608 521 l 608 0 l 434 0 l 434 521 l 260 521 l 260 608 l 521 608 z "},"ŉ":{"ha":694,"x_min":0,"x_max":608,"o":"m 87 1042 l 260 1042 l 260 781 l 174 781 l 174 694 l 0 694 l 0 781 l 87 781 l 87 1042 m 0 521 l 0 608 l 174 608 l 174 521 l 260 521 l 260 0 l 87 0 l 87 521 l 0 521 m 260 521 l 260 608 l 521 608 l 521 521 l 608 521 l 608 0 l 434 0 l 434 521 l 260 521 z "},"Ŋ":{"ha":694,"x_min":0,"x_max":608,"o":"m 0 0 l 0 868 l 174 868 l 174 781 l 260 781 l 260 694 l 347 694 l 347 608 l 434 608 l 434 868 l 608 868 l 608 -174 l 521 -174 l 521 -260 l 260 -260 l 260 -174 l 434 -174 l 434 347 l 347 347 l 347 434 l 260 434 l 260 521 l 174 521 l 174 0 l 0 0 z "},"ŋ":{"ha":694,"x_min":0,"x_max":608,"o":"m 0 521 l 0 608 l 174 608 l 174 521 l 260 521 l 260 0 l 87 0 l 87 521 l 0 521 m 260 -174 l 434 -174 l 434 521 l 260 521 l 260 608 l 521 608 l 521 521 l 608 521 l 608 -174 l 521 -174 l 521 -260 l 260 -260 l 260 -174 z "},"Ō":{"ha":694,"x_min":0,"x_max":608,"o":"m 0 87 l 0 781 l 87 781 l 87 868 l 521 868 l 521 781 l 608 781 l 608 87 l 521 87 l 521 0 l 87 0 l 87 87 l 0 87 m 87 955 l 87 1042 l 521 1042 l 521 955 l 87 955 m 174 87 l 434 87 l 434 781 l 174 781 l 174 87 z "},"ō":{"ha":694,"x_min":0,"x_max":608,"o":"m 0 87 l 0 521 l 87 521 l 87 608 l 521 608 l 521 521 l 608 521 l 608 87 l 521 87 l 521 0 l 87 0 l 87 87 l 0 87 m 87 781 l 87 868 l 521 868 l 521 781 l 87 781 m 174 87 l 434 87 l 434 521 l 174 521 l 174 87 z "},"Ŏ":{"ha":694,"x_min":0,"x_max":608,"o":"m 0 87 l 0 694 l 87 694 l 87 781 l 521 781 l 521 694 l 608 694 l 608 87 l 521 87 l 521 0 l 87 0 l 87 87 l 0 87 m 0 955 l 0 1042 l 174 1042 l 174 955 l 434 955 l 434 1042 l 608 1042 l 608 955 l 521 955 l 521 868 l 87 868 l 87 955 l 0 955 m 174 87 l 434 87 l 434 694 l 174 694 l 174 87 z "},"ŏ":{"ha":694,"x_min":0,"x_max":608,"o":"m 0 87 l 0 521 l 87 521 l 87 608 l 521 608 l 521 521 l 608 521 l 608 87 l 521 87 l 521 0 l 87 0 l 87 87 l 0 87 m 0 781 l 0 868 l 174 868 l 174 781 l 434 781 l 434 868 l 608 868 l 608 781 l 521 781 l 521 694 l 87 694 l 87 781 l 0 781 m 174 87 l 434 87 l 434 521 l 174 521 l 174 87 z "},"Ő":{"ha":694,"x_min":0,"x_max":608,"o":"m 0 87 l 0 694 l 87 694 l 87 781 l 521 781 l 521 694 l 608 694 l 608 87 l 521 87 l 521 0 l 87 0 l 87 87 l 0 87 m 174 87 l 434 87 l 434 694 l 174 694 l 174 87 m 174 955 l 174 1042 l 347 1042 l 347 955 l 260 955 l 260 868 l 87 868 l 87 955 l 174 955 m 347 868 l 347 955 l 434 955 l 434 1042 l 608 1042 l 608 955 l 521 955 l 521 868 l 347 868 z "},"ő":{"ha":694,"x_min":0,"x_max":608,"o":"m 0 87 l 0 521 l 87 521 l 87 608 l 521 608 l 521 521 l 608 521 l 608 87 l 521 87 l 521 0 l 87 0 l 87 87 l 0 87 m 174 87 l 434 87 l 434 521 l 174 521 l 174 87 m 174 781 l 174 868 l 347 868 l 347 781 l 260 781 l 260 694 l 87 694 l 87 781 l 174 781 m 347 781 l 434 781 l 434 868 l 608 868 l 608 781 l 521 781 l 521 694 l 347 694 l 347 781 z "},"Œ":{"ha":694,"x_min":0,"x_max":608,"o":"m 0 87 l 0 781 l 87 781 l 87 868 l 608 868 l 608 781 l 521 781 l 521 521 l 608 521 l 608 434 l 521 434 l 521 87 l 608 87 l 608 0 l 87 0 l 87 87 l 0 87 m 174 87 l 347 87 l 347 781 l 174 781 l 174 87 z "},"œ":{"ha":694,"x_min":0,"x_max":608,"o":"m 0 87 l 0 521 l 87 521 l 87 608 l 260 608 l 260 521 l 174 521 l 174 87 l 260 87 l 260 0 l 87 0 l 87 87 l 0 87 m 347 87 l 260 87 l 260 521 l 347 521 l 347 347 l 434 347 l 434 521 l 347 521 l 347 608 l 521 608 l 521 521 l 608 521 l 608 260 l 434 260 l 434 87 l 608 87 l 608 0 l 347 0 l 347 87 z "},"Ŕ":{"ha":694,"x_min":0,"x_max":608,"o":"m 0 0 l 0 87 l 87 87 l 87 694 l 0 694 l 0 781 l 521 781 l 521 694 l 608 694 l 608 434 l 521 434 l 521 260 l 608 260 l 608 0 l 434 0 l 434 260 l 347 260 l 347 347 l 260 347 l 260 0 l 0 0 m 174 868 l 174 955 l 260 955 l 260 1042 l 434 1042 l 434 955 l 347 955 l 347 868 l 174 868 m 260 434 l 434 434 l 434 694 l 260 694 l 260 434 z "},"ŕ":{"ha":694,"x_min":0,"x_max":608,"o":"m 0 0 l 0 87 l 87 87 l 87 521 l 0 521 l 0 608 l 174 608 l 174 521 l 260 521 l 260 608 l 521 608 l 521 521 l 608 521 l 608 347 l 434 347 l 434 521 l 347 521 l 347 434 l 260 434 l 260 87 l 347 87 l 347 0 l 0 0 m 174 694 l 174 781 l 260 781 l 260 868 l 347 868 l 347 955 l 521 955 l 521 868 l 434 868 l 434 781 l 347 781 l 347 694 l 174 694 z "},"Ŗ":{"ha":694,"x_min":0,"x_max":608,"o":"m 0 0 l 0 87 l 87 87 l 87 781 l 0 781 l 0 868 l 521 868 l 521 781 l 608 781 l 608 521 l 521 521 l 521 347 l 608 347 l 608 0 l 434 0 l 434 347 l 347 347 l 347 434 l 260 434 l 260 0 l 0 0 m 347 -87 l 260 -87 l 260 0 l 434 0 l 434 -87 l 521 -87 l 521 -174 l 434 -174 l 434 -260 l 87 -260 l 87 -174 l 347 -174 l 347 -87 m 260 521 l 434 521 l 434 781 l 260 781 l 260 521 z "},"ŗ":{"ha":694,"x_min":0,"x_max":608,"o":"m 0 0 l 0 87 l 87 87 l 87 521 l 0 521 l 0 608 l 174 608 l 174 521 l 260 521 l 260 608 l 521 608 l 521 521 l 608 521 l 608 347 l 434 347 l 434 521 l 347 521 l 347 434 l 260 434 l 260 87 l 347 87 l 347 0 l 434 0 l 434 -87 l 521 -87 l 521 -174 l 434 -174 l 434 -260 l 87 -260 l 87 -174 l 347 -174 l 347 -87 l 260 -87 l 260 0 l 0 0 z "},"Ř":{"ha":694,"x_min":0,"x_max":608,"o":"m 0 0 l 0 87 l 87 87 l 87 694 l 0 694 l 0 781 l 521 781 l 521 694 l 608 694 l 608 434 l 521 434 l 521 260 l 608 260 l 608 0 l 434 0 l 434 260 l 347 260 l 347 347 l 260 347 l 260 0 l 0 0 m 174 868 l 174 955 l 87 955 l 87 1042 l 260 1042 l 260 955 l 347 955 l 347 1042 l 521 1042 l 521 955 l 434 955 l 434 868 l 174 868 m 260 434 l 434 434 l 434 694 l 260 694 l 260 434 z "},"ř":{"ha":694,"x_min":0,"x_max":608,"o":"m 0 0 l 0 87 l 87 87 l 87 521 l 0 521 l 0 608 l 174 608 l 174 521 l 260 521 l 260 608 l 521 608 l 521 521 l 608 521 l 608 347 l 434 347 l 434 521 l 347 521 l 347 434 l 260 434 l 260 87 l 347 87 l 347 0 l 0 0 m 174 781 l 87 781 l 87 868 l 260 868 l 260 781 l 347 781 l 347 868 l 521 868 l 521 781 l 434 781 l 434 694 l 174 694 l 174 781 z "},"Ś":{"ha":694,"x_min":0,"x_max":608,"o":"m 0 87 l 0 260 l 174 260 l 174 87 l 434 87 l 434 260 l 347 260 l 347 347 l 174 347 l 174 434 l 87 434 l 87 521 l 0 521 l 0 694 l 87 694 l 87 781 l 521 781 l 521 694 l 608 694 l 608 521 l 434 521 l 434 694 l 174 694 l 174 521 l 260 521 l 260 434 l 434 434 l 434 347 l 521 347 l 521 260 l 608 260 l 608 87 l 521 87 l 521 0 l 87 0 l 87 87 l 0 87 m 174 868 l 174 955 l 260 955 l 260 1042 l 434 1042 l 434 955 l 347 955 l 347 868 l 174 868 z "},"ś":{"ha":694,"x_min":0,"x_max":608,"o":"m 0 87 l 0 174 l 174 174 l 174 87 l 434 87 l 434 174 l 347 174 l 347 260 l 174 260 l 174 347 l 87 347 l 87 434 l 0 434 l 0 521 l 87 521 l 87 608 l 521 608 l 521 521 l 608 521 l 608 434 l 434 434 l 434 521 l 174 521 l 174 434 l 260 434 l 260 347 l 434 347 l 434 260 l 521 260 l 521 174 l 608 174 l 608 87 l 521 87 l 521 0 l 87 0 l 87 87 l 0 87 m 347 781 l 347 868 l 521 868 l 521 781 l 434 781 l 434 694 l 260 694 l 260 781 l 347 781 z "},"Ŝ":{"ha":694,"x_min":0,"x_max":608,"o":"m 0 87 l 0 260 l 174 260 l 174 87 l 434 87 l 434 260 l 347 260 l 347 347 l 174 347 l 174 434 l 87 434 l 87 521 l 0 521 l 0 694 l 87 694 l 87 781 l 521 781 l 521 694 l 608 694 l 608 521 l 434 521 l 434 694 l 174 694 l 174 521 l 260 521 l 260 434 l 434 434 l 434 347 l 521 347 l 521 260 l 608 260 l 608 87 l 521 87 l 521 0 l 87 0 l 87 87 l 0 87 m 174 955 l 174 1042 l 434 1042 l 434 955 l 521 955 l 521 868 l 347 868 l 347 955 l 260 955 l 260 868 l 87 868 l 87 955 l 174 955 z "},"ŝ":{"ha":694,"x_min":0,"x_max":608,"o":"m 0 87 l 0 174 l 174 174 l 174 87 l 434 87 l 434 174 l 347 174 l 347 260 l 174 260 l 174 347 l 87 347 l 87 434 l 0 434 l 0 521 l 87 521 l 87 608 l 521 608 l 521 521 l 608 521 l 608 434 l 434 434 l 434 521 l 174 521 l 174 434 l 260 434 l 260 347 l 434 347 l 434 260 l 521 260 l 521 174 l 608 174 l 608 87 l 521 87 l 521 0 l 87 0 l 87 87 l 0 87 m 347 868 l 434 868 l 434 781 l 521 781 l 521 694 l 347 694 l 347 781 l 260 781 l 260 694 l 87 694 l 87 781 l 174 781 l 174 868 l 260 868 l 260 955 l 347 955 l 347 868 z "},"Ş":{"ha":694,"x_min":0,"x_max":608,"o":"m 0 87 l 0 260 l 174 260 l 174 87 l 434 87 l 434 347 l 347 347 l 347 434 l 174 434 l 174 521 l 87 521 l 87 608 l 0 608 l 0 781 l 87 781 l 87 868 l 521 868 l 521 781 l 608 781 l 608 608 l 434 608 l 434 781 l 174 781 l 174 608 l 260 608 l 260 521 l 434 521 l 434 434 l 521 434 l 521 347 l 608 347 l 608 87 l 521 87 l 521 0 l 434 0 l 434 -87 l 521 -87 l 521 -174 l 434 -174 l 434 -260 l 87 -260 l 87 -174 l 347 -174 l 347 -87 l 260 -87 l 260 0 l 87 0 l 87 87 l 0 87 z "},"ş":{"ha":694,"x_min":0,"x_max":608,"o":"m 0 87 l 0 174 l 174 174 l 174 87 l 434 87 l 434 174 l 347 174 l 347 260 l 174 260 l 174 347 l 87 347 l 87 434 l 0 434 l 0 521 l 87 521 l 87 608 l 521 608 l 521 521 l 608 521 l 608 434 l 434 434 l 434 521 l 174 521 l 174 434 l 260 434 l 260 347 l 434 347 l 434 260 l 521 260 l 521 174 l 608 174 l 608 87 l 521 87 l 521 0 l 434 0 l 434 -87 l 521 -87 l 521 -174 l 434 -174 l 434 -260 l 87 -260 l 87 -174 l 347 -174 l 347 -87 l 260 -87 l 260 0 l 87 0 l 87 87 l 0 87 z "},"Š":{"ha":694,"x_min":0,"x_max":608,"o":"m 0 87 l 0 174 l 174 174 l 174 87 l 434 87 l 434 260 l 347 260 l 347 347 l 174 347 l 174 434 l 87 434 l 87 521 l 0 521 l 0 694 l 87 694 l 87 781 l 521 781 l 521 694 l 608 694 l 608 608 l 434 608 l 434 694 l 174 694 l 174 521 l 260 521 l 260 434 l 434 434 l 434 347 l 521 347 l 521 260 l 608 260 l 608 87 l 521 87 l 521 0 l 87 0 l 87 87 l 0 87 m 174 868 l 174 955 l 87 955 l 87 1042 l 260 1042 l 260 955 l 347 955 l 347 1042 l 521 1042 l 521 955 l 434 955 l 434 868 l 174 868 z "},"š":{"ha":694,"x_min":0,"x_max":608,"o":"m 0 87 l 0 174 l 174 174 l 174 87 l 434 87 l 434 174 l 347 174 l 347 260 l 174 260 l 174 347 l 87 347 l 87 434 l 0 434 l 0 521 l 87 521 l 87 608 l 521 608 l 521 521 l 608 521 l 608 434 l 434 434 l 434 521 l 174 521 l 174 434 l 260 434 l 260 347 l 434 347 l 434 260 l 521 260 l 521 174 l 608 174 l 608 87 l 521 87 l 521 0 l 87 0 l 87 87 l 0 87 m 174 781 l 87 781 l 87 868 l 260 868 l 260 781 l 347 781 l 347 868 l 521 868 l 521 781 l 434 781 l 434 694 l 174 694 l 174 781 z "},"Ţ":{"ha":694,"x_min":87,"x_max":608,"o":"m 174 0 l 174 87 l 260 87 l 260 694 l 174 694 l 174 608 l 87 608 l 87 868 l 608 868 l 608 608 l 521 608 l 521 694 l 434 694 l 434 87 l 521 87 l 521 0 l 434 0 l 434 -87 l 521 -87 l 521 -174 l 434 -174 l 434 -260 l 87 -260 l 87 -174 l 347 -174 l 347 -87 l 260 -87 l 260 0 l 174 0 z "},"ţ":{"ha":694,"x_min":0,"x_max":608,"o":"m 0 521 l 0 608 l 174 608 l 174 781 l 260 781 l 260 868 l 347 868 l 347 608 l 521 608 l 521 521 l 347 521 l 347 87 l 434 87 l 434 174 l 608 174 l 608 87 l 521 87 l 521 0 l 434 0 l 434 -87 l 521 -87 l 521 -174 l 434 -174 l 434 -260 l 87 -260 l 87 -174 l 347 -174 l 347 -87 l 260 -87 l 260 87 l 174 87 l 174 521 l 0 521 z "},"Ť":{"ha":694,"x_min":87,"x_max":608,"o":"m 174 0 l 174 87 l 260 87 l 260 608 l 174 608 l 174 521 l 87 521 l 87 781 l 608 781 l 608 521 l 521 521 l 521 608 l 434 608 l 434 87 l 521 87 l 521 0 l 174 0 m 174 868 l 174 955 l 87 955 l 87 1042 l 260 1042 l 260 955 l 434 955 l 434 1042 l 608 1042 l 608 955 l 521 955 l 521 868 l 174 868 z "},"ť":{"ha":694,"x_min":0,"x_max":608,"o":"m 0 434 l 0 521 l 174 521 l 174 694 l 260 694 l 260 781 l 347 781 l 347 521 l 521 521 l 521 434 l 347 434 l 347 87 l 434 87 l 434 174 l 608 174 l 608 87 l 521 87 l 521 0 l 260 0 l 260 87 l 174 87 l 174 434 l 0 434 m 174 868 l 174 955 l 87 955 l 87 1042 l 260 1042 l 260 955 l 347 955 l 347 1042 l 521 1042 l 521 955 l 434 955 l 434 868 l 174 868 z "},"Ŧ":{"ha":694,"x_min":87,"x_max":608,"o":"m 87 347 l 87 434 l 260 434 l 260 694 l 174 694 l 174 608 l 87 608 l 87 868 l 608 868 l 608 608 l 521 608 l 521 694 l 434 694 l 434 434 l 608 434 l 608 347 l 434 347 l 434 87 l 521 87 l 521 0 l 174 0 l 174 87 l 260 87 l 260 347 l 87 347 z "},"ŧ":{"ha":694,"x_min":0,"x_max":608,"o":"m 0 347 l 0 434 l 174 434 l 174 521 l 0 521 l 0 608 l 174 608 l 174 781 l 260 781 l 260 868 l 347 868 l 347 608 l 521 608 l 521 521 l 347 521 l 347 434 l 521 434 l 521 347 l 347 347 l 347 87 l 434 87 l 434 174 l 608 174 l 608 87 l 521 87 l 521 0 l 260 0 l 260 87 l 174 87 l 174 347 l 0 347 z "},"Ũ":{"ha":694,"x_min":0,"x_max":608,"o":"m 0 87 l 0 781 l 174 781 l 174 87 l 434 87 l 434 781 l 608 781 l 608 87 l 521 87 l 521 0 l 87 0 l 87 87 l 0 87 m 0 868 l 0 955 l 87 955 l 87 1042 l 347 1042 l 347 955 l 434 955 l 434 1042 l 608 1042 l 608 955 l 521 955 l 521 868 l 260 868 l 260 955 l 174 955 l 174 868 l 0 868 z "},"ũ":{"ha":694,"x_min":0,"x_max":608,"o":"m 0 87 l 0 608 l 174 608 l 174 87 l 347 87 l 347 0 l 87 0 l 87 87 l 0 87 m 0 694 l 0 781 l 87 781 l 87 868 l 347 868 l 347 781 l 434 781 l 434 868 l 608 868 l 608 781 l 521 781 l 521 694 l 260 694 l 260 781 l 174 781 l 174 694 l 0 694 m 347 87 l 347 608 l 521 608 l 521 87 l 608 87 l 608 0 l 434 0 l 434 87 l 347 87 z "},"Ū":{"ha":694,"x_min":0,"x_max":608,"o":"m 0 87 l 0 868 l 174 868 l 174 87 l 434 87 l 434 868 l 608 868 l 608 87 l 521 87 l 521 0 l 87 0 l 87 87 l 0 87 m 0 955 l 0 1042 l 608 1042 l 608 955 l 0 955 z "},"ū":{"ha":694,"x_min":0,"x_max":608,"o":"m 0 87 l 0 608 l 174 608 l 174 87 l 347 87 l 347 0 l 87 0 l 87 87 l 0 87 m 0 781 l 0 868 l 521 868 l 521 781 l 0 781 m 347 87 l 347 608 l 521 608 l 521 87 l 608 87 l 608 0 l 434 0 l 434 87 l 347 87 z "},"Ŭ":{"ha":694,"x_min":0,"x_max":608,"o":"m 0 87 l 0 781 l 174 781 l 174 87 l 434 87 l 434 781 l 608 781 l 608 87 l 521 87 l 521 0 l 87 0 l 87 87 l 0 87 m 87 955 l 0 955 l 0 1042 l 174 1042 l 174 955 l 434 955 l 434 1042 l 608 1042 l 608 955 l 521 955 l 521 868 l 87 868 l 87 955 z "},"ŭ":{"ha":694,"x_min":0,"x_max":608,"o":"m 0 87 l 0 608 l 174 608 l 174 87 l 347 87 l 347 0 l 87 0 l 87 87 l 0 87 m 0 781 l 0 868 l 174 868 l 174 781 l 434 781 l 434 868 l 608 868 l 608 781 l 521 781 l 521 694 l 87 694 l 87 781 l 0 781 m 347 87 l 347 608 l 521 608 l 521 87 l 608 87 l 608 0 l 434 0 l 434 87 l 347 87 z "},"Ů":{"ha":694,"x_min":0,"x_max":608,"o":"m 0 87 l 0 694 l 174 694 l 174 87 l 434 87 l 434 694 l 608 694 l 608 87 l 521 87 l 521 0 l 87 0 l 87 87 l 0 87 m 174 868 l 87 868 l 87 955 l 174 955 l 174 1042 l 434 1042 l 434 955 l 521 955 l 521 868 l 434 868 l 434 781 l 174 781 l 174 868 m 347 868 l 347 955 l 260 955 l 260 868 l 347 868 z "},"ů":{"ha":694,"x_min":0,"x_max":608,"o":"m 0 87 l 0 608 l 174 608 l 174 87 l 347 87 l 347 0 l 87 0 l 87 87 l 0 87 m 0 781 l 0 868 l 87 868 l 87 955 l 434 955 l 434 868 l 521 868 l 521 781 l 434 781 l 434 694 l 87 694 l 87 781 l 0 781 m 174 868 l 174 781 l 347 781 l 347 868 l 174 868 m 347 87 l 347 608 l 521 608 l 521 87 l 608 87 l 608 0 l 434 0 l 434 87 l 347 87 z "},"Ű":{"ha":694,"x_min":0,"x_max":608,"o":"m 0 87 l 0 781 l 174 781 l 174 87 l 434 87 l 434 781 l 608 781 l 608 87 l 521 87 l 521 0 l 87 0 l 87 87 l 0 87 m 174 955 l 174 1042 l 347 1042 l 347 955 l 260 955 l 260 868 l 87 868 l 87 955 l 174 955 m 347 868 l 347 955 l 434 955 l 434 1042 l 608 1042 l 608 955 l 521 955 l 521 868 l 347 868 z "},"ű":{"ha":694,"x_min":0,"x_max":608,"o":"m 0 87 l 0 608 l 174 608 l 174 87 l 347 87 l 347 0 l 87 0 l 87 87 l 0 87 m 174 781 l 174 868 l 347 868 l 347 781 l 260 781 l 260 694 l 87 694 l 87 781 l 174 781 m 347 87 l 347 608 l 521 608 l 521 87 l 608 87 l 608 0 l 434 0 l 434 87 l 347 87 m 347 781 l 434 781 l 434 868 l 608 868 l 608 781 l 521 781 l 521 694 l 347 694 l 347 781 z "},"Ų":{"ha":694,"x_min":0,"x_max":608,"o":"m 0 87 l 0 868 l 174 868 l 174 87 l 434 87 l 434 868 l 608 868 l 608 87 l 521 87 l 521 0 l 434 0 l 434 -87 l 347 -87 l 347 -174 l 608 -174 l 608 -260 l 260 -260 l 260 -174 l 174 -174 l 174 -87 l 260 -87 l 260 0 l 87 0 l 87 87 l 0 87 z "},"ų":{"ha":694,"x_min":0,"x_max":608,"o":"m 0 87 l 0 608 l 174 608 l 174 87 l 347 87 l 347 0 l 434 0 l 434 -87 l 347 -87 l 347 -174 l 608 -174 l 608 -260 l 260 -260 l 260 -174 l 174 -174 l 174 -87 l 260 -87 l 260 0 l 87 0 l 87 87 l 0 87 m 347 87 l 347 608 l 521 608 l 521 87 l 608 87 l 608 0 l 434 0 l 434 87 l 347 87 z "},"Ŵ":{"ha":694,"x_min":0,"x_max":608,"o":"m 0 87 l 0 781 l 174 781 l 174 260 l 260 260 l 260 521 l 347 521 l 347 260 l 434 260 l 434 781 l 608 781 l 608 87 l 521 87 l 521 0 l 347 0 l 347 174 l 260 174 l 260 0 l 87 0 l 87 87 l 0 87 m 174 955 l 174 1042 l 434 1042 l 434 955 l 521 955 l 521 868 l 347 868 l 347 955 l 260 955 l 260 868 l 87 868 l 87 955 l 174 955 z "},"ŵ":{"ha":694,"x_min":0,"x_max":608,"o":"m 0 87 l 0 608 l 174 608 l 174 174 l 260 174 l 260 434 l 347 434 l 347 174 l 434 174 l 434 608 l 608 608 l 608 87 l 521 87 l 521 0 l 347 0 l 347 87 l 260 87 l 260 0 l 87 0 l 87 87 l 0 87 m 174 781 l 174 868 l 260 868 l 260 955 l 347 955 l 347 868 l 434 868 l 434 781 l 521 781 l 521 694 l 347 694 l 347 781 l 260 781 l 260 694 l 87 694 l 87 781 l 174 781 z "},"Ŷ":{"ha":694,"x_min":87,"x_max":608,"o":"m 174 0 l 174 87 l 260 87 l 260 347 l 174 347 l 174 434 l 87 434 l 87 781 l 260 781 l 260 434 l 434 434 l 434 781 l 608 781 l 608 434 l 521 434 l 521 347 l 434 347 l 434 87 l 521 87 l 521 0 l 174 0 m 174 955 l 174 1042 l 521 1042 l 521 955 l 608 955 l 608 868 l 434 868 l 434 955 l 260 955 l 260 868 l 87 868 l 87 955 l 174 955 z "},"ŷ":{"ha":694,"x_min":0,"x_max":608,"o":"m 0 87 l 0 608 l 174 608 l 174 87 l 434 87 l 434 608 l 608 608 l 608 -87 l 521 -87 l 521 -174 l 434 -174 l 434 -260 l 0 -260 l 0 -174 l 347 -174 l 347 -87 l 434 -87 l 434 0 l 87 0 l 87 87 l 0 87 m 174 781 l 174 868 l 260 868 l 260 955 l 347 955 l 347 868 l 434 868 l 434 781 l 521 781 l 521 694 l 347 694 l 347 781 l 260 781 l 260 694 l 87 694 l 87 781 l 174 781 z "},"Ÿ":{"ha":694,"x_min":87,"x_max":608,"o":"m 174 0 l 174 87 l 260 87 l 260 347 l 174 347 l 174 434 l 87 434 l 87 781 l 260 781 l 260 434 l 434 434 l 434 781 l 608 781 l 608 434 l 521 434 l 521 347 l 434 347 l 434 87 l 521 87 l 521 0 l 174 0 m 87 955 l 260 955 l 260 868 l 87 868 l 87 955 m 434 955 l 608 955 l 608 868 l 434 868 l 434 955 z "},"Ź":{"ha":694,"x_min":0,"x_max":608,"o":"m 0 0 l 0 260 l 87 260 l 87 347 l 174 347 l 174 434 l 260 434 l 260 521 l 347 521 l 347 608 l 434 608 l 434 694 l 174 694 l 174 608 l 87 608 l 87 521 l 0 521 l 0 781 l 608 781 l 608 608 l 521 608 l 521 521 l 434 521 l 434 434 l 347 434 l 347 347 l 260 347 l 260 260 l 174 260 l 174 87 l 434 87 l 434 174 l 521 174 l 521 260 l 608 260 l 608 0 l 0 0 m 174 868 l 174 955 l 260 955 l 260 1042 l 434 1042 l 434 955 l 347 955 l 347 868 l 174 868 z "},"ź":{"ha":694,"x_min":0,"x_max":608,"o":"m 0 174 l 87 174 l 87 260 l 174 260 l 174 347 l 260 347 l 260 434 l 347 434 l 347 521 l 174 521 l 174 434 l 0 434 l 0 608 l 608 608 l 608 521 l 521 521 l 521 434 l 434 434 l 434 347 l 347 347 l 347 260 l 260 260 l 260 174 l 174 174 l 174 87 l 434 87 l 434 174 l 608 174 l 608 0 l 0 0 l 0 174 m 174 694 l 174 781 l 260 781 l 260 868 l 347 868 l 347 955 l 521 955 l 521 868 l 434 868 l 434 781 l 347 781 l 347 694 l 174 694 z "},"Ż":{"ha":694,"x_min":0,"x_max":608,"o":"m 0 0 l 0 260 l 87 260 l 87 347 l 174 347 l 174 434 l 260 434 l 260 521 l 347 521 l 347 608 l 434 608 l 434 694 l 174 694 l 174 608 l 87 608 l 87 521 l 0 521 l 0 781 l 608 781 l 608 608 l 521 608 l 521 521 l 434 521 l 434 434 l 347 434 l 347 347 l 260 347 l 260 260 l 174 260 l 174 87 l 434 87 l 434 174 l 521 174 l 521 260 l 608 260 l 608 0 l 0 0 m 260 1042 l 434 1042 l 434 868 l 260 868 l 260 1042 z "},"ż":{"ha":694,"x_min":0,"x_max":608,"o":"m 0 174 l 87 174 l 87 260 l 174 260 l 174 347 l 260 347 l 260 434 l 347 434 l 347 521 l 174 521 l 174 434 l 0 434 l 0 608 l 608 608 l 608 521 l 521 521 l 521 434 l 434 434 l 434 347 l 347 347 l 347 260 l 260 260 l 260 174 l 174 174 l 174 87 l 434 87 l 434 174 l 608 174 l 608 0 l 0 0 l 0 174 m 260 868 l 434 868 l 434 694 l 260 694 l 260 868 z "},"Ž":{"ha":694,"x_min":0,"x_max":608,"o":"m 0 0 l 0 260 l 87 260 l 87 347 l 174 347 l 174 434 l 260 434 l 260 521 l 347 521 l 347 608 l 434 608 l 434 694 l 174 694 l 174 608 l 87 608 l 87 521 l 0 521 l 0 781 l 608 781 l 608 608 l 521 608 l 521 521 l 434 521 l 434 434 l 347 434 l 347 347 l 260 347 l 260 260 l 174 260 l 174 87 l 434 87 l 434 174 l 521 174 l 521 260 l 608 260 l 608 0 l 0 0 m 174 868 l 174 955 l 87 955 l 87 1042 l 260 1042 l 260 955 l 347 955 l 347 1042 l 521 1042 l 521 955 l 434 955 l 434 868 l 174 868 z "},"ž":{"ha":694,"x_min":0,"x_max":608,"o":"m 0 174 l 87 174 l 87 260 l 174 260 l 174 347 l 260 347 l 260 434 l 347 434 l 347 521 l 174 521 l 174 434 l 0 434 l 0 608 l 608 608 l 608 521 l 521 521 l 521 434 l 434 434 l 434 347 l 347 347 l 347 260 l 260 260 l 260 174 l 174 174 l 174 87 l 434 87 l 434 174 l 608 174 l 608 0 l 0 0 l 0 174 m 174 781 l 87 781 l 87 868 l 260 868 l 260 781 l 347 781 l 347 868 l 521 868 l 521 781 l 434 781 l 434 694 l 174 694 l 174 781 z "},"ſ":{"ha":694,"x_min":87,"x_max":608,"o":"m 87 0 l 87 87 l 174 87 l 174 781 l 260 781 l 260 868 l 521 868 l 521 781 l 608 781 l 608 608 l 521 608 l 521 694 l 434 694 l 434 781 l 347 781 l 347 87 l 434 87 l 434 0 l 87 0 z "},"ƒ":{"ha":694,"x_min":0,"x_max":694,"o":"m 0 -87 l 0 0 l 174 0 l 174 -87 l 260 -87 l 260 434 l 87 434 l 87 521 l 260 521 l 260 868 l 347 868 l 347 955 l 608 955 l 608 868 l 694 868 l 694 781 l 521 781 l 521 868 l 434 868 l 434 521 l 608 521 l 608 434 l 434 434 l 434 -87 l 347 -87 l 347 -174 l 87 -174 l 87 -87 l 0 -87 z "},"ơ":{"ha":694,"x_min":0,"x_max":608,"o":"m 0 87 l 0 521 l 87 521 l 87 608 l 608 608 l 608 521 l 434 521 l 434 87 l 347 87 l 347 0 l 87 0 l 87 87 l 0 87 m 174 87 l 260 87 l 260 521 l 174 521 l 174 87 z "},"Ʒ":{"ha":694,"x_min":0,"x_max":608,"o":"m 0 87 l 0 174 l 174 174 l 174 87 l 434 87 l 434 434 l 174 434 l 174 521 l 260 521 l 260 608 l 347 608 l 347 694 l 434 694 l 434 781 l 174 781 l 174 694 l 0 694 l 0 868 l 608 868 l 608 694 l 521 694 l 521 608 l 434 608 l 434 521 l 521 521 l 521 434 l 608 434 l 608 87 l 521 87 l 521 0 l 87 0 l 87 87 l 0 87 z "},"Ǻ":{"ha":694,"x_min":0,"x_max":608,"o":"m 0 0 l 0 521 l 87 521 l 87 608 l 174 608 l 174 694 l 434 694 l 434 608 l 521 608 l 521 521 l 608 521 l 608 0 l 434 0 l 434 260 l 174 260 l 174 0 l 0 0 m 174 347 l 434 347 l 434 521 l 347 521 l 347 608 l 260 608 l 260 521 l 174 521 l 174 347 m 174 868 l 87 868 l 87 955 l 174 955 l 174 1042 l 434 1042 l 434 955 l 521 955 l 521 868 l 434 868 l 434 781 l 174 781 l 174 868 m 347 868 l 347 955 l 260 955 l 260 868 l 347 868 m 521 955 l 521 1042 l 608 1042 l 608 955 l 521 955 z "},"ǻ":{"ha":694,"x_min":0,"x_max":608,"o":"m 0 87 l 0 347 l 87 347 l 87 434 l 347 434 l 347 521 l 87 521 l 87 608 l 434 608 l 434 521 l 521 521 l 521 87 l 608 87 l 608 0 l 434 0 l 434 87 l 347 87 l 347 347 l 174 347 l 174 87 l 347 87 l 347 0 l 87 0 l 87 87 l 0 87 m 174 868 l 174 955 l 347 955 l 347 1042 l 521 1042 l 521 955 l 434 955 l 434 868 l 521 868 l 521 781 l 434 781 l 434 694 l 174 694 l 174 781 l 87 781 l 87 868 l 174 868 m 347 868 l 260 868 l 260 781 l 347 781 l 347 868 z "},"Ǽ":{"ha":694,"x_min":0,"x_max":608,"o":"m 0 0 l 0 608 l 87 608 l 87 694 l 174 694 l 174 781 l 608 781 l 608 694 l 521 694 l 521 434 l 608 434 l 608 347 l 521 347 l 521 87 l 608 87 l 608 0 l 347 0 l 347 347 l 174 347 l 174 0 l 0 0 m 174 434 l 347 434 l 347 694 l 260 694 l 260 608 l 174 608 l 174 434 m 347 955 l 347 1042 l 521 1042 l 521 955 l 434 955 l 434 868 l 260 868 l 260 955 l 347 955 z "},"ǽ":{"ha":694,"x_min":0,"x_max":608,"o":"m 0 87 l 0 260 l 87 260 l 87 347 l 174 347 l 174 434 l 87 434 l 87 521 l 0 521 l 0 608 l 174 608 l 174 521 l 347 521 l 347 347 l 434 347 l 434 521 l 347 521 l 347 608 l 521 608 l 521 521 l 608 521 l 608 260 l 434 260 l 434 87 l 608 87 l 608 0 l 347 0 l 347 87 l 260 87 l 260 260 l 174 260 l 174 87 l 260 87 l 260 0 l 87 0 l 87 87 l 0 87 m 174 694 l 174 781 l 260 781 l 260 868 l 347 868 l 347 955 l 521 955 l 521 868 l 434 868 l 434 781 l 347 781 l 347 694 l 174 694 z "},"Ǿ":{"ha":694,"x_min":0,"x_max":608,"o":"m 0 87 l 0 694 l 87 694 l 87 781 l 434 781 l 434 868 l 521 868 l 521 694 l 608 694 l 608 87 l 521 87 l 521 0 l 174 0 l 174 -87 l 87 -87 l 87 87 l 0 87 m 174 260 l 260 260 l 260 87 l 434 87 l 434 521 l 347 521 l 347 694 l 174 694 l 174 260 m 174 868 l 174 955 l 260 955 l 260 1042 l 434 1042 l 434 955 l 347 955 l 347 868 l 174 868 m 347 260 l 260 260 l 260 521 l 347 521 l 347 260 z "},"ǿ":{"ha":694,"x_min":0,"x_max":608,"o":"m 0 87 l 0 521 l 87 521 l 87 608 l 521 608 l 521 521 l 608 521 l 608 87 l 521 87 l 521 0 l 87 0 l 87 87 l 0 87 m 174 174 l 174 87 l 434 87 l 434 347 l 347 347 l 347 260 l 260 260 l 260 174 l 174 174 m 174 347 l 260 347 l 260 434 l 347 434 l 347 521 l 174 521 l 174 347 m 174 781 l 174 868 l 260 868 l 260 955 l 434 955 l 434 868 l 347 868 l 347 781 l 260 781 l 260 694 l 87 694 l 87 781 l 174 781 z "},"Ș":{"ha":694,"x_min":0,"x_max":608,"o":"m 0 87 l 0 260 l 174 260 l 174 87 l 434 87 l 434 347 l 347 347 l 347 434 l 174 434 l 174 521 l 87 521 l 87 608 l 0 608 l 0 781 l 87 781 l 87 868 l 521 868 l 521 781 l 608 781 l 608 608 l 434 608 l 434 781 l 174 781 l 174 608 l 260 608 l 260 521 l 434 521 l 434 434 l 521 434 l 521 347 l 608 347 l 608 87 l 521 87 l 521 0 l 87 0 l 87 87 l 0 87 m 174 -174 l 260 -174 l 260 -87 l 434 -87 l 434 -174 l 347 -174 l 347 -260 l 174 -260 l 174 -174 z "},"ș":{"ha":694,"x_min":0,"x_max":608,"o":"m 0 87 l 0 174 l 174 174 l 174 87 l 434 87 l 434 174 l 347 174 l 347 260 l 174 260 l 174 347 l 87 347 l 87 434 l 0 434 l 0 521 l 87 521 l 87 608 l 521 608 l 521 521 l 608 521 l 608 434 l 434 434 l 434 521 l 174 521 l 174 434 l 260 434 l 260 347 l 434 347 l 434 260 l 521 260 l 521 174 l 608 174 l 608 87 l 521 87 l 521 0 l 87 0 l 87 87 l 0 87 m 174 -174 l 260 -174 l 260 -87 l 434 -87 l 434 -174 l 347 -174 l 347 -260 l 174 -260 l 174 -174 z "},"Ț":{"ha":694,"x_min":87,"x_max":608,"o":"m 87 608 l 87 868 l 608 868 l 608 608 l 521 608 l 521 694 l 434 694 l 434 87 l 521 87 l 521 0 l 174 0 l 174 87 l 260 87 l 260 694 l 174 694 l 174 608 l 87 608 m 174 -174 l 260 -174 l 260 -87 l 434 -87 l 434 -174 l 347 -174 l 347 -260 l 174 -260 l 174 -174 z "},"ț":{"ha":694,"x_min":0,"x_max":608,"o":"m 0 521 l 0 608 l 174 608 l 174 781 l 260 781 l 260 868 l 347 868 l 347 608 l 521 608 l 521 521 l 347 521 l 347 87 l 434 87 l 434 174 l 608 174 l 608 87 l 521 87 l 521 0 l 260 0 l 260 87 l 174 87 l 174 521 l 0 521 m 174 -174 l 260 -174 l 260 -87 l 434 -87 l 434 -174 l 347 -174 l 347 -260 l 174 -260 l 174 -174 z "},"ɑ":{"ha":694,"x_min":0,"x_max":608,"o":"m 0 87 l 0 521 l 87 521 l 87 608 l 347 608 l 347 521 l 434 521 l 434 608 l 608 608 l 608 521 l 521 521 l 521 434 l 434 434 l 434 174 l 521 174 l 521 87 l 608 87 l 608 0 l 434 0 l 434 87 l 347 87 l 347 0 l 87 0 l 87 87 l 0 87 m 174 87 l 260 87 l 260 521 l 174 521 l 174 87 z "},"ɸ":{"ha":694,"x_min":87,"x_max":608,"o":"m 174 174 l 174 260 l 87 260 l 87 521 l 174 521 l 174 608 l 260 608 l 260 694 l 87 694 l 87 781 l 608 781 l 608 694 l 434 694 l 434 608 l 521 608 l 521 521 l 608 521 l 608 260 l 521 260 l 521 174 l 434 174 l 434 87 l 608 87 l 608 0 l 87 0 l 87 87 l 260 87 l 260 174 l 174 174 m 260 260 l 434 260 l 434 521 l 260 521 l 260 260 z "},"ˆ":{"ha":694,"x_min":87,"x_max":521,"o":"m 87 694 l 87 781 l 174 781 l 174 868 l 260 868 l 260 955 l 347 955 l 347 868 l 434 868 l 434 781 l 521 781 l 521 694 l 347 694 l 347 781 l 260 781 l 260 694 l 87 694 z "},"ˇ":{"ha":694,"x_min":87,"x_max":521,"o":"m 87 955 l 260 955 l 260 868 l 347 868 l 347 955 l 521 955 l 521 868 l 434 868 l 434 781 l 174 781 l 174 868 l 87 868 l 87 955 z "},"ˉ":{"ha":694,"x_min":87,"x_max":521,"o":"m 87 955 l 521 955 l 521 868 l 87 868 l 87 955 z "},"˘":{"ha":694,"x_min":0,"x_max":608,"o":"m 434 955 l 608 955 l 608 868 l 521 868 l 521 781 l 87 781 l 87 868 l 0 868 l 0 955 l 174 955 l 174 868 l 434 868 l 434 955 z "},"˙":{"ha":694,"x_min":260,"x_max":434,"o":"m 434 955 l 434 781 l 260 781 l 260 955 l 434 955 z "},"˚":{"ha":694,"x_min":87,"x_max":521,"o":"m 87 868 l 174 868 l 174 955 l 434 955 l 434 868 l 521 868 l 521 694 l 434 694 l 434 608 l 174 608 l 174 694 l 87 694 l 87 868 m 260 694 l 347 694 l 347 868 l 260 868 l 260 694 z "},"˛":{"ha":694,"x_min":87,"x_max":521,"o":"m 347 0 l 347 -87 l 260 -87 l 260 -174 l 521 -174 l 521 -260 l 174 -260 l 174 -174 l 87 -174 l 87 -87 l 174 -87 l 174 0 l 347 0 z "},"˜":{"ha":694,"x_min":0,"x_max":608,"o":"m 87 955 l 347 955 l 347 868 l 434 868 l 434 955 l 608 955 l 608 868 l 521 868 l 521 781 l 260 781 l 260 868 l 174 868 l 174 781 l 0 781 l 0 868 l 87 868 l 87 955 z "},"˝":{"ha":694,"x_min":0,"x_max":608,"o":"m 0 694 l 0 781 l 87 781 l 87 868 l 174 868 l 174 955 l 347 955 l 347 868 l 260 868 l 260 781 l 174 781 l 174 694 l 0 694 m 260 781 l 347 781 l 347 868 l 434 868 l 434 955 l 608 955 l 608 868 l 521 868 l 521 781 l 434 781 l 434 694 l 260 694 l 260 781 z "},";":{"ha":694,"x_min":174,"x_max":434,"o":"m 347 87 l 347 0 l 174 0 l 174 87 l 260 87 l 260 260 l 434 260 l 434 87 l 347 87 m 434 521 l 260 521 l 260 694 l 434 694 l 434 521 z "},"΄":{"ha":694,"x_min":260,"x_max":521,"o":"m 434 955 l 434 868 l 347 868 l 347 781 l 260 781 l 260 955 l 347 955 l 347 1042 l 521 1042 l 521 955 l 434 955 z "},"΅":{"ha":694,"x_min":0,"x_max":521,"o":"m 0 694 l 0 781 l 174 781 l 174 694 l 0 694 m 260 955 l 260 1042 l 434 1042 l 434 955 l 347 955 l 347 868 l 174 868 l 174 955 l 260 955 m 347 694 l 347 781 l 521 781 l 521 694 l 347 694 z "},"Ά":{"ha":694,"x_min":0,"x_max":608,"o":"m 0 0 l 0 608 l 87 608 l 87 694 l 174 694 l 174 781 l 260 781 l 260 868 l 347 868 l 347 781 l 434 781 l 434 694 l 521 694 l 521 608 l 608 608 l 608 0 l 434 0 l 434 347 l 174 347 l 174 0 l 0 0 m 0 868 l 0 955 l 87 955 l 87 1042 l 260 1042 l 260 955 l 174 955 l 174 868 l 0 868 m 174 434 l 434 434 l 434 608 l 347 608 l 347 694 l 260 694 l 260 608 l 174 608 l 174 434 z "},"·":{"ha":694,"x_min":260,"x_max":434,"o":"m 434 434 l 260 434 l 260 608 l 434 608 l 434 434 z "},"Έ":{"ha":694,"x_min":0,"x_max":608,"o":"m 0 0 l 0 87 l 87 87 l 87 694 l 0 694 l 0 781 l 608 781 l 608 521 l 521 521 l 521 608 l 434 608 l 434 694 l 260 694 l 260 434 l 347 434 l 347 521 l 434 521 l 434 260 l 347 260 l 347 347 l 260 347 l 260 87 l 434 87 l 434 174 l 521 174 l 521 260 l 608 260 l 608 0 l 0 0 m 0 868 l 0 955 l 87 955 l 87 1042 l 260 1042 l 260 955 l 174 955 l 174 868 l 0 868 z "},"Ή":{"ha":694,"x_min":0,"x_max":608,"o":"m 0 0 l 0 781 l 174 781 l 174 434 l 434 434 l 434 781 l 608 781 l 608 0 l 434 0 l 434 347 l 174 347 l 174 0 l 0 0 m 87 955 l 87 1042 l 260 1042 l 260 955 l 174 955 l 174 868 l 0 868 l 0 955 l 87 955 z "},"Ί":{"ha":694,"x_min":0,"x_max":521,"o":"m 87 955 l 87 1042 l 260 1042 l 260 955 l 174 955 l 174 868 l 0 868 l 0 955 l 87 955 m 174 0 l 174 87 l 260 87 l 260 694 l 174 694 l 174 781 l 521 781 l 521 694 l 434 694 l 434 87 l 521 87 l 521 0 l 174 0 z "},"Ό":{"ha":694,"x_min":0,"x_max":608,"o":"m 0 87 l 0 694 l 87 694 l 87 781 l 521 781 l 521 694 l 608 694 l 608 87 l 521 87 l 521 0 l 87 0 l 87 87 l 0 87 m 87 955 l 87 1042 l 260 1042 l 260 955 l 174 955 l 174 868 l 0 868 l 0 955 l 87 955 m 174 87 l 434 87 l 434 694 l 174 694 l 174 87 z "},"Ύ":{"ha":694,"x_min":0,"x_max":608,"o":"m 0 868 l 0 955 l 87 955 l 87 1042 l 260 1042 l 260 955 l 174 955 l 174 868 l 0 868 m 174 0 l 174 87 l 260 87 l 260 347 l 174 347 l 174 434 l 87 434 l 87 781 l 260 781 l 260 434 l 434 434 l 434 781 l 608 781 l 608 434 l 521 434 l 521 347 l 434 347 l 434 87 l 521 87 l 521 0 l 174 0 z "},"Ώ":{"ha":694,"x_min":0,"x_max":608,"o":"m 0 0 l 0 87 l 87 87 l 87 260 l 0 260 l 0 608 l 87 608 l 87 694 l 174 694 l 174 781 l 434 781 l 434 694 l 521 694 l 521 608 l 608 608 l 608 260 l 521 260 l 521 87 l 608 87 l 608 0 l 347 0 l 347 260 l 434 260 l 434 608 l 347 608 l 347 694 l 260 694 l 260 608 l 174 608 l 174 260 l 260 260 l 260 0 l 0 0 m 0 868 l 0 955 l 87 955 l 87 1042 l 260 1042 l 260 955 l 174 955 l 174 868 l 0 868 z "},"ΐ":{"ha":694,"x_min":0,"x_max":521,"o":"m 0 694 l 0 781 l 174 781 l 174 694 l 0 694 m 174 87 l 174 608 l 347 608 l 347 87 l 434 87 l 434 0 l 260 0 l 260 87 l 174 87 m 174 868 l 174 955 l 260 955 l 260 1042 l 434 1042 l 434 955 l 347 955 l 347 868 l 174 868 m 347 694 l 347 781 l 521 781 l 521 694 l 347 694 m 521 174 l 521 87 l 434 87 l 434 174 l 521 174 z "},"Α":{"ha":694,"x_min":0,"x_max":608,"o":"m 0 0 l 0 608 l 87 608 l 87 694 l 174 694 l 174 781 l 260 781 l 260 868 l 347 868 l 347 781 l 434 781 l 434 694 l 521 694 l 521 608 l 608 608 l 608 0 l 434 0 l 434 347 l 174 347 l 174 0 l 0 0 m 174 434 l 434 434 l 434 608 l 347 608 l 347 694 l 260 694 l 260 608 l 174 608 l 174 434 z "},"Β":{"ha":694,"x_min":0,"x_max":608,"o":"m 0 0 l 0 87 l 87 87 l 87 781 l 0 781 l 0 868 l 521 868 l 521 781 l 608 781 l 608 521 l 521 521 l 521 434 l 608 434 l 608 87 l 521 87 l 521 0 l 0 0 m 260 87 l 434 87 l 434 434 l 260 434 l 260 87 m 260 521 l 434 521 l 434 781 l 260 781 l 260 521 z "},"Γ":{"ha":694,"x_min":0,"x_max":608,"o":"m 0 0 l 0 87 l 87 87 l 87 781 l 0 781 l 0 868 l 608 868 l 608 608 l 521 608 l 521 694 l 434 694 l 434 781 l 260 781 l 260 87 l 347 87 l 347 0 l 0 0 z "},"Δ":{"ha":694,"x_min":0,"x_max":608,"o":"m 0 0 l 0 347 l 87 347 l 87 521 l 174 521 l 174 694 l 260 694 l 260 868 l 347 868 l 347 694 l 434 694 l 434 521 l 521 521 l 521 347 l 608 347 l 608 0 l 0 0 m 174 87 l 434 87 l 434 347 l 347 347 l 347 521 l 260 521 l 260 347 l 174 347 l 174 87 z "},"Ε":{"ha":694,"x_min":0,"x_max":608,"o":"m 0 0 l 0 87 l 87 87 l 87 781 l 0 781 l 0 868 l 608 868 l 608 608 l 521 608 l 521 694 l 434 694 l 434 781 l 260 781 l 260 521 l 347 521 l 347 608 l 434 608 l 434 347 l 347 347 l 347 434 l 260 434 l 260 87 l 434 87 l 434 174 l 521 174 l 521 260 l 608 260 l 608 0 l 0 0 z "},"Ζ":{"ha":694,"x_min":0,"x_max":608,"o":"m 0 0 l 0 260 l 87 260 l 87 347 l 174 347 l 174 434 l 260 434 l 260 521 l 347 521 l 347 608 l 434 608 l 434 781 l 174 781 l 174 694 l 87 694 l 87 608 l 0 608 l 0 868 l 608 868 l 608 608 l 521 608 l 521 521 l 434 521 l 434 434 l 347 434 l 347 347 l 260 347 l 260 260 l 174 260 l 174 87 l 434 87 l 434 174 l 521 174 l 521 260 l 608 260 l 608 0 l 0 0 z "},"Η":{"ha":694,"x_min":0,"x_max":608,"o":"m 0 0 l 0 868 l 174 868 l 174 521 l 434 521 l 434 868 l 608 868 l 608 0 l 434 0 l 434 434 l 174 434 l 174 0 l 0 0 z "},"Θ":{"ha":694,"x_min":0,"x_max":608,"o":"m 0 174 l 0 694 l 87 694 l 87 781 l 174 781 l 174 868 l 434 868 l 434 781 l 521 781 l 521 694 l 608 694 l 608 174 l 521 174 l 521 87 l 434 87 l 434 0 l 174 0 l 174 87 l 87 87 l 87 174 l 0 174 m 174 174 l 260 174 l 260 87 l 347 87 l 347 174 l 434 174 l 434 434 l 174 434 l 174 174 m 174 521 l 434 521 l 434 694 l 347 694 l 347 781 l 260 781 l 260 694 l 174 694 l 174 521 z "},"Ι":{"ha":694,"x_min":174,"x_max":521,"o":"m 434 87 l 521 87 l 521 0 l 174 0 l 174 87 l 260 87 l 260 781 l 174 781 l 174 868 l 521 868 l 521 781 l 434 781 l 434 87 z "},"Κ":{"ha":694,"x_min":0,"x_max":608,"o":"m 0 0 l 0 87 l 87 87 l 87 781 l 0 781 l 0 868 l 260 868 l 260 521 l 347 521 l 347 608 l 434 608 l 434 868 l 608 868 l 608 608 l 521 608 l 521 521 l 434 521 l 434 347 l 521 347 l 521 260 l 608 260 l 608 0 l 434 0 l 434 260 l 347 260 l 347 347 l 260 347 l 260 0 l 0 0 z "},"Λ":{"ha":694,"x_min":0,"x_max":608,"o":"m 0 0 l 0 347 l 87 347 l 87 521 l 174 521 l 174 694 l 260 694 l 260 868 l 347 868 l 347 694 l 434 694 l 434 521 l 521 521 l 521 347 l 608 347 l 608 0 l 434 0 l 434 347 l 347 347 l 347 521 l 260 521 l 260 347 l 174 347 l 174 0 l 0 0 z "},"Μ":{"ha":694,"x_min":0,"x_max":608,"o":"m 0 0 l 0 868 l 174 868 l 174 781 l 260 781 l 260 694 l 347 694 l 347 781 l 434 781 l 434 868 l 608 868 l 608 0 l 434 0 l 434 521 l 347 521 l 347 434 l 260 434 l 260 521 l 174 521 l 174 0 l 0 0 z "},"Ν":{"ha":694,"x_min":0,"x_max":608,"o":"m 0 0 l 0 868 l 174 868 l 174 781 l 260 781 l 260 694 l 347 694 l 347 608 l 434 608 l 434 868 l 608 868 l 608 0 l 434 0 l 434 347 l 347 347 l 347 434 l 260 434 l 260 521 l 174 521 l 174 0 l 0 0 z "},"Ξ":{"ha":694,"x_min":0,"x_max":608,"o":"m 0 174 l 174 174 l 174 87 l 434 87 l 434 174 l 608 174 l 608 0 l 0 0 l 0 174 m 0 868 l 608 868 l 608 694 l 434 694 l 434 781 l 174 781 l 174 694 l 0 694 l 0 868 m 87 434 l 87 521 l 521 521 l 521 434 l 87 434 z "},"Ο":{"ha":694,"x_min":0,"x_max":608,"o":"m 0 87 l 0 781 l 87 781 l 87 868 l 521 868 l 521 781 l 608 781 l 608 87 l 521 87 l 521 0 l 87 0 l 87 87 l 0 87 m 174 87 l 434 87 l 434 781 l 174 781 l 174 87 z "},"Π":{"ha":694,"x_min":0,"x_max":608,"o":"m 0 0 l 0 868 l 608 868 l 608 0 l 434 0 l 434 781 l 174 781 l 174 0 l 0 0 z "},"Ρ":{"ha":694,"x_min":0,"x_max":608,"o":"m 0 0 l 0 87 l 87 87 l 87 781 l 0 781 l 0 868 l 521 868 l 521 781 l 608 781 l 608 521 l 521 521 l 521 434 l 260 434 l 260 87 l 347 87 l 347 0 l 0 0 m 260 521 l 434 521 l 434 781 l 260 781 l 260 521 z "},"Σ":{"ha":694,"x_min":0,"x_max":608,"o":"m 0 174 l 87 174 l 87 260 l 174 260 l 174 347 l 260 347 l 260 521 l 174 521 l 174 608 l 87 608 l 87 694 l 0 694 l 0 868 l 608 868 l 608 608 l 521 608 l 521 694 l 434 694 l 434 781 l 174 781 l 174 694 l 260 694 l 260 608 l 347 608 l 347 521 l 434 521 l 434 347 l 347 347 l 347 260 l 260 260 l 260 174 l 174 174 l 174 87 l 434 87 l 434 174 l 521 174 l 521 260 l 608 260 l 608 0 l 0 0 l 0 174 z "},"Τ":{"ha":694,"x_min":87,"x_max":608,"o":"m 87 608 l 87 868 l 608 868 l 608 608 l 521 608 l 521 694 l 434 694 l 434 87 l 521 87 l 521 0 l 174 0 l 174 87 l 260 87 l 260 694 l 174 694 l 174 608 l 87 608 z "},"Υ":{"ha":694,"x_min":87,"x_max":608,"o":"m 87 521 l 87 868 l 260 868 l 260 521 l 434 521 l 434 868 l 608 868 l 608 521 l 521 521 l 521 434 l 434 434 l 434 87 l 521 87 l 521 0 l 174 0 l 174 87 l 260 87 l 260 434 l 174 434 l 174 521 l 87 521 z "},"Φ":{"ha":694,"x_min":0,"x_max":608,"o":"m 0 260 l 0 608 l 87 608 l 87 694 l 260 694 l 260 781 l 174 781 l 174 868 l 434 868 l 434 781 l 347 781 l 347 694 l 521 694 l 521 608 l 608 608 l 608 260 l 521 260 l 521 174 l 347 174 l 347 87 l 434 87 l 434 0 l 174 0 l 174 87 l 260 87 l 260 174 l 87 174 l 87 260 l 0 260 m 174 260 l 260 260 l 260 608 l 174 608 l 174 260 m 347 260 l 434 260 l 434 608 l 347 608 l 347 260 z "},"Χ":{"ha":694,"x_min":0,"x_max":608,"o":"m 0 174 l 87 174 l 87 347 l 174 347 l 174 521 l 87 521 l 87 694 l 0 694 l 0 868 l 174 868 l 174 694 l 260 694 l 260 608 l 347 608 l 347 694 l 434 694 l 434 868 l 608 868 l 608 694 l 521 694 l 521 521 l 434 521 l 434 347 l 521 347 l 521 174 l 608 174 l 608 0 l 434 0 l 434 174 l 347 174 l 347 260 l 260 260 l 260 174 l 174 174 l 174 0 l 0 0 l 0 174 z "},"Ψ":{"ha":694,"x_min":0,"x_max":608,"o":"m 0 347 l 0 868 l 174 868 l 174 347 l 260 347 l 260 868 l 347 868 l 347 347 l 434 347 l 434 868 l 608 868 l 608 347 l 521 347 l 521 260 l 347 260 l 347 87 l 434 87 l 434 0 l 174 0 l 174 87 l 260 87 l 260 260 l 87 260 l 87 347 l 0 347 z "},"Ω":{"ha":694,"x_min":0,"x_max":608,"o":"m 0 0 l 0 87 l 87 87 l 87 347 l 0 347 l 0 694 l 87 694 l 87 781 l 174 781 l 174 868 l 434 868 l 434 781 l 521 781 l 521 694 l 608 694 l 608 347 l 521 347 l 521 87 l 608 87 l 608 0 l 347 0 l 347 347 l 434 347 l 434 694 l 347 694 l 347 781 l 260 781 l 260 694 l 174 694 l 174 347 l 260 347 l 260 0 l 0 0 z "},"Ϊ":{"ha":694,"x_min":87,"x_max":608,"o":"m 87 955 l 260 955 l 260 868 l 87 868 l 87 955 m 174 0 l 174 87 l 260 87 l 260 694 l 174 694 l 174 781 l 521 781 l 521 694 l 434 694 l 434 87 l 521 87 l 521 0 l 174 0 m 434 955 l 608 955 l 608 868 l 434 868 l 434 955 z "},"Ϋ":{"ha":694,"x_min":87,"x_max":608,"o":"m 174 0 l 174 87 l 260 87 l 260 347 l 174 347 l 174 434 l 87 434 l 87 781 l 260 781 l 260 434 l 434 434 l 434 781 l 608 781 l 608 434 l 521 434 l 521 347 l 434 347 l 434 87 l 521 87 l 521 0 l 174 0 m 87 955 l 260 955 l 260 868 l 87 868 l 87 955 m 434 955 l 608 955 l 608 868 l 434 868 l 434 955 z "},"ά":{"ha":694,"x_min":0,"x_max":608,"o":"m 0 87 l 0 521 l 87 521 l 87 608 l 347 608 l 347 521 l 174 521 l 174 87 l 347 87 l 347 0 l 87 0 l 87 87 l 0 87 m 347 87 l 347 521 l 434 521 l 434 608 l 521 608 l 521 87 l 608 87 l 608 0 l 434 0 l 434 87 l 347 87 m 347 781 l 347 868 l 521 868 l 521 781 l 434 781 l 434 694 l 260 694 l 260 781 l 347 781 z "},"έ":{"ha":694,"x_min":87,"x_max":608,"o":"m 174 87 l 87 87 l 87 260 l 174 260 l 174 347 l 87 347 l 87 521 l 174 521 l 174 608 l 608 608 l 608 521 l 260 521 l 260 347 l 434 347 l 434 260 l 260 260 l 260 87 l 608 87 l 608 0 l 174 0 l 174 87 m 347 694 l 347 781 l 434 781 l 434 868 l 608 868 l 608 781 l 521 781 l 521 694 l 347 694 z "},"ή":{"ha":694,"x_min":0,"x_max":608,"o":"m 0 521 l 0 608 l 174 608 l 174 521 l 260 521 l 260 0 l 87 0 l 87 521 l 0 521 m 260 521 l 260 608 l 521 608 l 521 521 l 608 521 l 608 -260 l 434 -260 l 434 521 l 260 521 m 260 694 l 260 781 l 347 781 l 347 868 l 521 868 l 521 781 l 434 781 l 434 694 l 260 694 z "},"ί":{"ha":694,"x_min":174,"x_max":521,"o":"m 174 87 l 174 608 l 347 608 l 347 87 l 434 87 l 434 0 l 260 0 l 260 87 l 174 87 m 260 694 l 260 781 l 347 781 l 347 868 l 521 868 l 521 781 l 434 781 l 434 694 l 260 694 m 434 87 l 434 174 l 521 174 l 521 87 l 434 87 z "},"ΰ":{"ha":694,"x_min":0,"x_max":608,"o":"m 0 87 l 0 608 l 174 608 l 174 87 l 347 87 l 347 608 l 608 608 l 608 521 l 521 521 l 521 87 l 434 87 l 434 0 l 87 0 l 87 87 l 0 87 m 0 694 l 0 781 l 174 781 l 174 694 l 0 694 m 174 868 l 174 955 l 260 955 l 260 1042 l 434 1042 l 434 955 l 347 955 l 347 868 l 174 868 m 347 694 l 347 781 l 521 781 l 521 694 l 347 694 z "},"α":{"ha":694,"x_min":0,"x_max":608,"o":"m 0 87 l 0 521 l 87 521 l 87 608 l 347 608 l 347 521 l 174 521 l 174 87 l 347 87 l 347 0 l 87 0 l 87 87 l 0 87 m 347 87 l 347 521 l 434 521 l 434 608 l 521 608 l 521 87 l 608 87 l 608 0 l 434 0 l 434 87 l 347 87 z "},"β":{"ha":694,"x_min":0,"x_max":608,"o":"m 0 -260 l 0 781 l 87 781 l 87 868 l 434 868 l 434 781 l 521 781 l 521 608 l 434 608 l 434 521 l 521 521 l 521 434 l 608 434 l 608 87 l 521 87 l 521 0 l 174 0 l 174 -174 l 87 -174 l 87 -260 l 0 -260 m 174 87 l 434 87 l 434 434 l 174 434 l 174 87 m 174 521 l 260 521 l 260 608 l 347 608 l 347 781 l 174 781 l 174 521 z "},"γ":{"ha":694,"x_min":0,"x_max":608,"o":"m 0 521 l 0 608 l 174 608 l 174 521 l 260 521 l 260 347 l 347 347 l 347 521 l 434 521 l 434 608 l 608 608 l 608 521 l 521 521 l 521 347 l 434 347 l 434 87 l 521 87 l 521 -174 l 434 -174 l 434 -260 l 174 -260 l 174 -174 l 87 -174 l 87 87 l 174 87 l 174 347 l 87 347 l 87 521 l 0 521 m 347 87 l 260 87 l 260 -174 l 347 -174 l 347 87 z "},"δ":{"ha":694,"x_min":87,"x_max":608,"o":"m 174 87 l 87 87 l 87 434 l 174 434 l 174 521 l 347 521 l 347 608 l 260 608 l 260 694 l 174 694 l 174 781 l 260 781 l 260 868 l 608 868 l 608 781 l 347 781 l 347 694 l 434 694 l 434 608 l 521 608 l 521 521 l 608 521 l 608 87 l 521 87 l 521 0 l 174 0 l 174 87 m 260 87 l 434 87 l 434 434 l 260 434 l 260 87 z "},"ε":{"ha":694,"x_min":87,"x_max":608,"o":"m 87 87 l 87 260 l 174 260 l 174 347 l 87 347 l 87 521 l 174 521 l 174 608 l 608 608 l 608 521 l 260 521 l 260 347 l 434 347 l 434 260 l 260 260 l 260 87 l 608 87 l 608 0 l 174 0 l 174 87 l 87 87 z "},"ζ":{"ha":694,"x_min":0,"x_max":608,"o":"m 0 174 l 0 521 l 87 521 l 87 608 l 174 608 l 174 694 l 87 694 l 87 781 l 0 781 l 0 868 l 174 868 l 174 781 l 521 781 l 521 694 l 347 694 l 347 608 l 260 608 l 260 521 l 174 521 l 174 174 l 260 174 l 260 87 l 521 87 l 521 0 l 608 0 l 608 -87 l 521 -87 l 521 -174 l 260 -174 l 260 -87 l 434 -87 l 434 0 l 174 0 l 174 87 l 87 87 l 87 174 l 0 174 z "},"η":{"ha":694,"x_min":0,"x_max":608,"o":"m 0 521 l 0 608 l 174 608 l 174 521 l 260 521 l 260 0 l 87 0 l 87 521 l 0 521 m 260 521 l 260 608 l 521 608 l 521 521 l 608 521 l 608 -260 l 434 -260 l 434 521 l 260 521 z "},"θ":{"ha":694,"x_min":0,"x_max":608,"o":"m 0 260 l 0 347 l 174 347 l 174 260 l 260 260 l 260 87 l 434 87 l 434 347 l 260 347 l 260 434 l 174 434 l 174 521 l 87 521 l 87 781 l 174 781 l 174 868 l 521 868 l 521 781 l 608 781 l 608 87 l 521 87 l 521 0 l 174 0 l 174 87 l 87 87 l 87 260 l 0 260 m 347 434 l 434 434 l 434 781 l 260 781 l 260 521 l 347 521 l 347 434 z "},"ι":{"ha":694,"x_min":174,"x_max":521,"o":"m 347 87 l 434 87 l 434 0 l 260 0 l 260 87 l 174 87 l 174 608 l 347 608 l 347 87 m 434 87 l 434 174 l 521 174 l 521 87 l 434 87 z "},"κ":{"ha":694,"x_min":0,"x_max":608,"o":"m 0 0 l 0 608 l 174 608 l 174 347 l 260 347 l 260 434 l 347 434 l 347 521 l 434 521 l 434 608 l 608 608 l 608 521 l 521 521 l 521 434 l 434 434 l 434 260 l 521 260 l 521 174 l 608 174 l 608 0 l 434 0 l 434 174 l 347 174 l 347 260 l 260 260 l 260 174 l 174 174 l 174 0 l 0 0 z "},"λ":{"ha":694,"x_min":87,"x_max":608,"o":"m 174 260 l 174 347 l 260 347 l 260 434 l 347 434 l 347 521 l 434 521 l 434 781 l 260 781 l 260 694 l 87 694 l 87 781 l 174 781 l 174 868 l 521 868 l 521 781 l 608 781 l 608 0 l 434 0 l 434 347 l 347 347 l 347 260 l 260 260 l 260 0 l 87 0 l 87 260 l 174 260 z "},"μ":{"ha":694,"x_min":0,"x_max":608,"o":"m 0 -260 l 0 608 l 174 608 l 174 174 l 260 174 l 260 87 l 174 87 l 174 -260 l 0 -260 m 260 87 l 347 87 l 347 608 l 521 608 l 521 87 l 434 87 l 434 0 l 260 0 l 260 87 m 521 87 l 608 87 l 608 0 l 521 0 l 521 87 z "},"ν":{"ha":694,"x_min":0,"x_max":608,"o":"m 0 521 l 0 608 l 260 608 l 260 174 l 347 174 l 347 260 l 434 260 l 434 608 l 608 608 l 608 260 l 521 260 l 521 174 l 434 174 l 434 87 l 347 87 l 347 0 l 174 0 l 174 87 l 87 87 l 87 521 l 0 521 z "},"ξ":{"ha":694,"x_min":0,"x_max":608,"o":"m 0 87 l 0 260 l 87 260 l 87 434 l 0 434 l 0 608 l 87 608 l 87 781 l 0 781 l 0 868 l 174 868 l 174 781 l 521 781 l 521 694 l 260 694 l 260 608 l 174 608 l 174 434 l 521 434 l 521 347 l 260 347 l 260 260 l 174 260 l 174 87 l 521 87 l 521 0 l 608 0 l 608 -87 l 521 -87 l 521 -174 l 260 -174 l 260 -87 l 434 -87 l 434 0 l 87 0 l 87 87 l 0 87 z "},"ο":{"ha":694,"x_min":0,"x_max":608,"o":"m 0 87 l 0 521 l 87 521 l 87 608 l 521 608 l 521 521 l 608 521 l 608 87 l 521 87 l 521 0 l 87 0 l 87 87 l 0 87 m 174 87 l 434 87 l 434 521 l 174 521 l 174 87 z "},"π":{"ha":694,"x_min":0,"x_max":608,"o":"m 347 0 l 347 521 l 260 521 l 260 0 l 87 0 l 87 521 l 0 521 l 0 608 l 608 608 l 608 521 l 521 521 l 521 0 l 347 0 z "},"ρ":{"ha":694,"x_min":0,"x_max":608,"o":"m 0 -260 l 0 521 l 87 521 l 87 608 l 521 608 l 521 521 l 608 521 l 608 87 l 521 87 l 521 0 l 260 0 l 260 87 l 434 87 l 434 521 l 174 521 l 174 174 l 260 174 l 260 87 l 174 87 l 174 -260 l 0 -260 z "},"ς":{"ha":694,"x_min":0,"x_max":608,"o":"m 0 260 l 0 521 l 87 521 l 87 608 l 521 608 l 521 521 l 608 521 l 608 434 l 434 434 l 434 521 l 174 521 l 174 260 l 260 260 l 260 174 l 521 174 l 521 87 l 608 87 l 608 -87 l 521 -87 l 521 -174 l 87 -174 l 87 -87 l 434 -87 l 434 87 l 174 87 l 174 174 l 87 174 l 87 260 l 0 260 z "},"σ":{"ha":694,"x_min":0,"x_max":608,"o":"m 0 87 l 0 521 l 87 521 l 87 608 l 608 608 l 608 521 l 434 521 l 434 434 l 521 434 l 521 87 l 434 87 l 434 0 l 87 0 l 87 87 l 0 87 m 174 87 l 347 87 l 347 521 l 174 521 l 174 87 z "},"τ":{"ha":694,"x_min":87,"x_max":608,"o":"m 87 521 l 87 608 l 608 608 l 608 521 l 434 521 l 434 87 l 521 87 l 521 0 l 347 0 l 347 87 l 260 87 l 260 521 l 87 521 m 521 87 l 521 174 l 608 174 l 608 87 l 521 87 z "},"υ":{"ha":694,"x_min":0,"x_max":608,"o":"m 0 87 l 0 608 l 174 608 l 174 87 l 347 87 l 347 608 l 608 608 l 608 521 l 521 521 l 521 87 l 434 87 l 434 0 l 87 0 l 87 87 l 0 87 z "},"φ":{"ha":694,"x_min":0,"x_max":608,"o":"m 0 87 l 0 434 l 87 434 l 87 521 l 174 521 l 174 87 l 260 87 l 260 608 l 521 608 l 521 521 l 608 521 l 608 87 l 521 87 l 521 0 l 347 0 l 347 -260 l 260 -260 l 260 0 l 87 0 l 87 87 l 0 87 m 347 87 l 434 87 l 434 521 l 347 521 l 347 87 z "},"χ":{"ha":694,"x_min":0,"x_max":608,"o":"m 0 0 l 0 87 l 87 87 l 87 0 l 0 0 m 0 521 l 0 608 l 174 608 l 174 521 l 260 521 l 260 434 l 347 434 l 347 521 l 521 521 l 521 434 l 434 434 l 434 174 l 521 174 l 521 87 l 608 87 l 608 0 l 434 0 l 434 87 l 347 87 l 347 174 l 260 174 l 260 87 l 87 87 l 87 174 l 174 174 l 174 434 l 87 434 l 87 521 l 0 521 m 521 521 l 521 608 l 608 608 l 608 521 l 521 521 z "},"ψ":{"ha":694,"x_min":0,"x_max":608,"o":"m 0 87 l 0 608 l 174 608 l 174 87 l 260 87 l 260 521 l 347 521 l 347 87 l 434 87 l 434 608 l 608 608 l 608 87 l 521 87 l 521 0 l 347 0 l 347 -260 l 260 -260 l 260 0 l 87 0 l 87 87 l 0 87 z "},"ω":{"ha":694,"x_min":0,"x_max":608,"o":"m 0 87 l 0 521 l 87 521 l 87 608 l 174 608 l 174 87 l 260 87 l 260 0 l 87 0 l 87 87 l 0 87 m 260 87 l 260 347 l 347 347 l 347 87 l 260 87 m 347 87 l 434 87 l 434 608 l 521 608 l 521 521 l 608 521 l 608 87 l 521 87 l 521 0 l 347 0 l 347 87 z "},"ϊ":{"ha":694,"x_min":0,"x_max":521,"o":"m 0 781 l 0 868 l 174 868 l 174 781 l 0 781 m 174 87 l 174 608 l 347 608 l 347 87 l 434 87 l 434 0 l 260 0 l 260 87 l 174 87 m 347 781 l 347 868 l 521 868 l 521 781 l 347 781 m 434 87 l 434 174 l 521 174 l 521 87 l 434 87 z "},"ϋ":{"ha":694,"x_min":0,"x_max":608,"o":"m 0 87 l 0 608 l 174 608 l 174 87 l 347 87 l 347 608 l 608 608 l 608 521 l 521 521 l 521 87 l 434 87 l 434 0 l 87 0 l 87 87 l 0 87 m 0 781 l 0 868 l 174 868 l 174 781 l 0 781 m 347 781 l 347 868 l 521 868 l 521 781 l 347 781 z "},"ό":{"ha":694,"x_min":0,"x_max":608,"o":"m 0 87 l 0 521 l 87 521 l 87 608 l 521 608 l 521 521 l 608 521 l 608 87 l 521 87 l 521 0 l 87 0 l 87 87 l 0 87 m 174 87 l 434 87 l 434 521 l 174 521 l 174 87 m 260 694 l 260 781 l 347 781 l 347 868 l 521 868 l 521 781 l 434 781 l 434 694 l 260 694 z "},"ύ":{"ha":694,"x_min":0,"x_max":608,"o":"m 0 87 l 0 608 l 174 608 l 174 87 l 347 87 l 347 608 l 608 608 l 608 521 l 521 521 l 521 87 l 434 87 l 434 0 l 87 0 l 87 87 l 0 87 m 260 694 l 260 781 l 347 781 l 347 868 l 521 868 l 521 781 l 434 781 l 434 694 l 260 694 z "},"ώ":{"ha":694,"x_min":0,"x_max":608,"o":"m 0 87 l 0 521 l 87 521 l 87 608 l 174 608 l 174 87 l 260 87 l 260 0 l 87 0 l 87 87 l 0 87 m 347 87 l 434 87 l 434 608 l 521 608 l 521 521 l 608 521 l 608 87 l 521 87 l 521 0 l 347 0 l 347 87 m 347 347 l 347 87 l 260 87 l 260 347 l 347 347 m 347 781 l 347 868 l 521 868 l 521 781 l 434 781 l 434 694 l 260 694 l 260 781 l 347 781 z "},"ϐ":{"ha":694,"x_min":0,"x_max":608,"o":"m 0 0 l 0 781 l 87 781 l 87 868 l 434 868 l 434 781 l 521 781 l 521 521 l 434 521 l 434 434 l 521 434 l 521 347 l 608 347 l 608 87 l 521 87 l 521 0 l 347 0 l 347 87 l 434 87 l 434 347 l 347 347 l 347 434 l 260 434 l 260 521 l 347 521 l 347 781 l 174 781 l 174 0 l 0 0 z "},"ϴ":{"ha":694,"x_min":0,"x_max":608,"o":"m 0 174 l 0 608 l 87 608 l 87 694 l 174 694 l 174 781 l 434 781 l 434 694 l 521 694 l 521 608 l 608 608 l 608 174 l 521 174 l 521 87 l 434 87 l 434 0 l 174 0 l 174 87 l 87 87 l 87 174 l 0 174 m 174 174 l 260 174 l 260 87 l 347 87 l 347 174 l 434 174 l 434 347 l 174 347 l 174 174 m 174 434 l 434 434 l 434 608 l 347 608 l 347 694 l 260 694 l 260 608 l 174 608 l 174 434 z "},"Ѐ":{"ha":694,"x_min":0,"x_max":608,"o":"m 0 0 l 0 87 l 87 87 l 87 694 l 0 694 l 0 781 l 608 781 l 608 521 l 521 521 l 521 608 l 434 608 l 434 694 l 260 694 l 260 434 l 347 434 l 347 521 l 434 521 l 434 260 l 347 260 l 347 347 l 260 347 l 260 87 l 434 87 l 434 174 l 521 174 l 521 260 l 608 260 l 608 0 l 0 0 m 174 955 l 174 1042 l 347 1042 l 347 955 l 434 955 l 434 868 l 260 868 l 260 955 l 174 955 z "},"Ё":{"ha":694,"x_min":0,"x_max":608,"o":"m 0 0 l 0 87 l 87 87 l 87 694 l 0 694 l 0 781 l 608 781 l 608 521 l 521 521 l 521 608 l 434 608 l 434 694 l 260 694 l 260 434 l 347 434 l 347 521 l 434 521 l 434 260 l 347 260 l 347 347 l 260 347 l 260 87 l 434 87 l 434 174 l 521 174 l 521 260 l 608 260 l 608 0 l 0 0 m 0 868 l 0 955 l 174 955 l 174 868 l 0 868 m 434 955 l 608 955 l 608 868 l 434 868 l 434 955 z "},"Ђ":{"ha":694,"x_min":0,"x_max":608,"o":"m 0 0 l 0 87 l 87 87 l 87 781 l 0 781 l 0 868 l 521 868 l 521 694 l 434 694 l 434 781 l 260 781 l 260 521 l 347 521 l 347 434 l 260 434 l 260 0 l 0 0 m 347 -87 l 347 0 l 434 0 l 434 521 l 347 521 l 347 608 l 521 608 l 521 521 l 608 521 l 608 0 l 521 0 l 521 -87 l 347 -87 z "},"Ѓ":{"ha":694,"x_min":0,"x_max":608,"o":"m 0 0 l 0 87 l 87 87 l 87 694 l 0 694 l 0 781 l 608 781 l 608 521 l 521 521 l 521 608 l 434 608 l 434 694 l 260 694 l 260 87 l 347 87 l 347 0 l 0 0 m 260 955 l 347 955 l 347 1042 l 521 1042 l 521 955 l 434 955 l 434 868 l 260 868 l 260 955 z "},"Є":{"ha":694,"x_min":0,"x_max":608,"o":"m 0 174 l 0 694 l 87 694 l 87 781 l 174 781 l 174 868 l 521 868 l 521 781 l 608 781 l 608 608 l 521 608 l 521 694 l 434 694 l 434 781 l 260 781 l 260 694 l 174 694 l 174 521 l 347 521 l 347 608 l 434 608 l 434 347 l 347 347 l 347 434 l 174 434 l 174 174 l 260 174 l 260 87 l 434 87 l 434 174 l 521 174 l 521 260 l 608 260 l 608 87 l 521 87 l 521 0 l 174 0 l 174 87 l 87 87 l 87 174 l 0 174 z "},"Ѕ":{"ha":694,"x_min":0,"x_max":608,"o":"m 0 87 l 0 260 l 174 260 l 174 87 l 434 87 l 434 347 l 347 347 l 347 434 l 174 434 l 174 521 l 87 521 l 87 608 l 0 608 l 0 781 l 87 781 l 87 868 l 521 868 l 521 781 l 608 781 l 608 608 l 434 608 l 434 781 l 174 781 l 174 608 l 260 608 l 260 521 l 434 521 l 434 434 l 521 434 l 521 347 l 608 347 l 608 87 l 521 87 l 521 0 l 87 0 l 87 87 l 0 87 z "},"І":{"ha":694,"x_min":174,"x_max":521,"o":"m 434 87 l 521 87 l 521 0 l 174 0 l 174 87 l 260 87 l 260 781 l 174 781 l 174 868 l 521 868 l 521 781 l 434 781 l 434 87 z "},"Ї":{"ha":694,"x_min":87,"x_max":608,"o":"m 87 955 l 260 955 l 260 868 l 87 868 l 87 955 m 174 0 l 174 87 l 260 87 l 260 694 l 174 694 l 174 781 l 521 781 l 521 694 l 434 694 l 434 87 l 521 87 l 521 0 l 174 0 m 434 955 l 608 955 l 608 868 l 434 868 l 434 955 z "},"Ј":{"ha":694,"x_min":0,"x_max":608,"o":"m 0 87 l 0 347 l 174 347 l 174 87 l 347 87 l 347 781 l 260 781 l 260 868 l 608 868 l 608 781 l 521 781 l 521 87 l 434 87 l 434 0 l 87 0 l 87 87 l 0 87 z "},"Љ":{"ha":694,"x_min":0,"x_max":608,"o":"m 0 0 l 0 868 l 521 868 l 521 781 l 434 781 l 434 521 l 521 521 l 521 434 l 434 434 l 434 87 l 521 87 l 521 0 l 260 0 l 260 781 l 174 781 l 174 0 l 0 0 m 521 87 l 521 434 l 608 434 l 608 87 l 521 87 z "},"Њ":{"ha":694,"x_min":0,"x_max":608,"o":"m 0 0 l 0 868 l 174 868 l 174 521 l 260 521 l 260 868 l 434 868 l 434 521 l 521 521 l 521 434 l 434 434 l 434 87 l 521 87 l 521 0 l 260 0 l 260 434 l 174 434 l 174 0 l 0 0 m 521 87 l 521 434 l 608 434 l 608 87 l 521 87 z "},"Ћ":{"ha":694,"x_min":0,"x_max":608,"o":"m 0 0 l 0 87 l 87 87 l 87 781 l 0 781 l 0 868 l 521 868 l 521 694 l 434 694 l 434 781 l 260 781 l 260 521 l 521 521 l 521 434 l 608 434 l 608 0 l 434 0 l 434 434 l 260 434 l 260 0 l 0 0 z "},"Ќ":{"ha":694,"x_min":0,"x_max":608,"o":"m 0 0 l 0 87 l 87 87 l 87 694 l 0 694 l 0 781 l 260 781 l 260 434 l 347 434 l 347 521 l 434 521 l 434 781 l 608 781 l 608 521 l 521 521 l 521 434 l 434 434 l 434 347 l 521 347 l 521 260 l 608 260 l 608 0 l 434 0 l 434 260 l 347 260 l 347 347 l 260 347 l 260 0 l 0 0 m 347 955 l 347 1042 l 521 1042 l 521 955 l 434 955 l 434 868 l 260 868 l 260 955 l 347 955 z "},"Ѝ":{"ha":694,"x_min":0,"x_max":608,"o":"m 0 0 l 0 781 l 174 781 l 174 347 l 260 347 l 260 434 l 347 434 l 347 521 l 434 521 l 434 781 l 608 781 l 608 0 l 434 0 l 434 260 l 347 260 l 347 174 l 260 174 l 260 87 l 174 87 l 174 0 l 0 0 m 174 955 l 174 1042 l 347 1042 l 347 955 l 434 955 l 434 868 l 260 868 l 260 955 l 174 955 z "},"Ў":{"ha":694,"x_min":0,"x_max":608,"o":"m 0 87 l 0 174 l 174 174 l 174 87 l 434 87 l 434 347 l 87 347 l 87 434 l 0 434 l 0 781 l 174 781 l 174 434 l 434 434 l 434 781 l 608 781 l 608 87 l 521 87 l 521 0 l 87 0 l 87 87 l 0 87 m 174 868 l 174 955 l 87 955 l 87 1042 l 260 1042 l 260 955 l 347 955 l 347 1042 l 521 1042 l 521 955 l 434 955 l 434 868 l 174 868 z "},"Џ":{"ha":694,"x_min":0,"x_max":608,"o":"m 0 0 l 0 87 l 87 87 l 87 781 l 0 781 l 0 868 l 260 868 l 260 87 l 347 87 l 347 868 l 608 868 l 608 781 l 521 781 l 521 87 l 608 87 l 608 0 l 347 0 l 347 -174 l 260 -174 l 260 0 l 0 0 z "},"А":{"ha":694,"x_min":0,"x_max":608,"o":"m 0 0 l 0 608 l 87 608 l 87 694 l 174 694 l 174 781 l 260 781 l 260 868 l 347 868 l 347 781 l 434 781 l 434 694 l 521 694 l 521 608 l 608 608 l 608 0 l 434 0 l 434 347 l 174 347 l 174 0 l 0 0 m 174 434 l 434 434 l 434 608 l 347 608 l 347 694 l 260 694 l 260 608 l 174 608 l 174 434 z "},"Б":{"ha":694,"x_min":0,"x_max":608,"o":"m 0 0 l 0 87 l 87 87 l 87 781 l 0 781 l 0 868 l 608 868 l 608 608 l 521 608 l 521 694 l 434 694 l 434 781 l 260 781 l 260 521 l 521 521 l 521 434 l 608 434 l 608 87 l 521 87 l 521 0 l 0 0 m 260 87 l 434 87 l 434 434 l 260 434 l 260 87 z "},"В":{"ha":694,"x_min":0,"x_max":608,"o":"m 0 0 l 0 87 l 87 87 l 87 781 l 0 781 l 0 868 l 521 868 l 521 781 l 608 781 l 608 521 l 521 521 l 521 434 l 608 434 l 608 87 l 521 87 l 521 0 l 0 0 m 260 87 l 434 87 l 434 434 l 260 434 l 260 87 m 260 521 l 434 521 l 434 781 l 260 781 l 260 521 z "},"Г":{"ha":694,"x_min":0,"x_max":608,"o":"m 0 0 l 0 87 l 87 87 l 87 781 l 0 781 l 0 868 l 608 868 l 608 608 l 521 608 l 521 694 l 434 694 l 434 781 l 260 781 l 260 87 l 347 87 l 347 0 l 0 0 z "},"Д":{"ha":694,"x_min":0,"x_max":694,"o":"m 0 87 l 87 87 l 87 694 l 174 694 l 174 781 l 260 781 l 260 868 l 608 868 l 608 87 l 694 87 l 694 -174 l 608 -174 l 608 -87 l 521 -87 l 521 0 l 174 0 l 174 -87 l 87 -87 l 87 -174 l 0 -174 l 0 87 m 347 781 l 347 694 l 260 694 l 260 87 l 434 87 l 434 781 l 347 781 z "},"Е":{"ha":694,"x_min":0,"x_max":608,"o":"m 0 0 l 0 87 l 87 87 l 87 781 l 0 781 l 0 868 l 608 868 l 608 608 l 521 608 l 521 694 l 434 694 l 434 781 l 260 781 l 260 521 l 347 521 l 347 608 l 434 608 l 434 347 l 347 347 l 347 434 l 260 434 l 260 87 l 434 87 l 434 174 l 521 174 l 521 260 l 608 260 l 608 0 l 0 0 z "},"Ж":{"ha":694,"x_min":0,"x_max":608,"o":"m 0 0 l 0 347 l 87 347 l 87 434 l 174 434 l 174 521 l 87 521 l 87 608 l 0 608 l 0 868 l 174 868 l 174 608 l 260 608 l 260 868 l 347 868 l 347 608 l 434 608 l 434 868 l 608 868 l 608 608 l 521 608 l 521 521 l 434 521 l 434 434 l 521 434 l 521 347 l 608 347 l 608 0 l 434 0 l 434 347 l 347 347 l 347 0 l 260 0 l 260 347 l 174 347 l 174 0 l 0 0 z "},"З":{"ha":694,"x_min":0,"x_max":608,"o":"m 0 87 l 0 260 l 87 260 l 87 174 l 174 174 l 174 87 l 434 87 l 434 434 l 174 434 l 174 521 l 434 521 l 434 781 l 174 781 l 174 694 l 87 694 l 87 608 l 0 608 l 0 781 l 87 781 l 87 868 l 521 868 l 521 781 l 608 781 l 608 521 l 521 521 l 521 434 l 608 434 l 608 87 l 521 87 l 521 0 l 87 0 l 87 87 l 0 87 z "},"И":{"ha":694,"x_min":0,"x_max":608,"o":"m 0 0 l 0 868 l 174 868 l 174 434 l 260 434 l 260 521 l 347 521 l 347 608 l 434 608 l 434 868 l 608 868 l 608 0 l 434 0 l 434 347 l 347 347 l 347 260 l 260 260 l 260 174 l 174 174 l 174 0 l 0 0 z "},"Й":{"ha":694,"x_min":0,"x_max":608,"o":"m 0 0 l 0 781 l 174 781 l 174 347 l 260 347 l 260 434 l 347 434 l 347 521 l 434 521 l 434 781 l 608 781 l 608 0 l 434 0 l 434 260 l 347 260 l 347 174 l 260 174 l 260 87 l 174 87 l 174 0 l 0 0 m 174 868 l 174 955 l 87 955 l 87 1042 l 260 1042 l 260 955 l 347 955 l 347 1042 l 521 1042 l 521 955 l 434 955 l 434 868 l 174 868 z "},"К":{"ha":694,"x_min":0,"x_max":608,"o":"m 0 0 l 0 87 l 87 87 l 87 781 l 0 781 l 0 868 l 260 868 l 260 521 l 347 521 l 347 608 l 434 608 l 434 868 l 608 868 l 608 608 l 521 608 l 521 521 l 434 521 l 434 347 l 521 347 l 521 260 l 608 260 l 608 0 l 434 0 l 434 260 l 347 260 l 347 347 l 260 347 l 260 0 l 0 0 z "},"Л":{"ha":694,"x_min":0,"x_max":608,"o":"m 0 0 l 0 87 l 87 87 l 87 694 l 174 694 l 174 781 l 260 781 l 260 868 l 608 868 l 608 0 l 434 0 l 434 781 l 347 781 l 347 694 l 260 694 l 260 87 l 174 87 l 174 0 l 0 0 z "},"М":{"ha":694,"x_min":0,"x_max":608,"o":"m 0 0 l 0 868 l 174 868 l 174 781 l 260 781 l 260 694 l 347 694 l 347 781 l 434 781 l 434 868 l 608 868 l 608 0 l 434 0 l 434 521 l 347 521 l 347 434 l 260 434 l 260 521 l 174 521 l 174 0 l 0 0 z "},"Н":{"ha":694,"x_min":0,"x_max":608,"o":"m 0 0 l 0 868 l 174 868 l 174 521 l 434 521 l 434 868 l 608 868 l 608 0 l 434 0 l 434 434 l 174 434 l 174 0 l 0 0 z "},"О":{"ha":694,"x_min":0,"x_max":608,"o":"m 0 87 l 0 781 l 87 781 l 87 868 l 521 868 l 521 781 l 608 781 l 608 87 l 521 87 l 521 0 l 87 0 l 87 87 l 0 87 m 174 87 l 434 87 l 434 781 l 174 781 l 174 87 z "},"П":{"ha":694,"x_min":0,"x_max":608,"o":"m 0 0 l 0 868 l 608 868 l 608 0 l 434 0 l 434 781 l 174 781 l 174 0 l 0 0 z "},"Р":{"ha":694,"x_min":0,"x_max":608,"o":"m 0 0 l 0 87 l 87 87 l 87 781 l 0 781 l 0 868 l 521 868 l 521 781 l 608 781 l 608 521 l 521 521 l 521 434 l 260 434 l 260 87 l 347 87 l 347 0 l 0 0 m 260 521 l 434 521 l 434 781 l 260 781 l 260 521 z "},"С":{"ha":694,"x_min":0,"x_max":608,"o":"m 0 174 l 0 694 l 87 694 l 87 781 l 174 781 l 174 868 l 521 868 l 521 781 l 608 781 l 608 608 l 521 608 l 521 694 l 434 694 l 434 781 l 260 781 l 260 694 l 174 694 l 174 174 l 260 174 l 260 87 l 434 87 l 434 174 l 521 174 l 521 260 l 608 260 l 608 87 l 521 87 l 521 0 l 174 0 l 174 87 l 87 87 l 87 174 l 0 174 z "},"Т":{"ha":694,"x_min":87,"x_max":608,"o":"m 87 608 l 87 868 l 608 868 l 608 608 l 521 608 l 521 694 l 434 694 l 434 87 l 521 87 l 521 0 l 174 0 l 174 87 l 260 87 l 260 694 l 174 694 l 174 608 l 87 608 z "},"У":{"ha":694,"x_min":0,"x_max":608,"o":"m 0 87 l 0 174 l 174 174 l 174 87 l 434 87 l 434 347 l 87 347 l 87 434 l 0 434 l 0 868 l 174 868 l 174 434 l 434 434 l 434 868 l 608 868 l 608 87 l 521 87 l 521 0 l 87 0 l 87 87 l 0 87 z "},"Ф":{"ha":694,"x_min":0,"x_max":608,"o":"m 0 260 l 0 608 l 87 608 l 87 694 l 260 694 l 260 781 l 174 781 l 174 868 l 434 868 l 434 781 l 347 781 l 347 694 l 521 694 l 521 608 l 608 608 l 608 260 l 521 260 l 521 174 l 347 174 l 347 87 l 434 87 l 434 0 l 174 0 l 174 87 l 260 87 l 260 174 l 87 174 l 87 260 l 0 260 m 174 260 l 260 260 l 260 608 l 174 608 l 174 260 m 347 260 l 434 260 l 434 608 l 347 608 l 347 260 z "},"Х":{"ha":694,"x_min":0,"x_max":608,"o":"m 0 174 l 87 174 l 87 347 l 174 347 l 174 521 l 87 521 l 87 694 l 0 694 l 0 868 l 174 868 l 174 694 l 260 694 l 260 608 l 347 608 l 347 694 l 434 694 l 434 868 l 608 868 l 608 694 l 521 694 l 521 521 l 434 521 l 434 347 l 521 347 l 521 174 l 608 174 l 608 0 l 434 0 l 434 174 l 347 174 l 347 260 l 260 260 l 260 174 l 174 174 l 174 0 l 0 0 l 0 174 z "},"Ц":{"ha":694,"x_min":0,"x_max":608,"o":"m 0 0 l 0 868 l 174 868 l 174 87 l 347 87 l 347 868 l 521 868 l 521 87 l 608 87 l 608 -174 l 521 -174 l 521 -87 l 434 -87 l 434 0 l 0 0 z "},"Ч":{"ha":694,"x_min":0,"x_max":608,"o":"m 0 434 l 0 868 l 174 868 l 174 434 l 434 434 l 434 868 l 608 868 l 608 0 l 434 0 l 434 347 l 87 347 l 87 434 l 0 434 z "},"Ш":{"ha":694,"x_min":0,"x_max":608,"o":"m 0 0 l 0 868 l 174 868 l 174 87 l 260 87 l 260 868 l 347 868 l 347 87 l 434 87 l 434 868 l 608 868 l 608 0 l 0 0 z "},"Щ":{"ha":694,"x_min":0,"x_max":694,"o":"m 0 0 l 0 868 l 174 868 l 174 87 l 260 87 l 260 868 l 347 868 l 347 87 l 434 87 l 434 868 l 608 868 l 608 87 l 694 87 l 694 -174 l 608 -174 l 608 -87 l 521 -87 l 521 0 l 0 0 z "},"Ъ":{"ha":694,"x_min":0,"x_max":608,"o":"m 0 608 l 0 868 l 347 868 l 347 521 l 521 521 l 521 434 l 608 434 l 608 87 l 521 87 l 521 0 l 87 0 l 87 87 l 174 87 l 174 781 l 87 781 l 87 608 l 0 608 m 347 87 l 434 87 l 434 434 l 347 434 l 347 87 z "},"Ы":{"ha":694,"x_min":0,"x_max":608,"o":"m 0 0 l 0 868 l 174 868 l 174 521 l 260 521 l 260 434 l 174 434 l 174 87 l 260 87 l 260 0 l 0 0 m 260 87 l 260 434 l 347 434 l 347 87 l 260 87 m 434 0 l 434 868 l 608 868 l 608 0 l 434 0 z "},"Ь":{"ha":694,"x_min":0,"x_max":608,"o":"m 0 0 l 0 87 l 87 87 l 87 781 l 0 781 l 0 868 l 347 868 l 347 781 l 260 781 l 260 521 l 521 521 l 521 434 l 608 434 l 608 87 l 521 87 l 521 0 l 0 0 m 260 87 l 434 87 l 434 434 l 260 434 l 260 87 z "},"Э":{"ha":694,"x_min":0,"x_max":608,"o":"m 0 87 l 0 260 l 87 260 l 87 174 l 174 174 l 174 87 l 347 87 l 347 174 l 434 174 l 434 434 l 260 434 l 260 347 l 174 347 l 174 608 l 260 608 l 260 521 l 434 521 l 434 694 l 347 694 l 347 781 l 174 781 l 174 694 l 87 694 l 87 608 l 0 608 l 0 781 l 87 781 l 87 868 l 434 868 l 434 781 l 521 781 l 521 694 l 608 694 l 608 174 l 521 174 l 521 87 l 434 87 l 434 0 l 87 0 l 87 87 l 0 87 z "},"Ю":{"ha":694,"x_min":0,"x_max":608,"o":"m 0 0 l 0 868 l 174 868 l 174 521 l 260 521 l 260 781 l 347 781 l 347 87 l 260 87 l 260 434 l 174 434 l 174 0 l 0 0 m 347 87 l 434 87 l 434 781 l 347 781 l 347 868 l 521 868 l 521 781 l 608 781 l 608 87 l 521 87 l 521 0 l 347 0 l 347 87 z "},"Я":{"ha":694,"x_min":0,"x_max":608,"o":"m 0 0 l 0 347 l 87 347 l 87 521 l 0 521 l 0 781 l 87 781 l 87 868 l 608 868 l 608 781 l 521 781 l 521 87 l 608 87 l 608 0 l 347 0 l 347 434 l 260 434 l 260 347 l 174 347 l 174 0 l 0 0 m 174 521 l 347 521 l 347 781 l 174 781 l 174 521 z "},"а":{"ha":694,"x_min":0,"x_max":608,"o":"m 0 87 l 0 347 l 87 347 l 87 434 l 347 434 l 347 521 l 87 521 l 87 608 l 434 608 l 434 521 l 521 521 l 521 87 l 608 87 l 608 0 l 434 0 l 434 87 l 347 87 l 347 347 l 174 347 l 174 87 l 347 87 l 347 0 l 87 0 l 87 87 l 0 87 z "},"б":{"ha":694,"x_min":0,"x_max":608,"o":"m 0 87 l 0 608 l 87 608 l 87 694 l 347 694 l 347 781 l 521 781 l 521 694 l 434 694 l 434 608 l 174 608 l 174 434 l 521 434 l 521 347 l 608 347 l 608 87 l 521 87 l 521 0 l 87 0 l 87 87 l 0 87 m 174 87 l 434 87 l 434 347 l 174 347 l 174 87 z "},"в":{"ha":694,"x_min":0,"x_max":608,"o":"m 0 0 l 0 87 l 87 87 l 87 521 l 0 521 l 0 608 l 521 608 l 521 521 l 608 521 l 608 347 l 521 347 l 521 260 l 608 260 l 608 87 l 521 87 l 521 0 l 0 0 m 260 87 l 434 87 l 434 260 l 260 260 l 260 87 m 260 347 l 434 347 l 434 521 l 260 521 l 260 347 z "},"г":{"ha":694,"x_min":0,"x_max":608,"o":"m 0 0 l 0 87 l 87 87 l 87 521 l 0 521 l 0 608 l 608 608 l 608 347 l 521 347 l 521 434 l 434 434 l 434 521 l 260 521 l 260 87 l 347 87 l 347 0 l 0 0 z "},"д":{"ha":694,"x_min":0,"x_max":608,"o":"m 0 -174 l 0 347 l 87 347 l 87 434 l 174 434 l 174 608 l 521 608 l 521 87 l 608 87 l 608 -174 l 521 -174 l 521 -87 l 434 -87 l 434 0 l 174 0 l 174 -87 l 87 -87 l 87 -174 l 0 -174 m 174 87 l 347 87 l 347 434 l 260 434 l 260 347 l 174 347 l 174 87 z "},"е":{"ha":694,"x_min":0,"x_max":608,"o":"m 0 87 l 0 521 l 87 521 l 87 608 l 521 608 l 521 521 l 608 521 l 608 347 l 174 347 l 174 87 l 434 87 l 434 174 l 608 174 l 608 87 l 521 87 l 521 0 l 87 0 l 87 87 l 0 87 m 174 434 l 434 434 l 434 521 l 174 521 l 174 434 z "},"ж":{"ha":694,"x_min":0,"x_max":608,"o":"m 0 0 l 0 260 l 87 260 l 87 347 l 0 347 l 0 608 l 174 608 l 174 347 l 260 347 l 260 608 l 347 608 l 347 347 l 434 347 l 434 608 l 608 608 l 608 347 l 521 347 l 521 260 l 608 260 l 608 0 l 434 0 l 434 260 l 347 260 l 347 0 l 260 0 l 260 260 l 174 260 l 174 0 l 0 0 z "},"з":{"ha":694,"x_min":0,"x_max":608,"o":"m 0 87 l 0 174 l 174 174 l 174 87 l 434 87 l 434 260 l 260 260 l 260 347 l 434 347 l 434 521 l 174 521 l 174 434 l 0 434 l 0 521 l 87 521 l 87 608 l 521 608 l 521 521 l 608 521 l 608 347 l 521 347 l 521 260 l 608 260 l 608 87 l 521 87 l 521 0 l 87 0 l 87 87 l 0 87 z "},"и":{"ha":694,"x_min":0,"x_max":608,"o":"m 0 0 l 0 608 l 174 608 l 174 260 l 260 260 l 260 347 l 347 347 l 347 434 l 434 434 l 434 608 l 608 608 l 608 0 l 434 0 l 434 260 l 347 260 l 347 174 l 260 174 l 260 87 l 174 87 l 174 0 l 0 0 z "},"й":{"ha":694,"x_min":0,"x_max":608,"o":"m 0 0 l 0 608 l 174 608 l 174 260 l 260 260 l 260 347 l 347 347 l 347 434 l 434 434 l 434 608 l 608 608 l 608 0 l 434 0 l 434 260 l 347 260 l 347 174 l 260 174 l 260 87 l 174 87 l 174 0 l 0 0 m 174 781 l 87 781 l 87 868 l 260 868 l 260 781 l 347 781 l 347 868 l 521 868 l 521 781 l 434 781 l 434 694 l 174 694 l 174 781 z "},"к":{"ha":694,"x_min":0,"x_max":608,"o":"m 0 0 l 0 87 l 87 87 l 87 521 l 0 521 l 0 608 l 260 608 l 260 347 l 347 347 l 347 434 l 434 434 l 434 608 l 608 608 l 608 434 l 521 434 l 521 347 l 434 347 l 434 260 l 521 260 l 521 174 l 608 174 l 608 0 l 434 0 l 434 174 l 347 174 l 347 260 l 260 260 l 260 0 l 0 0 z "},"л":{"ha":694,"x_min":0,"x_max":608,"o":"m 0 0 l 0 87 l 87 87 l 87 434 l 174 434 l 174 521 l 260 521 l 260 608 l 608 608 l 608 0 l 434 0 l 434 521 l 347 521 l 347 434 l 260 434 l 260 87 l 174 87 l 174 0 l 0 0 z "},"м":{"ha":694,"x_min":0,"x_max":608,"o":"m 0 0 l 0 608 l 174 608 l 174 521 l 260 521 l 260 434 l 347 434 l 347 521 l 434 521 l 434 608 l 608 608 l 608 0 l 434 0 l 434 347 l 347 347 l 347 174 l 260 174 l 260 347 l 174 347 l 174 0 l 0 0 z "},"н":{"ha":694,"x_min":0,"x_max":608,"o":"m 0 0 l 0 608 l 174 608 l 174 347 l 434 347 l 434 608 l 608 608 l 608 0 l 434 0 l 434 260 l 174 260 l 174 0 l 0 0 z "},"о":{"ha":694,"x_min":0,"x_max":608,"o":"m 0 87 l 0 521 l 87 521 l 87 608 l 521 608 l 521 521 l 608 521 l 608 87 l 521 87 l 521 0 l 87 0 l 87 87 l 0 87 m 174 87 l 434 87 l 434 521 l 174 521 l 174 87 z "},"п":{"ha":694,"x_min":0,"x_max":608,"o":"m 0 0 l 0 608 l 608 608 l 608 0 l 434 0 l 434 521 l 174 521 l 174 0 l 0 0 z "},"р":{"ha":694,"x_min":0,"x_max":608,"o":"m 0 -174 l 87 -174 l 87 521 l 0 521 l 0 608 l 174 608 l 174 521 l 260 521 l 260 87 l 434 87 l 434 521 l 260 521 l 260 608 l 521 608 l 521 521 l 608 521 l 608 87 l 521 87 l 521 0 l 260 0 l 260 -174 l 347 -174 l 347 -260 l 0 -260 l 0 -174 z "},"с":{"ha":694,"x_min":0,"x_max":608,"o":"m 0 87 l 0 521 l 87 521 l 87 608 l 521 608 l 521 521 l 608 521 l 608 434 l 434 434 l 434 521 l 174 521 l 174 87 l 434 87 l 434 174 l 608 174 l 608 87 l 521 87 l 521 0 l 87 0 l 87 87 l 0 87 z "},"т":{"ha":694,"x_min":87,"x_max":608,"o":"m 87 434 l 87 608 l 608 608 l 608 434 l 521 434 l 521 521 l 434 521 l 434 87 l 521 87 l 521 0 l 174 0 l 174 87 l 260 87 l 260 521 l 174 521 l 174 434 l 87 434 z "},"у":{"ha":694,"x_min":0,"x_max":608,"o":"m 0 87 l 0 608 l 174 608 l 174 87 l 434 87 l 434 608 l 608 608 l 608 -87 l 521 -87 l 521 -174 l 434 -174 l 434 -260 l 0 -260 l 0 -174 l 347 -174 l 347 -87 l 434 -87 l 434 0 l 87 0 l 87 87 l 0 87 z "},"ф":{"ha":694,"x_min":0,"x_max":608,"o":"m 0 87 l 0 521 l 87 521 l 87 608 l 260 608 l 260 868 l 347 868 l 347 608 l 521 608 l 521 521 l 608 521 l 608 87 l 521 87 l 521 0 l 347 0 l 347 -260 l 260 -260 l 260 0 l 87 0 l 87 87 l 0 87 m 174 87 l 260 87 l 260 521 l 174 521 l 174 87 m 347 87 l 434 87 l 434 521 l 347 521 l 347 87 z "},"х":{"ha":694,"x_min":0,"x_max":608,"o":"m 0 0 l 0 87 l 87 87 l 87 174 l 174 174 l 174 434 l 87 434 l 87 521 l 0 521 l 0 608 l 174 608 l 174 521 l 260 521 l 260 434 l 347 434 l 347 521 l 434 521 l 434 608 l 608 608 l 608 521 l 521 521 l 521 434 l 434 434 l 434 174 l 521 174 l 521 87 l 608 87 l 608 0 l 434 0 l 434 87 l 347 87 l 347 174 l 260 174 l 260 87 l 174 87 l 174 0 l 0 0 z "},"ц":{"ha":694,"x_min":0,"x_max":608,"o":"m 0 0 l 0 608 l 174 608 l 174 87 l 347 87 l 347 608 l 521 608 l 521 87 l 608 87 l 608 -174 l 521 -174 l 521 -87 l 434 -87 l 434 0 l 0 0 z "},"ч":{"ha":694,"x_min":0,"x_max":608,"o":"m 0 347 l 0 608 l 174 608 l 174 347 l 434 347 l 434 608 l 608 608 l 608 0 l 434 0 l 434 260 l 87 260 l 87 347 l 0 347 z "},"ш":{"ha":694,"x_min":0,"x_max":608,"o":"m 0 0 l 0 608 l 174 608 l 174 87 l 260 87 l 260 608 l 347 608 l 347 87 l 434 87 l 434 608 l 608 608 l 608 0 l 0 0 z "},"щ":{"ha":694,"x_min":0,"x_max":694,"o":"m 0 0 l 0 608 l 174 608 l 174 87 l 260 87 l 260 608 l 347 608 l 347 87 l 434 87 l 434 608 l 608 608 l 608 87 l 694 87 l 694 -174 l 608 -174 l 608 -87 l 521 -87 l 521 0 l 0 0 z "},"ъ":{"ha":694,"x_min":0,"x_max":608,"o":"m 0 434 l 0 608 l 347 608 l 347 347 l 521 347 l 521 260 l 608 260 l 608 87 l 521 87 l 521 0 l 87 0 l 87 87 l 174 87 l 174 521 l 87 521 l 87 434 l 0 434 m 347 87 l 434 87 l 434 260 l 347 260 l 347 87 z "},"ы":{"ha":694,"x_min":0,"x_max":608,"o":"m 0 0 l 0 608 l 174 608 l 174 347 l 260 347 l 260 260 l 174 260 l 174 87 l 260 87 l 260 0 l 0 0 m 260 87 l 260 260 l 347 260 l 347 87 l 260 87 m 434 0 l 434 608 l 608 608 l 608 0 l 434 0 z "},"ь":{"ha":694,"x_min":87,"x_max":608,"o":"m 87 0 l 87 87 l 174 87 l 174 521 l 87 521 l 87 608 l 434 608 l 434 521 l 347 521 l 347 347 l 521 347 l 521 260 l 608 260 l 608 87 l 521 87 l 521 0 l 87 0 m 347 87 l 434 87 l 434 260 l 347 260 l 347 87 z "},"э":{"ha":694,"x_min":0,"x_max":608,"o":"m 0 87 l 0 174 l 174 174 l 174 87 l 434 87 l 434 347 l 260 347 l 260 434 l 434 434 l 434 521 l 174 521 l 174 434 l 0 434 l 0 521 l 87 521 l 87 608 l 521 608 l 521 521 l 608 521 l 608 87 l 521 87 l 521 0 l 87 0 l 87 87 l 0 87 z "},"ю":{"ha":694,"x_min":0,"x_max":608,"o":"m 0 0 l 0 608 l 174 608 l 174 347 l 260 347 l 260 521 l 347 521 l 347 87 l 260 87 l 260 260 l 174 260 l 174 0 l 0 0 m 347 87 l 434 87 l 434 521 l 347 521 l 347 608 l 521 608 l 521 521 l 608 521 l 608 87 l 521 87 l 521 0 l 347 0 l 347 87 z "},"я":{"ha":694,"x_min":0,"x_max":608,"o":"m 0 0 l 0 87 l 87 87 l 87 260 l 174 260 l 174 347 l 87 347 l 87 521 l 174 521 l 174 608 l 608 608 l 608 521 l 521 521 l 521 87 l 608 87 l 608 0 l 347 0 l 347 260 l 260 260 l 260 0 l 0 0 m 260 347 l 347 347 l 347 521 l 260 521 l 260 347 z "},"ѐ":{"ha":694,"x_min":0,"x_max":608,"o":"m 0 87 l 0 521 l 87 521 l 87 608 l 521 608 l 521 521 l 608 521 l 608 347 l 174 347 l 174 87 l 434 87 l 434 174 l 608 174 l 608 87 l 521 87 l 521 0 l 87 0 l 87 87 l 0 87 m 174 434 l 434 434 l 434 521 l 174 521 l 174 434 m 174 868 l 87 868 l 87 955 l 260 955 l 260 868 l 347 868 l 347 781 l 434 781 l 434 694 l 260 694 l 260 781 l 174 781 l 174 868 z "},"ё":{"ha":694,"x_min":0,"x_max":608,"o":"m 0 87 l 0 521 l 87 521 l 87 608 l 521 608 l 521 521 l 608 521 l 608 347 l 174 347 l 174 87 l 434 87 l 434 174 l 608 174 l 608 87 l 521 87 l 521 0 l 87 0 l 87 87 l 0 87 m 0 781 l 0 868 l 174 868 l 174 781 l 0 781 m 174 434 l 434 434 l 434 521 l 174 521 l 174 434 m 434 781 l 434 868 l 608 868 l 608 781 l 434 781 z "},"ђ":{"ha":694,"x_min":0,"x_max":608,"o":"m 0 0 l 0 87 l 87 87 l 87 694 l 0 694 l 0 781 l 87 781 l 87 868 l 260 868 l 260 781 l 434 781 l 434 694 l 260 694 l 260 521 l 347 521 l 347 434 l 260 434 l 260 0 l 0 0 m 347 -174 l 434 -174 l 434 521 l 347 521 l 347 608 l 521 608 l 521 521 l 608 521 l 608 -174 l 521 -174 l 521 -260 l 347 -260 l 347 -174 z "},"ѓ":{"ha":694,"x_min":0,"x_max":608,"o":"m 0 0 l 0 87 l 87 87 l 87 521 l 0 521 l 0 608 l 608 608 l 608 347 l 521 347 l 521 434 l 434 434 l 434 521 l 260 521 l 260 87 l 347 87 l 347 0 l 0 0 m 174 694 l 174 781 l 260 781 l 260 868 l 347 868 l 347 955 l 521 955 l 521 868 l 434 868 l 434 781 l 347 781 l 347 694 l 174 694 z "},"є":{"ha":694,"x_min":0,"x_max":608,"o":"m 0 87 l 0 521 l 87 521 l 87 608 l 521 608 l 521 521 l 608 521 l 608 434 l 434 434 l 434 521 l 174 521 l 174 347 l 434 347 l 434 260 l 174 260 l 174 87 l 434 87 l 434 174 l 608 174 l 608 87 l 521 87 l 521 0 l 87 0 l 87 87 l 0 87 z "},"ѕ":{"ha":694,"x_min":0,"x_max":608,"o":"m 0 87 l 0 174 l 174 174 l 174 87 l 434 87 l 434 174 l 347 174 l 347 260 l 174 260 l 174 347 l 87 347 l 87 434 l 0 434 l 0 521 l 87 521 l 87 608 l 521 608 l 521 521 l 608 521 l 608 434 l 434 434 l 434 521 l 174 521 l 174 434 l 260 434 l 260 347 l 434 347 l 434 260 l 521 260 l 521 174 l 608 174 l 608 87 l 521 87 l 521 0 l 87 0 l 87 87 l 0 87 z "},"і":{"ha":694,"x_min":174,"x_max":521,"o":"m 174 0 l 174 87 l 260 87 l 260 521 l 174 521 l 174 608 l 434 608 l 434 87 l 521 87 l 521 0 l 174 0 m 260 868 l 434 868 l 434 694 l 260 694 l 260 868 z "},"ї":{"ha":694,"x_min":87,"x_max":608,"o":"m 87 781 l 87 868 l 260 868 l 260 781 l 87 781 m 174 0 l 174 87 l 260 87 l 260 521 l 174 521 l 174 608 l 434 608 l 434 87 l 521 87 l 521 0 l 174 0 m 434 781 l 434 868 l 608 868 l 608 781 l 434 781 z "},"ј":{"ha":694,"x_min":0,"x_max":521,"o":"m 0 0 l 174 0 l 174 -174 l 347 -174 l 347 521 l 260 521 l 260 608 l 521 608 l 521 -174 l 434 -174 l 434 -260 l 87 -260 l 87 -174 l 0 -174 l 0 0 m 347 868 l 521 868 l 521 694 l 347 694 l 347 868 z "},"љ":{"ha":694,"x_min":0,"x_max":608,"o":"m 0 0 l 0 608 l 521 608 l 521 521 l 434 521 l 434 347 l 521 347 l 521 260 l 434 260 l 434 87 l 521 87 l 521 0 l 260 0 l 260 521 l 174 521 l 174 0 l 0 0 m 521 87 l 521 260 l 608 260 l 608 87 l 521 87 z "},"њ":{"ha":694,"x_min":0,"x_max":608,"o":"m 0 0 l 0 608 l 174 608 l 174 347 l 260 347 l 260 608 l 434 608 l 434 347 l 521 347 l 521 260 l 434 260 l 434 87 l 521 87 l 521 0 l 260 0 l 260 260 l 174 260 l 174 0 l 0 0 m 521 87 l 521 260 l 608 260 l 608 87 l 521 87 z "},"ћ":{"ha":694,"x_min":0,"x_max":608,"o":"m 0 0 l 0 87 l 87 87 l 87 694 l 0 694 l 0 781 l 87 781 l 87 868 l 260 868 l 260 781 l 434 781 l 434 694 l 260 694 l 260 608 l 521 608 l 521 521 l 608 521 l 608 0 l 434 0 l 434 521 l 260 521 l 260 0 l 0 0 z "},"ќ":{"ha":694,"x_min":0,"x_max":608,"o":"m 0 0 l 0 87 l 87 87 l 87 521 l 0 521 l 0 608 l 260 608 l 260 347 l 347 347 l 347 434 l 434 434 l 434 608 l 608 608 l 608 434 l 521 434 l 521 347 l 434 347 l 434 260 l 521 260 l 521 174 l 608 174 l 608 0 l 434 0 l 434 174 l 347 174 l 347 260 l 260 260 l 260 0 l 0 0 m 174 694 l 174 781 l 260 781 l 260 868 l 347 868 l 347 955 l 521 955 l 521 868 l 434 868 l 434 781 l 347 781 l 347 694 l 174 694 z "},"ѝ":{"ha":694,"x_min":0,"x_max":608,"o":"m 0 0 l 0 608 l 174 608 l 174 260 l 260 260 l 260 347 l 347 347 l 347 434 l 434 434 l 434 608 l 608 608 l 608 0 l 434 0 l 434 260 l 347 260 l 347 174 l 260 174 l 260 87 l 174 87 l 174 0 l 0 0 m 174 868 l 87 868 l 87 955 l 260 955 l 260 868 l 347 868 l 347 781 l 434 781 l 434 694 l 260 694 l 260 781 l 174 781 l 174 868 z "},"ў":{"ha":694,"x_min":0,"x_max":608,"o":"m 0 87 l 0 608 l 174 608 l 174 87 l 434 87 l 434 608 l 608 608 l 608 -87 l 521 -87 l 521 -174 l 434 -174 l 434 -260 l 0 -260 l 0 -174 l 347 -174 l 347 -87 l 434 -87 l 434 0 l 87 0 l 87 87 l 0 87 m 174 781 l 87 781 l 87 868 l 260 868 l 260 781 l 347 781 l 347 868 l 521 868 l 521 781 l 434 781 l 434 694 l 174 694 l 174 781 z "},"џ":{"ha":694,"x_min":0,"x_max":608,"o":"m 0 0 l 0 87 l 87 87 l 87 521 l 0 521 l 0 608 l 260 608 l 260 87 l 347 87 l 347 608 l 608 608 l 608 521 l 521 521 l 521 87 l 608 87 l 608 0 l 347 0 l 347 -174 l 260 -174 l 260 0 l 0 0 z "},"Ґ":{"ha":694,"x_min":0,"x_max":608,"o":"m 0 0 l 0 87 l 87 87 l 87 781 l 0 781 l 0 868 l 434 868 l 434 955 l 521 955 l 521 1042 l 608 1042 l 608 781 l 260 781 l 260 87 l 347 87 l 347 0 l 0 0 z "},"ґ":{"ha":694,"x_min":0,"x_max":608,"o":"m 0 0 l 0 87 l 87 87 l 87 521 l 0 521 l 0 608 l 434 608 l 434 694 l 521 694 l 521 781 l 608 781 l 608 521 l 260 521 l 260 87 l 347 87 l 347 0 l 0 0 z "},"־":{"ha":694,"x_min":87,"x_max":608,"o":"m 87 608 l 87 694 l 608 694 l 608 608 l 87 608 z "},"א":{"ha":694,"x_min":0,"x_max":608,"o":"m 0 0 l 0 347 l 87 347 l 87 521 l 0 521 l 0 694 l 174 694 l 174 521 l 260 521 l 260 434 l 347 434 l 347 347 l 434 347 l 434 694 l 608 694 l 608 347 l 521 347 l 521 174 l 608 174 l 608 0 l 434 0 l 434 174 l 347 174 l 347 260 l 260 260 l 260 347 l 174 347 l 174 0 l 0 0 z "},"ב":{"ha":694,"x_min":0,"x_max":608,"o":"m 0 0 l 0 87 l 347 87 l 347 608 l 0 608 l 0 694 l 434 694 l 434 608 l 521 608 l 521 87 l 608 87 l 608 0 l 0 0 z "},"ג":{"ha":694,"x_min":0,"x_max":608,"o":"m 0 0 l 0 87 l 174 87 l 174 174 l 260 174 l 260 260 l 347 260 l 347 608 l 174 608 l 174 694 l 434 694 l 434 608 l 521 608 l 521 174 l 608 174 l 608 0 l 434 0 l 434 174 l 347 174 l 347 87 l 260 87 l 260 0 l 0 0 z "},"ד":{"ha":694,"x_min":0,"x_max":608,"o":"m 347 0 l 347 608 l 0 608 l 0 694 l 608 694 l 608 608 l 521 608 l 521 0 l 347 0 z "},"ה":{"ha":694,"x_min":0,"x_max":608,"o":"m 0 0 l 0 347 l 174 347 l 174 0 l 0 0 m 0 608 l 0 694 l 521 694 l 521 608 l 608 608 l 608 0 l 434 0 l 434 608 l 0 608 z "},"ו":{"ha":694,"x_min":87,"x_max":434,"o":"m 347 608 l 434 608 l 434 0 l 260 0 l 260 608 l 87 608 l 87 694 l 347 694 l 347 608 z "},"ז":{"ha":694,"x_min":0,"x_max":521,"o":"m 0 608 l 0 694 l 521 694 l 521 608 l 347 608 l 347 347 l 434 347 l 434 174 l 347 174 l 347 87 l 260 87 l 260 0 l 87 0 l 87 87 l 174 87 l 174 174 l 260 174 l 260 347 l 174 347 l 174 608 l 0 608 z "},"ח":{"ha":694,"x_min":0,"x_max":608,"o":"m 0 0 l 0 521 l 87 521 l 87 608 l 0 608 l 0 694 l 521 694 l 521 608 l 608 608 l 608 0 l 434 0 l 434 608 l 260 608 l 260 521 l 174 521 l 174 0 l 0 0 z "},"ט":{"ha":694,"x_min":0,"x_max":608,"o":"m 0 87 l 0 694 l 174 694 l 174 87 l 434 87 l 434 608 l 347 608 l 347 694 l 521 694 l 521 608 l 608 608 l 608 87 l 521 87 l 521 0 l 87 0 l 87 87 l 0 87 m 260 434 l 260 608 l 347 608 l 347 434 l 260 434 z "},"י":{"ha":694,"x_min":87,"x_max":434,"o":"m 347 347 l 347 260 l 174 260 l 174 347 l 260 347 l 260 608 l 87 608 l 87 694 l 347 694 l 347 608 l 434 608 l 434 347 l 347 347 z "},"ך":{"ha":694,"x_min":0,"x_max":608,"o":"m 0 608 l 0 694 l 521 694 l 521 608 l 608 608 l 608 347 l 521 347 l 521 -174 l 608 -174 l 608 -260 l 347 -260 l 347 347 l 434 347 l 434 608 l 0 608 z "},"כ":{"ha":694,"x_min":0,"x_max":608,"o":"m 0 0 l 0 87 l 434 87 l 434 608 l 0 608 l 0 694 l 521 694 l 521 608 l 608 608 l 608 87 l 521 87 l 521 0 l 0 0 z "},"ל":{"ha":694,"x_min":0,"x_max":608,"o":"m 0 608 l 0 868 l 174 868 l 174 694 l 521 694 l 521 608 l 608 608 l 608 260 l 521 260 l 521 174 l 434 174 l 434 0 l 260 0 l 260 174 l 347 174 l 347 260 l 434 260 l 434 608 l 0 608 z "},"ם":{"ha":694,"x_min":0,"x_max":608,"o":"m 0 0 l 0 521 l 87 521 l 87 608 l 0 608 l 0 694 l 521 694 l 521 608 l 608 608 l 608 0 l 0 0 m 174 87 l 434 87 l 434 608 l 260 608 l 260 521 l 174 521 l 174 87 z "},"מ":{"ha":694,"x_min":0,"x_max":608,"o":"m 0 0 l 0 434 l 87 434 l 87 608 l 0 608 l 0 694 l 174 694 l 174 608 l 260 608 l 260 694 l 521 694 l 521 608 l 608 608 l 608 0 l 260 0 l 260 87 l 434 87 l 434 608 l 347 608 l 347 521 l 260 521 l 260 434 l 174 434 l 174 0 l 0 0 z "},"ן":{"ha":694,"x_min":174,"x_max":521,"o":"m 174 608 l 174 694 l 434 694 l 434 608 l 521 608 l 521 434 l 434 434 l 434 -174 l 521 -174 l 521 -260 l 260 -260 l 260 434 l 347 434 l 347 608 l 174 608 z "},"נ":{"ha":694,"x_min":87,"x_max":521,"o":"m 347 87 l 347 608 l 174 608 l 174 694 l 434 694 l 434 608 l 521 608 l 521 0 l 87 0 l 87 87 l 347 87 z "},"ס":{"ha":694,"x_min":0,"x_max":608,"o":"m 0 87 l 0 521 l 87 521 l 87 608 l 0 608 l 0 694 l 521 694 l 521 608 l 608 608 l 608 174 l 521 174 l 521 87 l 434 87 l 434 0 l 87 0 l 87 87 l 0 87 m 174 87 l 347 87 l 347 174 l 434 174 l 434 608 l 260 608 l 260 521 l 174 521 l 174 87 z "},"ע":{"ha":694,"x_min":0,"x_max":608,"o":"m 0 0 l 0 87 l 174 87 l 174 174 l 87 174 l 87 608 l 0 608 l 0 694 l 260 694 l 260 87 l 347 87 l 347 174 l 434 174 l 434 608 l 347 608 l 347 694 l 608 694 l 608 174 l 521 174 l 521 87 l 434 87 l 434 0 l 0 0 z "},"ף":{"ha":694,"x_min":0,"x_max":608,"o":"m 0 260 l 0 521 l 87 521 l 87 608 l 0 608 l 0 694 l 434 694 l 434 608 l 521 608 l 521 -174 l 608 -174 l 608 -260 l 347 -260 l 347 608 l 174 608 l 174 347 l 260 347 l 260 260 l 0 260 z "},"פ":{"ha":694,"x_min":0,"x_max":608,"o":"m 0 0 l 0 87 l 434 87 l 434 608 l 174 608 l 174 347 l 260 347 l 260 260 l 0 260 l 0 521 l 87 521 l 87 608 l 0 608 l 0 694 l 521 694 l 521 608 l 608 608 l 608 0 l 0 0 z "},"ץ":{"ha":694,"x_min":0,"x_max":608,"o":"m 0 608 l 0 694 l 260 694 l 260 347 l 347 347 l 347 434 l 434 434 l 434 608 l 347 608 l 347 694 l 608 694 l 608 434 l 521 434 l 521 347 l 434 347 l 434 260 l 260 260 l 260 -174 l 347 -174 l 347 -260 l 87 -260 l 87 608 l 0 608 z "},"צ":{"ha":694,"x_min":0,"x_max":608,"o":"m 0 0 l 0 87 l 434 87 l 434 174 l 347 174 l 347 260 l 260 260 l 260 347 l 174 347 l 174 434 l 87 434 l 87 608 l 0 608 l 0 694 l 260 694 l 260 434 l 347 434 l 347 347 l 434 347 l 434 260 l 521 260 l 521 174 l 608 174 l 608 0 l 0 0 m 347 608 l 347 694 l 608 694 l 608 434 l 521 434 l 521 347 l 434 347 l 434 608 l 347 608 z "},"ק":{"ha":694,"x_min":0,"x_max":608,"o":"m 0 608 l 0 694 l 521 694 l 521 608 l 608 608 l 608 347 l 521 347 l 521 174 l 608 174 l 608 87 l 347 87 l 347 260 l 434 260 l 434 608 l 0 608 m 87 434 l 260 434 l 260 -260 l 87 -260 l 87 434 z "},"ר":{"ha":694,"x_min":0,"x_max":608,"o":"m 0 608 l 0 694 l 521 694 l 521 608 l 608 608 l 608 0 l 434 0 l 434 608 l 0 608 z "},"ש":{"ha":694,"x_min":0,"x_max":608,"o":"m 0 87 l 0 694 l 174 694 l 174 260 l 260 260 l 260 694 l 347 694 l 347 174 l 174 174 l 174 87 l 434 87 l 434 694 l 608 694 l 608 87 l 521 87 l 521 0 l 87 0 l 87 87 l 0 87 z "},"ת":{"ha":694,"x_min":0,"x_max":608,"o":"m 0 174 l 87 174 l 87 608 l 0 608 l 0 694 l 521 694 l 521 608 l 608 608 l 608 0 l 434 0 l 434 608 l 260 608 l 260 0 l 0 0 l 0 174 z "},"װ":{"ha":694,"x_min":0,"x_max":608,"o":"m 0 608 l 0 694 l 174 694 l 174 608 l 260 608 l 260 0 l 87 0 l 87 608 l 0 608 m 347 608 l 347 694 l 521 694 l 521 608 l 608 608 l 608 0 l 434 0 l 434 608 l 347 608 z "},"ױ":{"ha":694,"x_min":0,"x_max":608,"o":"m 0 608 l 0 694 l 174 694 l 174 608 l 260 608 l 260 347 l 87 347 l 87 608 l 0 608 m 347 608 l 347 694 l 521 694 l 521 608 l 608 608 l 608 0 l 434 0 l 434 608 l 347 608 z "},"ײ":{"ha":694,"x_min":0,"x_max":608,"o":"m 0 608 l 0 694 l 174 694 l 174 608 l 260 608 l 260 347 l 87 347 l 87 608 l 0 608 m 347 608 l 347 694 l 521 694 l 521 608 l 608 608 l 608 347 l 434 347 l 434 608 l 347 608 z "},"׳":{"ha":694,"x_min":174,"x_max":434,"o":"m 347 608 l 347 521 l 174 521 l 174 608 l 260 608 l 260 781 l 434 781 l 434 608 l 347 608 z "},"״":{"ha":694,"x_min":0,"x_max":608,"o":"m 0 521 l 0 608 l 87 608 l 87 781 l 260 781 l 260 608 l 174 608 l 174 521 l 0 521 m 347 521 l 347 608 l 434 608 l 434 781 l 608 781 l 608 608 l 521 608 l 521 521 l 347 521 z "},"ᴛ":{"ha":694,"x_min":0,"x_max":608,"o":"m 0 521 l 0 608 l 87 608 l 87 694 l 347 694 l 347 608 l 434 608 l 434 694 l 608 694 l 608 608 l 521 608 l 521 521 l 434 521 l 434 0 l 260 0 l 260 608 l 174 608 l 174 521 l 0 521 z "},"ᴦ":{"ha":694,"x_min":0,"x_max":608,"o":"m 0 0 l 0 868 l 608 868 l 608 608 l 434 608 l 434 781 l 174 781 l 174 0 l 0 0 z "},"ᴨ":{"ha":694,"x_min":0,"x_max":608,"o":"m 347 0 l 347 608 l 260 608 l 260 0 l 87 0 l 87 608 l 0 608 l 0 694 l 608 694 l 608 608 l 521 608 l 521 0 l 347 0 z "},"Ẁ":{"ha":694,"x_min":0,"x_max":608,"o":"m 0 87 l 0 781 l 174 781 l 174 260 l 260 260 l 260 521 l 347 521 l 347 260 l 434 260 l 434 781 l 608 781 l 608 87 l 521 87 l 521 0 l 347 0 l 347 174 l 260 174 l 260 0 l 87 0 l 87 87 l 0 87 m 174 955 l 174 1042 l 347 1042 l 347 955 l 434 955 l 434 868 l 260 868 l 260 955 l 174 955 z "},"ẁ":{"ha":694,"x_min":0,"x_max":608,"o":"m 0 87 l 0 608 l 174 608 l 174 174 l 260 174 l 260 434 l 347 434 l 347 174 l 434 174 l 434 608 l 608 608 l 608 87 l 521 87 l 521 0 l 347 0 l 347 87 l 260 87 l 260 0 l 87 0 l 87 87 l 0 87 m 174 868 l 87 868 l 87 955 l 260 955 l 260 868 l 347 868 l 347 781 l 434 781 l 434 694 l 260 694 l 260 781 l 174 781 l 174 868 z "},"Ẃ":{"ha":694,"x_min":0,"x_max":608,"o":"m 0 87 l 0 781 l 174 781 l 174 260 l 260 260 l 260 521 l 347 521 l 347 260 l 434 260 l 434 781 l 608 781 l 608 87 l 521 87 l 521 0 l 347 0 l 347 174 l 260 174 l 260 0 l 87 0 l 87 87 l 0 87 m 174 868 l 174 955 l 260 955 l 260 1042 l 434 1042 l 434 955 l 347 955 l 347 868 l 174 868 z "},"ẃ":{"ha":694,"x_min":0,"x_max":608,"o":"m 0 87 l 0 608 l 174 608 l 174 174 l 260 174 l 260 434 l 347 434 l 347 174 l 434 174 l 434 608 l 608 608 l 608 87 l 521 87 l 521 0 l 347 0 l 347 87 l 260 87 l 260 0 l 87 0 l 87 87 l 0 87 m 174 781 l 174 868 l 260 868 l 260 955 l 434 955 l 434 868 l 347 868 l 347 781 l 260 781 l 260 694 l 87 694 l 87 781 l 174 781 z "},"Ẅ":{"ha":694,"x_min":0,"x_max":608,"o":"m 0 87 l 0 781 l 174 781 l 174 260 l 260 260 l 260 521 l 347 521 l 347 260 l 434 260 l 434 781 l 608 781 l 608 87 l 521 87 l 521 0 l 347 0 l 347 174 l 260 174 l 260 0 l 87 0 l 87 87 l 0 87 m 0 868 l 0 955 l 174 955 l 174 868 l 0 868 m 434 955 l 608 955 l 608 868 l 434 868 l 434 955 z "},"ẅ":{"ha":694,"x_min":0,"x_max":608,"o":"m 0 87 l 0 608 l 174 608 l 174 174 l 260 174 l 260 434 l 347 434 l 347 174 l 434 174 l 434 608 l 608 608 l 608 87 l 521 87 l 521 0 l 347 0 l 347 87 l 260 87 l 260 0 l 87 0 l 87 87 l 0 87 m 0 781 l 0 868 l 174 868 l 174 781 l 0 781 m 434 781 l 434 868 l 608 868 l 608 781 l 434 781 z "},"ẟ":{"ha":694,"x_min":87,"x_max":608,"o":"m 174 87 l 87 87 l 87 434 l 174 434 l 174 521 l 347 521 l 347 608 l 260 608 l 260 694 l 174 694 l 174 781 l 260 781 l 260 868 l 608 868 l 608 781 l 347 781 l 347 694 l 434 694 l 434 608 l 521 608 l 521 521 l 608 521 l 608 87 l 521 87 l 521 0 l 174 0 l 174 87 m 260 87 l 434 87 l 434 434 l 260 434 l 260 87 z "},"Ỳ":{"ha":694,"x_min":87,"x_max":608,"o":"m 174 0 l 174 87 l 260 87 l 260 347 l 174 347 l 174 434 l 87 434 l 87 781 l 260 781 l 260 434 l 434 434 l 434 781 l 608 781 l 608 434 l 521 434 l 521 347 l 434 347 l 434 87 l 521 87 l 521 0 l 174 0 m 174 955 l 174 1042 l 347 1042 l 347 955 l 434 955 l 434 868 l 260 868 l 260 955 l 174 955 z "},"ỳ":{"ha":694,"x_min":0,"x_max":608,"o":"m 0 87 l 0 608 l 174 608 l 174 87 l 434 87 l 434 608 l 608 608 l 608 -87 l 521 -87 l 521 -174 l 434 -174 l 434 -260 l 0 -260 l 0 -174 l 347 -174 l 347 -87 l 434 -87 l 434 0 l 87 0 l 87 87 l 0 87 m 174 868 l 87 868 l 87 955 l 260 955 l 260 868 l 347 868 l 347 781 l 434 781 l 434 694 l 260 694 l 260 781 l 174 781 l 174 868 z "},"‐":{"ha":694,"x_min":87,"x_max":608,"o":"m 87 347 l 87 434 l 608 434 l 608 347 l 87 347 z "},"‒":{"ha":694,"x_min":87,"x_max":521,"o":"m 87 347 l 87 434 l 521 434 l 521 347 l 87 347 z "},"–":{"ha":694,"x_min":87,"x_max":521,"o":"m 87 347 l 87 434 l 521 434 l 521 347 l 87 347 z "},"—":{"ha":694,"x_min":0,"x_max":694,"o":"m 0 347 l 0 434 l 694 434 l 694 347 l 0 347 z "},"―":{"ha":694,"x_min":0,"x_max":694,"o":"m 0 347 l 0 434 l 694 434 l 694 347 l 0 347 z "},"‗":{"ha":694,"x_min":0,"x_max":694,"o":"m 0 -87 l 0 0 l 694 0 l 694 -87 l 0 -87 m 0 -174 l 694 -174 l 694 -260 l 0 -260 l 0 -174 z "},"‘":{"ha":694,"x_min":174,"x_max":434,"o":"m 434 955 l 434 868 l 347 868 l 347 694 l 174 694 l 174 868 l 260 868 l 260 955 l 434 955 z "},"’":{"ha":694,"x_min":174,"x_max":434,"o":"m 434 955 l 434 781 l 347 781 l 347 694 l 174 694 l 174 781 l 260 781 l 260 955 l 434 955 z "},"‚":{"ha":694,"x_min":174,"x_max":434,"o":"m 347 -174 l 347 -260 l 174 -260 l 174 -174 l 260 -174 l 260 0 l 434 0 l 434 -174 l 347 -174 z "},"‛":{"ha":694,"x_min":174,"x_max":434,"o":"m 347 781 l 434 781 l 434 694 l 260 694 l 260 781 l 174 781 l 174 955 l 347 955 l 347 781 z "},"“":{"ha":694,"x_min":0,"x_max":608,"o":"m 87 955 l 260 955 l 260 868 l 174 868 l 174 694 l 0 694 l 0 868 l 87 868 l 87 955 m 434 955 l 608 955 l 608 868 l 521 868 l 521 694 l 347 694 l 347 868 l 434 868 l 434 955 z "},"”":{"ha":694,"x_min":0,"x_max":608,"o":"m 87 955 l 260 955 l 260 781 l 174 781 l 174 694 l 0 694 l 0 781 l 87 781 l 87 955 m 434 955 l 608 955 l 608 781 l 521 781 l 521 694 l 347 694 l 347 781 l 434 781 l 434 955 z "},"„":{"ha":694,"x_min":0,"x_max":608,"o":"m 0 -174 l 87 -174 l 87 0 l 260 0 l 260 -174 l 174 -174 l 174 -260 l 0 -260 l 0 -174 m 347 -174 l 434 -174 l 434 0 l 608 0 l 608 -174 l 521 -174 l 521 -260 l 347 -260 l 347 -174 z "},"‟":{"ha":694,"x_min":0,"x_max":608,"o":"m 0 781 l 0 955 l 174 955 l 174 781 l 260 781 l 260 694 l 87 694 l 87 781 l 0 781 m 347 781 l 347 955 l 521 955 l 521 781 l 608 781 l 608 694 l 434 694 l 434 781 l 347 781 z "},"†":{"ha":694,"x_min":87,"x_max":608,"o":"m 434 955 l 434 608 l 608 608 l 608 521 l 434 521 l 434 -174 l 260 -174 l 260 521 l 87 521 l 87 608 l 260 608 l 260 955 l 434 955 z "},"‡":{"ha":694,"x_min":87,"x_max":608,"o":"m 87 174 l 87 260 l 260 260 l 260 521 l 87 521 l 87 608 l 260 608 l 260 955 l 434 955 l 434 608 l 608 608 l 608 521 l 434 521 l 434 260 l 608 260 l 608 174 l 434 174 l 434 -174 l 260 -174 l 260 174 l 87 174 z "},"•":{"ha":694,"x_min":174,"x_max":521,"o":"m 434 174 l 260 174 l 260 260 l 174 260 l 174 434 l 260 434 l 260 521 l 434 521 l 434 434 l 521 434 l 521 260 l 434 260 l 434 174 z "},"…":{"ha":694,"x_min":0,"x_max":694,"o":"m 0 174 l 174 174 l 174 0 l 0 0 l 0 174 m 694 174 l 694 0 l 521 0 l 521 174 l 694 174 m 434 174 l 434 0 l 260 0 l 260 174 l 434 174 z "},"‧":{"ha":694,"x_min":260,"x_max":434,"o":"m 434 434 l 434 260 l 260 260 l 260 434 l 434 434 z "},"‰":{"ha":694,"x_min":0,"x_max":694,"o":"m 0 87 l 0 174 l 87 174 l 87 260 l 174 260 l 174 347 l 260 347 l 260 434 l 347 434 l 347 521 l 434 521 l 434 608 l 608 608 l 608 521 l 521 521 l 521 434 l 434 434 l 434 347 l 347 347 l 347 260 l 260 260 l 260 174 l 174 174 l 174 87 l 0 87 m 0 434 l 0 608 l 174 608 l 174 434 l 0 434 m 521 174 l 694 174 l 694 0 l 521 0 l 521 174 m 260 174 l 434 174 l 434 0 l 260 0 l 260 174 z "},"′":{"ha":694,"x_min":174,"x_max":521,"o":"m 347 868 l 347 955 l 521 955 l 521 868 l 434 868 l 434 781 l 347 781 l 347 694 l 174 694 l 174 781 l 260 781 l 260 868 l 347 868 z "},"″":{"ha":694,"x_min":0,"x_max":608,"o":"m 0 694 l 0 781 l 87 781 l 87 868 l 174 868 l 174 955 l 347 955 l 347 868 l 260 868 l 260 781 l 174 781 l 174 694 l 0 694 m 260 781 l 347 781 l 347 868 l 434 868 l 434 955 l 608 955 l 608 868 l 521 868 l 521 781 l 434 781 l 434 694 l 260 694 l 260 781 z "},"‵":{"ha":694,"x_min":174,"x_max":521,"o":"m 347 868 l 434 868 l 434 781 l 521 781 l 521 694 l 347 694 l 347 781 l 260 781 l 260 868 l 174 868 l 174 955 l 347 955 l 347 868 z "},"‹":{"ha":694,"x_min":174,"x_max":521,"o":"m 174 347 l 174 434 l 260 434 l 260 521 l 347 521 l 347 608 l 521 608 l 521 521 l 434 521 l 434 434 l 347 434 l 347 347 l 434 347 l 434 260 l 521 260 l 521 174 l 347 174 l 347 260 l 260 260 l 260 347 l 174 347 z "},"›":{"ha":694,"x_min":174,"x_max":521,"o":"m 174 174 l 174 260 l 260 260 l 260 347 l 347 347 l 347 434 l 260 434 l 260 521 l 174 521 l 174 608 l 347 608 l 347 521 l 434 521 l 434 434 l 521 434 l 521 347 l 434 347 l 434 260 l 347 260 l 347 174 l 174 174 z "},"‼":{"ha":694,"x_min":87,"x_max":608,"o":"m 87 174 l 260 174 l 260 0 l 87 0 l 87 174 m 87 260 l 87 868 l 260 868 l 260 260 l 87 260 m 434 174 l 608 174 l 608 0 l 434 0 l 434 174 m 434 260 l 434 868 l 608 868 l 608 260 l 434 260 z "},"‾":{"ha":694,"x_min":87,"x_max":608,"o":"m 87 955 l 608 955 l 608 868 l 87 868 l 87 955 z "},"‿":{"ha":694,"x_min":0,"x_max":608,"o":"m 0 -174 l 0 -87 l 174 -87 l 174 -174 l 434 -174 l 434 -87 l 608 -87 l 608 -174 l 521 -174 l 521 -260 l 87 -260 l 87 -174 l 0 -174 z "},"⁀":{"ha":694,"x_min":0,"x_max":608,"o":"m 87 955 l 521 955 l 521 868 l 608 868 l 608 781 l 434 781 l 434 868 l 174 868 l 174 781 l 0 781 l 0 868 l 87 868 l 87 955 z "},"⁄":{"ha":694,"x_min":0,"x_max":608,"o":"m 0 174 l 87 174 l 87 260 l 174 260 l 174 347 l 260 347 l 260 434 l 347 434 l 347 521 l 434 521 l 434 608 l 521 608 l 521 694 l 608 694 l 608 521 l 521 521 l 521 434 l 434 434 l 434 347 l 347 347 l 347 260 l 260 260 l 260 174 l 174 174 l 174 87 l 87 87 l 87 0 l 0 0 l 0 174 z "},"⁔":{"ha":694,"x_min":0,"x_max":608,"o":"m 0 -174 l 87 -174 l 87 -87 l 521 -87 l 521 -174 l 608 -174 l 608 -260 l 434 -260 l 434 -174 l 174 -174 l 174 -260 l 0 -260 l 0 -174 z "},"⁴":{"ha":694,"x_min":0,"x_max":434,"o":"m 0 608 l 0 694 l 87 694 l 87 781 l 174 781 l 174 694 l 260 694 l 260 781 l 174 781 l 174 868 l 260 868 l 260 955 l 434 955 l 434 434 l 260 434 l 260 608 l 0 608 z "},"⁵":{"ha":694,"x_min":0,"x_max":434,"o":"m 0 434 l 0 521 l 260 521 l 260 694 l 0 694 l 0 955 l 434 955 l 434 868 l 174 868 l 174 781 l 347 781 l 347 694 l 434 694 l 434 521 l 347 521 l 347 434 l 0 434 z "},"⁶":{"ha":694,"x_min":0,"x_max":434,"o":"m 87 955 l 347 955 l 347 868 l 174 868 l 174 781 l 347 781 l 347 694 l 434 694 l 434 521 l 347 521 l 347 434 l 87 434 l 87 521 l 0 521 l 0 868 l 87 868 l 87 955 m 174 521 l 260 521 l 260 694 l 174 694 l 174 521 z "},"⁷":{"ha":694,"x_min":0,"x_max":434,"o":"m 0 781 l 0 955 l 434 955 l 434 781 l 347 781 l 347 694 l 260 694 l 260 434 l 87 434 l 87 694 l 174 694 l 174 781 l 260 781 l 260 868 l 87 868 l 87 781 l 0 781 z "},"⁸":{"ha":694,"x_min":0,"x_max":434,"o":"m 0 521 l 0 694 l 87 694 l 87 781 l 0 781 l 0 868 l 87 868 l 87 955 l 347 955 l 347 868 l 434 868 l 434 781 l 347 781 l 347 694 l 434 694 l 434 521 l 347 521 l 347 434 l 87 434 l 87 521 l 0 521 m 174 521 l 260 521 l 260 694 l 174 694 l 174 521 m 174 868 l 174 781 l 260 781 l 260 868 l 174 868 z "},"⁹":{"ha":694,"x_min":0,"x_max":434,"o":"m 87 955 l 347 955 l 347 868 l 434 868 l 434 521 l 347 521 l 347 434 l 87 434 l 87 521 l 260 521 l 260 608 l 87 608 l 87 694 l 0 694 l 0 868 l 87 868 l 87 955 m 174 694 l 260 694 l 260 868 l 174 868 l 174 694 z "},"⁺":{"ha":694,"x_min":0,"x_max":521,"o":"m 347 521 l 174 521 l 174 694 l 0 694 l 0 781 l 174 781 l 174 955 l 347 955 l 347 781 l 521 781 l 521 694 l 347 694 l 347 521 z "},"⁻":{"ha":694,"x_min":87,"x_max":521,"o":"m 87 694 l 87 781 l 521 781 l 521 694 l 87 694 z "},"ⁿ":{"ha":694,"x_min":0,"x_max":521,"o":"m 0 868 l 0 955 l 174 955 l 174 868 l 260 868 l 260 434 l 87 434 l 87 868 l 0 868 m 260 955 l 434 955 l 434 868 l 521 868 l 521 434 l 347 434 l 347 868 l 260 868 l 260 955 z "},"₁":{"ha":694,"x_min":87,"x_max":434,"o":"m 347 -174 l 434 -174 l 434 -260 l 87 -260 l 87 -174 l 174 -174 l 174 87 l 87 87 l 87 174 l 174 174 l 174 260 l 347 260 l 347 -174 z "},"₂":{"ha":694,"x_min":0,"x_max":434,"o":"m 0 87 l 0 174 l 87 174 l 87 260 l 347 260 l 347 174 l 434 174 l 434 87 l 347 87 l 347 0 l 260 0 l 260 -87 l 174 -87 l 174 -174 l 347 -174 l 347 -87 l 434 -87 l 434 -260 l 0 -260 l 0 -87 l 87 -87 l 87 0 l 174 0 l 174 87 l 260 87 l 260 174 l 174 174 l 174 87 l 0 87 z "},"₃":{"ha":694,"x_min":0,"x_max":434,"o":"m 0 174 l 0 260 l 347 260 l 347 174 l 434 174 l 434 87 l 347 87 l 347 0 l 434 0 l 434 -174 l 347 -174 l 347 -260 l 0 -260 l 0 -174 l 260 -174 l 260 0 l 87 0 l 87 87 l 260 87 l 260 174 l 0 174 z "},"₄":{"ha":694,"x_min":0,"x_max":434,"o":"m 0 -87 l 0 0 l 87 0 l 87 87 l 174 87 l 174 0 l 260 0 l 260 87 l 174 87 l 174 174 l 260 174 l 260 260 l 434 260 l 434 -260 l 260 -260 l 260 -87 l 0 -87 z "},"₅":{"ha":694,"x_min":0,"x_max":434,"o":"m 0 0 l 0 260 l 434 260 l 434 174 l 174 174 l 174 87 l 347 87 l 347 0 l 434 0 l 434 -174 l 347 -174 l 347 -260 l 0 -260 l 0 -174 l 260 -174 l 260 0 l 0 0 z "},"₆":{"ha":694,"x_min":0,"x_max":434,"o":"m 0 174 l 87 174 l 87 260 l 347 260 l 347 174 l 174 174 l 174 87 l 347 87 l 347 0 l 434 0 l 434 -174 l 347 -174 l 347 -260 l 87 -260 l 87 -174 l 0 -174 l 0 174 m 174 -174 l 260 -174 l 260 0 l 174 0 l 174 -174 z "},"₇":{"ha":694,"x_min":0,"x_max":434,"o":"m 0 87 l 0 260 l 434 260 l 434 87 l 347 87 l 347 0 l 260 0 l 260 -260 l 87 -260 l 87 0 l 174 0 l 174 87 l 260 87 l 260 174 l 87 174 l 87 87 l 0 87 z "},"₈":{"ha":694,"x_min":0,"x_max":434,"o":"m 0 87 l 0 174 l 87 174 l 87 260 l 347 260 l 347 174 l 434 174 l 434 87 l 347 87 l 347 0 l 434 0 l 434 -174 l 347 -174 l 347 -260 l 87 -260 l 87 -174 l 0 -174 l 0 0 l 87 0 l 87 87 l 0 87 m 174 174 l 174 87 l 260 87 l 260 174 l 174 174 m 174 -174 l 260 -174 l 260 0 l 174 0 l 174 -174 z "},"₉":{"ha":694,"x_min":0,"x_max":434,"o":"m 0 174 l 87 174 l 87 260 l 347 260 l 347 174 l 434 174 l 434 -174 l 347 -174 l 347 -260 l 87 -260 l 87 -174 l 260 -174 l 260 -87 l 87 -87 l 87 0 l 0 0 l 0 174 m 174 0 l 260 0 l 260 174 l 174 174 l 174 0 z "},"₊":{"ha":694,"x_min":0,"x_max":521,"o":"m 0 -87 l 0 0 l 174 0 l 174 174 l 347 174 l 347 0 l 521 0 l 521 -87 l 347 -87 l 347 -260 l 174 -260 l 174 -87 l 0 -87 z "},"₋":{"ha":694,"x_min":87,"x_max":521,"o":"m 87 -87 l 87 0 l 521 0 l 521 -87 l 87 -87 z "},"₣":{"ha":694,"x_min":0,"x_max":608,"o":"m 0 174 l 0 260 l 87 260 l 87 781 l 0 781 l 0 868 l 608 868 l 608 608 l 521 608 l 521 694 l 434 694 l 434 781 l 260 781 l 260 521 l 347 521 l 347 608 l 434 608 l 434 347 l 347 347 l 347 434 l 260 434 l 260 260 l 347 260 l 347 174 l 260 174 l 260 87 l 347 87 l 347 0 l 0 0 l 0 87 l 87 87 l 87 174 l 0 174 z "},"₤":{"ha":694,"x_min":0,"x_max":608,"o":"m 0 174 l 87 174 l 87 347 l 0 347 l 0 434 l 87 434 l 87 521 l 0 521 l 0 608 l 87 608 l 87 868 l 174 868 l 174 955 l 434 955 l 434 868 l 521 868 l 521 694 l 434 694 l 434 781 l 347 781 l 347 868 l 260 868 l 260 608 l 347 608 l 347 521 l 260 521 l 260 434 l 347 434 l 347 347 l 260 347 l 260 87 l 434 87 l 434 174 l 608 174 l 608 87 l 521 87 l 521 0 l 0 0 l 0 174 z "},"₧":{"ha":694,"x_min":0,"x_max":608,"o":"m 0 0 l 0 955 l 434 955 l 434 868 l 521 868 l 521 694 l 434 694 l 434 608 l 174 608 l 174 0 l 0 0 m 174 868 l 174 694 l 347 694 l 347 868 l 174 868 m 347 87 l 347 347 l 260 347 l 260 434 l 347 434 l 347 521 l 434 521 l 434 608 l 521 608 l 521 434 l 608 434 l 608 347 l 521 347 l 521 87 l 608 87 l 608 0 l 434 0 l 434 87 l 347 87 z "},"₪":{"ha":694,"x_min":0,"x_max":608,"o":"m 0 87 l 0 694 l 434 694 l 434 260 l 347 260 l 347 608 l 87 608 l 87 87 l 0 87 m 174 87 l 174 521 l 260 521 l 260 174 l 521 174 l 521 694 l 608 694 l 608 87 l 174 87 z "},"€":{"ha":694,"x_min":0,"x_max":608,"o":"m 0 434 l 0 521 l 87 521 l 87 608 l 174 608 l 174 694 l 260 694 l 260 781 l 521 781 l 521 694 l 608 694 l 608 608 l 434 608 l 434 694 l 347 694 l 347 608 l 260 608 l 260 521 l 521 521 l 521 434 l 260 434 l 260 347 l 434 347 l 434 260 l 260 260 l 260 174 l 347 174 l 347 87 l 434 87 l 434 174 l 608 174 l 608 87 l 521 87 l 521 0 l 260 0 l 260 87 l 174 87 l 174 174 l 87 174 l 87 260 l 0 260 l 0 347 l 87 347 l 87 434 l 0 434 z "},"℅":{"ha":694,"x_min":0,"x_max":608,"o":"m 0 87 l 0 260 l 87 260 l 87 347 l 174 347 l 174 434 l 260 434 l 260 521 l 347 521 l 347 608 l 434 608 l 434 694 l 521 694 l 521 781 l 608 781 l 608 608 l 521 608 l 521 521 l 434 521 l 434 434 l 347 434 l 347 347 l 260 347 l 260 260 l 174 260 l 174 174 l 87 174 l 87 87 l 0 87 m 0 608 l 0 868 l 87 868 l 87 955 l 260 955 l 260 868 l 174 868 l 174 608 l 260 608 l 260 521 l 87 521 l 87 608 l 0 608 m 347 -87 l 434 -87 l 434 174 l 347 174 l 347 -87 m 347 608 l 260 608 l 260 694 l 347 694 l 347 608 m 347 868 l 347 781 l 260 781 l 260 868 l 347 868 m 260 174 l 260 260 l 521 260 l 521 174 l 608 174 l 608 -87 l 521 -87 l 521 -174 l 260 -174 l 260 -87 l 174 -87 l 174 174 l 260 174 z "},"ℓ":{"ha":694,"x_min":87,"x_max":608,"o":"m 174 174 l 174 87 l 87 87 l 87 174 l 174 174 m 174 347 l 87 347 l 87 694 l 174 694 l 174 781 l 260 781 l 260 868 l 347 868 l 347 781 l 434 781 l 434 694 l 521 694 l 521 347 l 434 347 l 434 260 l 347 260 l 347 174 l 434 174 l 434 87 l 521 87 l 521 0 l 347 0 l 347 87 l 260 87 l 260 174 l 174 174 l 174 347 m 347 347 l 347 694 l 260 694 l 260 347 l 347 347 m 521 87 l 521 174 l 608 174 l 608 87 l 521 87 z "},"№":{"ha":694,"x_min":0,"x_max":694,"o":"m 0 0 l 0 868 l 87 868 l 87 781 l 174 781 l 174 694 l 260 694 l 260 608 l 347 608 l 347 868 l 694 868 l 694 521 l 521 521 l 521 434 l 694 434 l 694 347 l 521 347 l 521 0 l 347 0 l 347 347 l 260 347 l 260 434 l 174 434 l 174 0 l 0 0 m 521 608 l 608 608 l 608 781 l 521 781 l 521 608 z "},"™":{"ha":694,"x_min":0,"x_max":694,"o":"m 694 521 l 608 521 l 608 781 l 521 781 l 521 868 l 608 868 l 608 955 l 694 955 l 694 521 m 0 868 l 0 955 l 347 955 l 347 868 l 434 868 l 434 781 l 347 781 l 347 521 l 260 521 l 260 868 l 174 868 l 174 521 l 87 521 l 87 868 l 0 868 m 434 781 l 521 781 l 521 694 l 434 694 l 434 781 z "},"Ω":{"ha":694,"x_min":0,"x_max":608,"o":"m 0 0 l 0 87 l 87 87 l 87 434 l 0 434 l 0 694 l 87 694 l 87 781 l 174 781 l 174 868 l 434 868 l 434 781 l 521 781 l 521 694 l 608 694 l 608 434 l 521 434 l 521 87 l 608 87 l 608 0 l 347 0 l 347 434 l 434 434 l 434 694 l 347 694 l 347 781 l 260 781 l 260 694 l 174 694 l 174 434 l 260 434 l 260 0 l 0 0 z "},"℮":{"ha":694,"x_min":0,"x_max":608,"o":"m 0 87 l 0 521 l 87 521 l 87 608 l 521 608 l 521 521 l 608 521 l 608 347 l 174 347 l 174 87 l 434 87 l 434 174 l 608 174 l 608 87 l 521 87 l 521 0 l 87 0 l 87 87 l 0 87 m 174 434 l 434 434 l 434 521 l 174 521 l 174 434 z "},"⅐":{"ha":694,"x_min":0,"x_max":608,"o":"m 0 87 l 0 260 l 87 260 l 87 347 l 174 347 l 174 434 l 260 434 l 260 521 l 347 521 l 347 608 l 434 608 l 434 694 l 521 694 l 521 781 l 608 781 l 608 608 l 521 608 l 521 521 l 434 521 l 434 434 l 347 434 l 347 347 l 260 347 l 260 260 l 174 260 l 174 174 l 87 174 l 87 87 l 0 87 m 0 521 l 0 955 l 174 955 l 174 521 l 0 521 m 347 0 l 347 87 l 434 87 l 434 174 l 260 174 l 260 260 l 608 260 l 608 87 l 521 87 l 521 0 l 434 0 l 434 -174 l 260 -174 l 260 0 l 347 0 z "},"⅑":{"ha":694,"x_min":0,"x_max":608,"o":"m 0 87 l 0 260 l 87 260 l 87 347 l 174 347 l 174 434 l 260 434 l 260 521 l 347 521 l 347 608 l 434 608 l 434 694 l 521 694 l 521 781 l 608 781 l 608 608 l 521 608 l 521 521 l 434 521 l 434 434 l 347 434 l 347 347 l 260 347 l 260 260 l 174 260 l 174 174 l 87 174 l 87 87 l 0 87 m 0 521 l 0 955 l 174 955 l 174 521 l 0 521 m 347 174 l 347 87 l 434 87 l 434 174 l 347 174 m 260 174 l 260 260 l 521 260 l 521 174 l 608 174 l 608 -87 l 521 -87 l 521 -174 l 260 -174 l 260 -87 l 434 -87 l 434 0 l 260 0 l 260 87 l 174 87 l 174 174 l 260 174 z "},"⅓":{"ha":694,"x_min":0,"x_max":608,"o":"m 0 87 l 0 260 l 87 260 l 87 347 l 174 347 l 174 434 l 260 434 l 260 521 l 347 521 l 347 608 l 434 608 l 434 694 l 521 694 l 521 781 l 608 781 l 608 608 l 521 608 l 521 521 l 434 521 l 434 434 l 347 434 l 347 347 l 260 347 l 260 260 l 174 260 l 174 174 l 87 174 l 87 87 l 0 87 m 0 521 l 0 955 l 174 955 l 174 521 l 0 521 m 260 174 l 260 260 l 521 260 l 521 174 l 608 174 l 608 87 l 521 87 l 521 0 l 608 0 l 608 -87 l 521 -87 l 521 -174 l 260 -174 l 260 -87 l 434 -87 l 434 0 l 260 0 l 260 87 l 434 87 l 434 174 l 260 174 z "},"⅔":{"ha":694,"x_min":0,"x_max":608,"o":"m 0 87 l 0 260 l 87 260 l 87 347 l 174 347 l 174 434 l 260 434 l 260 521 l 0 521 l 0 694 l 87 694 l 87 781 l 174 781 l 174 868 l 0 868 l 0 955 l 260 955 l 260 868 l 347 868 l 347 781 l 260 781 l 260 694 l 174 694 l 174 608 l 434 608 l 434 694 l 521 694 l 521 781 l 608 781 l 608 608 l 521 608 l 521 521 l 434 521 l 434 434 l 347 434 l 347 347 l 260 347 l 260 260 l 174 260 l 174 174 l 87 174 l 87 87 l 0 87 m 260 174 l 260 260 l 521 260 l 521 174 l 608 174 l 608 87 l 521 87 l 521 0 l 608 0 l 608 -87 l 521 -87 l 521 -174 l 260 -174 l 260 -87 l 434 -87 l 434 0 l 260 0 l 260 87 l 434 87 l 434 174 l 260 174 z "},"⅕":{"ha":694,"x_min":0,"x_max":608,"o":"m 0 87 l 0 260 l 87 260 l 87 347 l 174 347 l 174 434 l 260 434 l 260 521 l 347 521 l 347 608 l 434 608 l 434 694 l 521 694 l 521 781 l 608 781 l 608 608 l 521 608 l 521 521 l 434 521 l 434 434 l 347 434 l 347 347 l 260 347 l 260 260 l 174 260 l 174 174 l 87 174 l 87 87 l 0 87 m 0 521 l 0 955 l 174 955 l 174 521 l 0 521 m 521 87 l 521 0 l 608 0 l 608 -87 l 521 -87 l 521 -174 l 260 -174 l 260 -87 l 434 -87 l 434 0 l 260 0 l 260 260 l 608 260 l 608 174 l 434 174 l 434 87 l 521 87 z "},"⅖":{"ha":694,"x_min":0,"x_max":608,"o":"m 0 87 l 0 260 l 87 260 l 87 347 l 174 347 l 174 434 l 260 434 l 260 521 l 0 521 l 0 694 l 87 694 l 87 781 l 174 781 l 174 868 l 0 868 l 0 955 l 260 955 l 260 868 l 347 868 l 347 781 l 260 781 l 260 694 l 174 694 l 174 608 l 434 608 l 434 694 l 521 694 l 521 781 l 608 781 l 608 608 l 521 608 l 521 521 l 434 521 l 434 434 l 347 434 l 347 347 l 260 347 l 260 260 l 174 260 l 174 174 l 87 174 l 87 87 l 0 87 m 260 -174 l 260 -87 l 434 -87 l 434 0 l 260 0 l 260 260 l 608 260 l 608 174 l 434 174 l 434 87 l 521 87 l 521 0 l 608 0 l 608 -87 l 521 -87 l 521 -174 l 260 -174 z "},"⅗":{"ha":694,"x_min":0,"x_max":608,"o":"m 0 87 l 0 260 l 87 260 l 87 347 l 174 347 l 174 434 l 260 434 l 260 521 l 347 521 l 347 608 l 434 608 l 434 694 l 521 694 l 521 781 l 608 781 l 608 608 l 521 608 l 521 521 l 434 521 l 434 434 l 347 434 l 347 347 l 260 347 l 260 260 l 174 260 l 174 174 l 87 174 l 87 87 l 0 87 m 0 521 l 0 608 l 174 608 l 174 694 l 0 694 l 0 781 l 174 781 l 174 868 l 0 868 l 0 955 l 260 955 l 260 868 l 347 868 l 347 781 l 260 781 l 260 694 l 347 694 l 347 608 l 260 608 l 260 521 l 0 521 m 260 -174 l 260 -87 l 434 -87 l 434 0 l 260 0 l 260 260 l 608 260 l 608 174 l 434 174 l 434 87 l 521 87 l 521 0 l 608 0 l 608 -87 l 521 -87 l 521 -174 l 260 -174 z "},"⅘":{"ha":694,"x_min":0,"x_max":608,"o":"m 0 87 l 0 260 l 87 260 l 87 347 l 174 347 l 174 434 l 260 434 l 260 521 l 174 521 l 174 608 l 0 608 l 0 781 l 87 781 l 87 694 l 174 694 l 174 781 l 87 781 l 87 868 l 174 868 l 174 955 l 347 955 l 347 608 l 434 608 l 434 694 l 521 694 l 521 781 l 608 781 l 608 608 l 521 608 l 521 521 l 434 521 l 434 434 l 347 434 l 347 347 l 260 347 l 260 260 l 174 260 l 174 174 l 87 174 l 87 87 l 0 87 m 260 -174 l 260 -87 l 434 -87 l 434 0 l 260 0 l 260 260 l 608 260 l 608 174 l 434 174 l 434 87 l 521 87 l 521 0 l 608 0 l 608 -87 l 521 -87 l 521 -174 l 260 -174 z "},"⅙":{"ha":694,"x_min":0,"x_max":608,"o":"m 0 87 l 0 260 l 87 260 l 87 347 l 174 347 l 174 434 l 260 434 l 260 521 l 347 521 l 347 608 l 434 608 l 434 694 l 521 694 l 521 781 l 608 781 l 608 608 l 521 608 l 521 521 l 434 521 l 434 434 l 347 434 l 347 347 l 260 347 l 260 260 l 174 260 l 174 174 l 87 174 l 87 87 l 0 87 m 0 521 l 0 955 l 174 955 l 174 521 l 0 521 m 347 174 l 347 87 l 521 87 l 521 0 l 608 0 l 608 -87 l 521 -87 l 521 -174 l 260 -174 l 260 -87 l 174 -87 l 174 174 l 260 174 l 260 260 l 521 260 l 521 174 l 347 174 m 347 0 l 347 -87 l 434 -87 l 434 0 l 347 0 z "},"⅚":{"ha":694,"x_min":0,"x_max":608,"o":"m 0 87 l 0 260 l 87 260 l 87 347 l 174 347 l 174 434 l 260 434 l 260 521 l 347 521 l 347 608 l 434 608 l 434 694 l 521 694 l 521 781 l 608 781 l 608 608 l 521 608 l 521 521 l 434 521 l 434 434 l 347 434 l 347 347 l 260 347 l 260 260 l 174 260 l 174 174 l 87 174 l 87 87 l 0 87 m 0 521 l 0 608 l 174 608 l 174 694 l 0 694 l 0 955 l 347 955 l 347 868 l 174 868 l 174 781 l 260 781 l 260 694 l 347 694 l 347 608 l 260 608 l 260 521 l 0 521 m 347 174 l 347 87 l 521 87 l 521 0 l 608 0 l 608 -87 l 521 -87 l 521 -174 l 260 -174 l 260 -87 l 174 -87 l 174 174 l 260 174 l 260 260 l 521 260 l 521 174 l 347 174 m 347 0 l 347 -87 l 434 -87 l 434 0 l 347 0 z "},"⅛":{"ha":694,"x_min":0,"x_max":608,"o":"m 0 87 l 0 260 l 87 260 l 87 347 l 174 347 l 174 434 l 260 434 l 260 521 l 347 521 l 347 608 l 434 608 l 434 694 l 521 694 l 521 781 l 608 781 l 608 608 l 521 608 l 521 521 l 434 521 l 434 434 l 347 434 l 347 347 l 260 347 l 260 260 l 174 260 l 174 174 l 87 174 l 87 87 l 0 87 m 0 521 l 0 955 l 174 955 l 174 521 l 0 521 m 347 174 l 347 87 l 434 87 l 434 174 l 347 174 m 347 0 l 347 -87 l 434 -87 l 434 0 l 347 0 m 260 174 l 260 260 l 521 260 l 521 174 l 608 174 l 608 87 l 521 87 l 521 0 l 608 0 l 608 -87 l 521 -87 l 521 -174 l 260 -174 l 260 -87 l 174 -87 l 174 0 l 260 0 l 260 87 l 174 87 l 174 174 l 260 174 z "}}}
